<?xml version="1.0" encoding="utf-8"?>
<!-- Generator: Adobe Illustrator 19.2.0, SVG Export Plug-In . SVG Version: 6.00 Build 0)  -->
<svg version="1.1" id="Layer_1" xmlns="http://www.w3.org/2000/svg" xmlns:xlink="http://www.w3.org/1999/xlink" x="0px" y="0px"
	 viewBox="0 0 1746.9 470.7" style="enable-background:new 0 0 1746.9 470.7;" xml:space="preserve">
<style type="text/css">
	.st0{fill:#444444;}
</style>
<path class="st0" d="M0,14.6C0,9.6,0,5,0,0c4.8,0,9.6,0,14.6,0c0,4.8,0,9.6,0,14.6C9.8,14.6,5.2,14.6,0,14.6z"/>
<path class="st0" d="M299.6,107.8c0,4.9,0,9.5,0,14.5c-4.8,0-9.5,0-14.6,0c0-4.8,0-9.5,0-14.5C290,107.8,294.7,107.8,299.6,107.8z"
	/>
<path class="st0" d="M126.1,111.2c0,4.9,0,9.5,0,14.5c-4.9,0-9.6,0-14.6,0c0-4.8,0-9.5,0-14.5C116.3,111.2,120.9,111.2,126.1,111.2z
	"/>
<path class="st0" d="M198.2,167.8c0-5.2,0-9.7,0-14.6c5,0,9.7,0,14.6,0c0,5,0,9.7,0,14.6C207.9,167.8,203.3,167.8,198.2,167.8z"/>
<path class="st0" d="M182.9,64.7c5,0,9.6,0,14.5,0c0,4.9,0,9.5,0,14.5c-4.7,0-9.4,0-14.5,0C182.9,74.5,182.9,69.8,182.9,64.7z"/>
<path class="st0" d="M126.1,89.3c0-4.9,0-9.5,0-14.5c4.9,0,9.7,0,14.7,0c0,4.8,0,9.4,0,14.5C136,89.3,131.3,89.3,126.1,89.3z"/>
<path class="st0" d="M319.5,273c0,5,0,9.6,0,14.5c-5,0-9.7,0-14.6,0c0-4.9,0-9.5,0-14.5C309.7,273,314.4,273,319.5,273z"/>
<path class="st0" d="M360.9,348.6c0-5.1,0-9.6,0-14.6c4.9,0,9.6,0,14.6,0c0,4.9,0,9.6,0,14.6C370.6,348.6,366.1,348.6,360.9,348.6z"
	/>
<path class="st0" d="M231.6,164.8c-4.9,0-9.5,0-14.5,0c0-4.8,0-9.5,0-14.6c4.8,0,9.5,0,14.5,0C231.6,155,231.6,159.6,231.6,164.8z"
	/>
<path class="st0" d="M191.5,201.6c0-5,0-9.6,0-14.4c5,0,9.7,0,14.6,0c0,4.9,0,9.5,0,14.4C201.4,201.6,196.7,201.6,191.5,201.6z"/>
<path class="st0" d="M67.1,229.2c4.9,0,9.4,0,14.4,0c0,4.9,0,9.6,0,14.6c-4.8,0-9.3,0-14.4,0C67.1,239.2,67.1,234.5,67.1,229.2z"/>
<path class="st0" d="M102.3,232.4c0,4.9,0,9.5,0,14.5c-4.8,0-9.5,0-14.6,0c0-4.8,0-9.5,0-14.5C92.6,232.4,97.2,232.4,102.3,232.4z"
	/>
<path class="st0" d="M169.4,218.7c-4.8,0-9.4,0-14.4,0c0-4.7,0-9.4,0-14.5c4.7,0,9.4,0,14.4,0C169.4,209,169.4,213.7,169.4,218.7z"
	/>
<path class="st0" d="M174.1,219c0-5,0-9.5,0-14.5c4.9,0,9.6,0,14.6,0c0,4.8,0,9.5,0,14.5C183.8,219,179.2,219,174.1,219z"/>
<path class="st0" d="M78.2,88.9c0,4.8,0,9.4,0,14.3c-4.9,0-9.4,0-14.5,0c0-4.6,0-9.1,0-14.3C68.3,88.9,73,88.9,78.2,88.9z"/>
<path class="st0" d="M66.3,38.4c0,4.9,0,9.4,0,14.4c-4.9,0-9.6,0-14.6,0c0-4.8,0-9.3,0-14.4C56.3,38.4,61,38.4,66.3,38.4z"/>
<path class="st0" d="M393.7,251.8c0-5.1,0-9.6,0-14.5c4.9,0,9.5,0,14.5,0c0,4.7,0,9.4,0,14.5C403.4,251.8,398.7,251.8,393.7,251.8z"
	/>
<path class="st0" d="M333.7,261.6c0-4.8,0-9.4,0-14.4c4.7,0,9.4,0,14.5,0c0,4.7,0,9.4,0,14.4C343.4,261.6,338.7,261.6,333.7,261.6z"
	/>
<path class="st0" d="M251,265.9c0-4.8,0-9.4,0-14.4c4.7,0,9.4,0,14.5,0c0,4.7,0,9.4,0,14.4C260.6,265.9,255.9,265.9,251,265.9z"/>
<path class="st0" d="M248.7,267.3c-5,0-9.5,0-14.5,0c0-4.9,0-9.6,0-14.6c4.8,0,9.5,0,14.5,0C248.7,257.6,248.7,262.1,248.7,267.3z"
	/>
<path class="st0" d="M400.6,292.8c-4.8,0-9.4,0-14.4,0c0-4.7,0-9.4,0-14.5c4.7,0,9.4,0,14.4,0C400.6,283.1,400.6,287.8,400.6,292.8z
	"/>
<path class="st0" d="M199.6,297.8c0-4.9,0-9.5,0-14.5c4.8,0,9.5,0,14.6,0c0,4.8,0,9.4,0,14.5C209.4,297.8,204.9,297.8,199.6,297.8z"
	/>
<path class="st0" d="M258.4,336c-5,0-9.6,0-14.4,0c0-4.8,0-9.4,0-14.4c4.6,0,9.3,0,14.4,0C258.4,326.2,258.4,330.8,258.4,336z"/>
<path class="st0" d="M156.9,124.5c5,0,9.5,0,14.3,0c0,4.8,0,9.5,0,14.6c-4.6,0-9.3,0-14.3,0C156.9,134.3,156.9,129.6,156.9,124.5z"
	/>
<path class="st0" d="M179.7,345.7c-4.9,0-9.5,0-14.4,0c0-4.8,0-9.5,0-14.5c4.8,0,9.5,0,14.4,0C179.7,336,179.7,340.7,179.7,345.7z"
	/>
<path class="st0" d="M41.8,333.1c0,5,0,9.6,0,14.5c-4.9,0-9.6,0-14.6,0c0-4.9,0-9.6,0-14.5C32.1,333.1,36.7,333.1,41.8,333.1z"/>
<path class="st0" d="M194.9,335.2c4.9,0,9.5,0,14.4,0c0,4.8,0,9.5,0,14.5c-4.7,0-9.4,0-14.4,0C194.9,345,194.9,340.4,194.9,335.2z"
	/>
<path class="st0" d="M500.4,216.7c5.1,0,9.5,0,14.4,0c0,4.8,0,9.5,0,14.7c-4.7,0-9.4,0-14.4,0C500.4,226.6,500.4,221.9,500.4,216.7z
	"/>
<path class="st0" d="M613,222.4c0,4.9,0,9.4,0,14.4c-4.8,0-9.5,0-14.6,0c0-4.7,0-9.4,0-14.4C603.2,222.4,607.8,222.4,613,222.4z"/>
<path class="st0" d="M527,178.1c0,5,0,9.6,0,14.5c-4.9,0-9.6,0-14.6,0c0-4.8,0-9.5,0-14.5C517.2,178.1,521.8,178.1,527,178.1z"/>
<path class="st0" d="M465.9,243.8c0,4.9,0,9.4,0,14.5c-4.8,0-9.5,0-14.5,0c0-4.7,0-9.4,0-14.5C456.2,243.8,460.9,243.8,465.9,243.8z
	"/>
<path class="st0" d="M649,148.6c5,0,9.5,0,14.4,0c0,5,0,9.7,0,14.6c-4.8,0-9.4,0-14.4,0C649,158.5,649,153.8,649,148.6z"/>
<path class="st0" d="M468.3,155.5c0,4.8,0,9.4,0,14.3c-4.9,0-9.6,0-14.6,0c0-4.7,0-9.3,0-14.3C458.3,155.5,463,155.5,468.3,155.5z"
	/>
<path class="st0" d="M607.4,179.9c-4.9,0-9.5,0-14.4,0c0-4.8,0-9.5,0-14.5c4.7,0,9.4,0,14.4,0C607.4,170.1,607.4,174.7,607.4,179.9z
	"/>
<path class="st0" d="M666.3,180.7c-4.9,0-9.5,0-14.4,0c0-4.9,0-9.6,0-14.6c4.8,0,9.4,0,14.4,0C666.3,170.8,666.3,175.5,666.3,180.7z
	"/>
<path class="st0" d="M665.6,183.8c0,4.9,0,9.6,0,14.6c-4.9,0-9.4,0-14.4,0c0-4.8,0-9.5,0-14.6C655.9,183.8,660.6,183.8,665.6,183.8z
	"/>
<path class="st0" d="M591.9,214.9c0-5,0-9.5,0-14.3c4.8,0,9.5,0,14.6,0c0,4.6,0,9.3,0,14.3C601.8,214.9,597.1,214.9,591.9,214.9z"/>
<path class="st0" d="M645.5,216.2c-5.1,0-9.6,0-14.5,0c0-4.9,0-9.5,0-14.5c4.7,0,9.4,0,14.5,0C645.5,206.5,645.5,211.2,645.5,216.2z
	"/>
<path class="st0" d="M608,110c-5.3,0-9.7,0-14.5,0c0-4.9,0-9.6,0-14.6c4.9,0,9.5,0,14.5,0C608,100.3,608,105.1,608,110z"/>
<path class="st0" d="M615.8,253.4c4.9,0,9.5,0,14.4,0c0,5,0,9.7,0,14.7c-4.9,0-9.5,0-14.4,0C615.8,263.3,615.8,258.6,615.8,253.4z"
	/>
<path class="st0" d="M461.7,283.5c5.1,0,9.7,0,14.5,0c0,4.9,0,9.4,0,14.4c-4.8,0-9.4,0-14.5,0C461.7,293.2,461.7,288.5,461.7,283.5z
	"/>
<path class="st0" d="M506.6,300.5c4.8,0,9.4,0,14.4,0c0,4.7,0,9.3,0,14.4c-4.7,0-9.4,0-14.4,0C506.6,310.1,506.6,305.5,506.6,300.5z
	"/>
<path class="st0" d="M631.1,310.1c5,0,9.5,0,14.5,0c0,4.9,0,9.6,0,14.6c-4.8,0-9.5,0-14.5,0C631.1,319.8,631.1,315.3,631.1,310.1z"
	/>
<path class="st0" d="M645.5,341c-5.1,0-9.7,0-14.5,0c0-4.9,0-9.5,0-14.5c4.8,0,9.4,0,14.5,0C645.5,331.3,645.5,336,645.5,341z"/>
<path class="st0" d="M472.7,345.7c-4.9,0-9.4,0-14.4,0c0-4.7,0-9.4,0-14.5c4.7,0,9.4,0,14.4,0C472.7,336,472.7,340.7,472.7,345.7z"
	/>
<path class="st0" d="M766.6,316.5c0.6-0.4,0.8-0.5,0.9-0.5c8.4-0.7,16.7-1.2,25.1-2c3.4-0.3,4.9,0.9,4.7,4.5
	c-0.2,3.4-0.1,6.9-0.1,10c-0.7,0.4-0.8,0.6-1,0.6c-8.4,0.6-16.7,1.2-25.1,1.9c-3.4,0.3-4.9-0.9-4.6-4.5
	C766.8,323.2,766.6,319.7,766.6,316.5z"/>
<path class="st0" d="M718.8,130.1c-4.8,0-9.4,0-14.4,0c0-4.9,0-9.6,0-14.7c4.8,0,9.4,0,14.4,0C718.8,120.1,718.8,124.8,718.8,130.1z
	"/>
<path class="st0" d="M876,98.3c0,4.9,0,9.5,0,14.5c-4.9,0-9.6,0-14.6,0c0-4.8,0-9.5,0-14.5C866.2,98.3,870.8,98.3,876,98.3z"/>
<path class="st0" d="M826.3,133.3c4.9,0,9.5,0,14.5,0c0,4.8,0,9.5,0,14.6c-4.8,0-9.5,0-14.5,0C826.3,143,826.3,138.2,826.3,133.3z"
	/>
<path class="st0" d="M772.4,235.4c-4.9,0-9.5,0-14.4,0c0-5,0-9.7,0-14.7c4.8,0,9.4,0,14.4,0C772.4,225.5,772.4,230.3,772.4,235.4z"
	/>
<path class="st0" d="M823.7,166.9c-4.9,0-9.5,0-14.4,0c0-4.9,0-9.5,0-14.5c4.6,0,9.2,0,14.4,0C823.7,156.9,823.7,161.7,823.7,166.9z
	"/>
<path class="st0" d="M843.5,165.7c0-4.8,0-9.5,0-14.5c4.8,0,9.4,0,14.5,0c0,4.8,0,9.5,0,14.5C853.2,165.7,848.5,165.7,843.5,165.7z"
	/>
<path class="st0" d="M875.8,131.1c-5,0-9.6,0-14.5,0c0-4.9,0-9.7,0-14.6c4.9,0,9.5,0,14.5,0C875.8,121.2,875.8,125.9,875.8,131.1z"
	/>
<path class="st0" d="M753.9,273.7c5,0,9.5,0,14.5,0c0,4.9,0,9.6,0,14.7c-4.8,0-9.5,0-14.5,0C753.9,283.5,753.9,278.9,753.9,273.7z"
	/>
<path class="st0" d="M824.1,310.4c0,4.9,0,9.4,0,14.4c-4.8,0-9.5,0-14.6,0c0-4.7,0-9.4,0-14.4C814.4,310.4,819.1,310.4,824.1,310.4z
	"/>
<path class="st0" d="M840.5,130.4c-4.9,0-9.6,0-14.6,0c0-4.9,0-9.5,0-14.5c4.8,0,9.5,0,14.6,0C840.5,120.7,840.5,125.4,840.5,130.4z
	"/>
<path class="st0" d="M823.4,343.4c-5,0-9.6,0-14.5,0c0-4.9,0-9.7,0-14.7c4.9,0,9.6,0,14.5,0C823.4,333.7,823.4,338.3,823.4,343.4z"
	/>
<path class="st0" d="M826.4,203.8c4.3,0,8.3-0.2,12.2,0.1c1,0.1,2.5,1.6,2.6,2.6c0.3,3.9,0.1,7.9,0.1,12.2c-5.2,0-9.9,0-14.9,0
	C826.4,213.8,826.4,209.2,826.4,203.8z"/>
<path class="st0" d="M826.3,201.1c0-4.8,0-9.4,0-14.4c4.8,0,9.5,0,14.6,0c0,4.6,0,9.3,0,14.4C836,201.1,831.3,201.1,826.3,201.1z"/>
<path class="st0" d="M727.3,147.5c-5,0-9.6,0-14.5,0c0-4.9,0-9.6,0-14.7c4.8,0,9.6,0,14.5,0C727.3,137.8,727.3,142.3,727.3,147.5z"
	/>
<path class="st0" d="M844.1,183.5c0-5,0-9.6,0-14.6c4.8,0,9.5,0,14.6,0c0,4.8,0,9.5,0,14.6C853.9,183.5,849.3,183.5,844.1,183.5z"/>
<path class="st0" d="M841.5,168.7c0,4.9,0,9.5,0,14.5c-4.7,0-9.4,0-14.5,0c0-4.7,0-9.4,0-14.5C831.8,168.7,836.5,168.7,841.5,168.7z
	"/>
<path class="st0" d="M822.9,183.2c-5.2,0-9.6,0-14.4,0c0-4.9,0-9.6,0-14.7c4.8,0,9.4,0,14.4,0C822.9,173.3,822.9,178.1,822.9,183.2z
	"/>
<path class="st0" d="M760,239.3c0,5,0,9.6,0,14.4c-4.9,0-9.5,0-14.5,0c0-4.7,0-9.4,0-14.4C750.2,239.3,754.9,239.3,760,239.3z"/>
<path class="st0" d="M738.3,111.7c0-4.9,0-9.4,0-14.4c4.8,0,9.5,0,14.6,0c0,4.7,0,9.4,0,14.4C748.1,111.7,743.5,111.7,738.3,111.7z"
	/>
<path class="st0" d="M823.1,204.4c0,5,0,9.6,0,14.5c-4.9,0-9.6,0-14.7,0c0-4.8,0-9.5,0-14.5C813.4,204.4,817.9,204.4,823.1,204.4z"
	/>
<path class="st0" d="M789.6,257c0,4.9,0,9.6,0,14.6c-4.9,0-9.5,0-14.5,0c0-4.9,0-9.6,0-14.6C779.9,257,784.6,257,789.6,257z"/>
<path class="st0" d="M774.4,240.2c4.9,0,9.6,0,14.5,0c0,5,0,9.7,0,14.6c-5,0-9.6,0-14.5,0C774.4,249.9,774.4,245.2,774.4,240.2z"/>
<path class="st0" d="M792.6,310c4.8,0,9.4,0,14.4,0c0,4.9,0,9.6,0,14.6c-4.7,0-9.3,0-14.4,0C792.6,320,792.6,315.3,792.6,310z"/>
<path class="st0" d="M826.8,97.9c5,0,9.6,0,14.5,0c0,4.9,0,9.6,0,14.7c-4.9,0-9.6,0-14.5,0C826.8,107.6,826.8,103.1,826.8,97.9z"/>
<path class="st0" d="M844,133.4c5,0,9.6,0,14.5,0c0,4.9,0,9.6,0,14.6c-4.9,0-9.5,0-14.5,0C844,143.1,844,138.5,844,133.4z"/>
<path class="st0" d="M861.2,133.6c4.9,0,9.5,0,14.4,0c0,4.8,0,9.5,0,14.5c-4.7,0-9.4,0-14.4,0C861.2,143.4,861.2,138.8,861.2,133.6z
	"/>
<path class="st0" d="M772.3,130.8c-5,0-9.6,0-14.4,0c0-4.8,0-9.4,0-14.4c4.6,0,9.3,0,14.4,0C772.3,121,772.3,125.7,772.3,130.8z"/>
<path class="st0" d="M755.8,150c5,0,9.6,0,14.5,0c0,4.8,0,9.6,0,14.6c-4.8,0-9.5,0-14.5,0C755.8,159.8,755.8,155.2,755.8,150z"/>
<path class="st0" d="M748.7,167.6c0,5,0,9.6,0,14.5c-4.9,0-9.6,0-14.6,0c0-4.8,0-9.5,0-14.5C739,167.6,743.5,167.6,748.7,167.6z"/>
<path class="st0" d="M771.2,183.2c-4.9,0-9.5,0-14.4,0c0-4.8,0-9.5,0-14.5c4.7,0,9.4,0,14.4,0C771.2,173.4,771.2,178,771.2,183.2z"
	/>
<path class="st0" d="M789.3,183c-4.8,0-9.4,0-14.4,0c0-4.7,0-9.4,0-14.5c4.7,0,9.4,0,14.4,0C789.3,173.3,789.3,178,789.3,183z"/>
<path class="st0" d="M714.2,199.8c-5,0-9.6,0-14.5,0c0-4.9,0-9.4,0-14.4c4.7,0,9.4,0,14.5,0C714.2,190,714.2,194.7,714.2,199.8z"/>
<path class="st0" d="M789.5,200.3c-4.8,0-9.4,0-14.4,0c0-4.7,0-9.4,0-14.5c4.7,0,9.3,0,14.4,0C789.5,190.6,789.5,195.3,789.5,200.3z
	"/>
<path class="st0" d="M806.2,201c-5,0-9.6,0-14.5,0c0-4.9,0-9.6,0-14.6c4.8,0,9.5,0,14.5,0C806.2,191.2,806.2,195.8,806.2,201z"/>
<path class="st0" d="M809.2,186.5c4.8,0,9.4,0,14.4,0c0,4.7,0,9.4,0,14.5c-4.7,0-9.4,0-14.4,0C809.2,196.2,809.2,191.5,809.2,186.5z
	"/>
<path class="st0" d="M743.3,218.7c-5,0-9.6,0-14.5,0c0-4.9,0-9.4,0-14.5c4.7,0,9.4,0,14.5,0C743.3,208.8,743.3,213.5,743.3,218.7z"
	/>
<path class="st0" d="M806.1,219.1c-4.8,0-9.3,0-14.4,0c0-4.6,0-9.3,0-14.4c4.6,0,9.3,0,14.4,0C806.1,209.4,806.1,214.1,806.1,219.1z
	"/>
<path class="st0" d="M684.7,110.7c0-4.8,0-9.3,0-14.4c4.6,0,9.3,0,14.5,0c0,4.6,0,9.3,0,14.4C694.4,110.7,689.7,110.7,684.7,110.7z"
	/>
<path class="st0" d="M858.7,112.8c-4.8,0-9.4,0-14.4,0c0-4.7,0-9.4,0-14.5c4.7,0,9.4,0,14.4,0C858.7,103.1,858.7,107.8,858.7,112.8z
	"/>
<path class="st0" d="M878.7,98.5c5,0,9.4,0,14.3,0c0,4.8,0,9.4,0,14.6c-4.6,0-9.3,0-14.3,0C878.7,108.4,878.7,103.7,878.7,98.5z"/>
<path class="st0" d="M823.2,236.1c-4.9,0-9.5,0-14.4,0c0-4.8,0-9.5,0-14.5c4.7,0,9.4,0,14.4,0C823.2,226.3,823.2,230.8,823.2,236.1z
	"/>
<path class="st0" d="M789.3,236.8c-5,0-9.6,0-14.4,0c0-4.8,0-9.4,0-14.4c4.6,0,9.3,0,14.4,0C789.3,226.9,789.3,231.6,789.3,236.8z"
	/>
<path class="st0" d="M806.5,236.7c-5,0-9.6,0-14.4,0c0-4.8,0-9.4,0-14.4c4.7,0,9.4,0,14.4,0C806.5,226.9,806.5,231.6,806.5,236.7z"
	/>
<path class="st0" d="M791,253.7c0-5,0-9.5,0-14.4c4.8,0,9.4,0,14.4,0c0,4.6,0,9.3,0,14.4C800.8,253.7,796.1,253.7,791,253.7z"/>
<path class="st0" d="M808.8,254c0-4.8,0-9.4,0-14.4c4.9,0,9.6,0,14.6,0c0,4.8,0,9.3,0,14.4C818.7,254,814,254,808.8,254z"/>
<path class="st0" d="M771.2,270.9c-5,0-9.4,0-14.3,0c0-4.8,0-9.5,0-14.6c4.6,0,9.3,0,14.3,0C771.2,261,771.2,265.7,771.2,270.9z"/>
<path class="st0" d="M805.6,272.1c-2,0-3.5,0-5,0c-10.2,0-10,0-10.1-9.9c-0.1-4.1,1.1-5.7,5.3-5.3c3.1,0.3,6.3,0.1,9.8,0.1
	C805.6,262,805.6,266.7,805.6,272.1z"/>
<path class="st0" d="M808.9,257.5c5,0,9.6,0,14.4,0c0,4.8,0,9.4,0,14.4c-4.7,0-9.4,0-14.4,0C808.9,267.4,808.9,262.7,808.9,257.5z"
	/>
<path class="st0" d="M843.6,116c5,0,9.6,0,14.5,0c0,4.9,0,9.6,0,14.6c-4.9,0-9.5,0-14.5,0C843.6,125.8,843.6,121.2,843.6,116z"/>
<path class="st0" d="M789.3,289c-5,0-9.4,0-14.3,0c0-4.8,0-9.5,0-14.6c4.6,0,9.3,0,14.3,0C789.3,279.2,789.3,283.9,789.3,289z"/>
<path class="st0" d="M805.8,275.4c0,4.9,0,9.5,0,14.4c-5,0-9.7,0-14.7,0c0-4.8,0-9.4,0-14.4C795.9,275.4,800.6,275.4,805.8,275.4z"
	/>
<path class="st0" d="M773.6,309.1c-4.8,0-9.4,0-14.4,0c0-4.7,0-9.4,0-14.5c4.7,0,9.4,0,14.4,0C773.6,299.4,773.6,304.1,773.6,309.1z
	"/>
<path class="st0" d="M806.4,306.7c-5,0-9.6,0-14.5,0c0-4.9,0-9.6,0-14.6c4.8,0,9.5,0,14.5,0C806.4,297,806.4,301.5,806.4,306.7z"/>
<path class="st0" d="M809.8,292.5c4.9,0,9.5,0,14.4,0c0,4.9,0,9.6,0,14.6c-4.8,0-9.4,0-14.4,0C809.8,302.3,809.8,297.6,809.8,292.5z
	"/>
<path class="st0" d="M790.7,311.2c-4.9,0-9.5,0-14.4,0c0-4.9,0-9.6,0-14.6c4.8,0,9.4,0,14.4,0C790.7,301.3,790.7,306,790.7,311.2z"
	/>
<path class="st0" d="M789.6,328.3c0,4.9,0,9.5,0,14.4c-4.8,0-9.4,0-14.4,0c0-4.6,0-9.3,0-14.4C779.7,328.3,784.4,328.3,789.6,328.3z
	"/>
<path class="st0" d="M806.4,343.2c-4.9,0-9.5,0-14.5,0c0-4.8,0-9.5,0-14.6c4.8,0,9.5,0,14.5,0C806.4,333.4,806.4,338,806.4,343.2z"
	/>
<path class="st0" d="M771.5,132.6c0,4.8,0,9.4,0,14.4c-4.7,0-9.4,0-14.5,0c0-4.6,0-9.3,0-14.4C761.8,132.6,766.5,132.6,771.5,132.6z
	"/>
<path class="st0" d="M826.4,151.1c5,0,9.5,0,14.5,0c0,4.9,0,9.6,0,14.6c-4.9,0-9.4,0-14.5,0C826.4,161,826.4,156.3,826.4,151.1z"/>
<path class="st0" d="M808.7,275.7c5,0,9.6,0,14.5,0c0,4.8,0,9.4,0,14.4c-4.7,0-9.4,0-14.5,0C808.7,285.5,808.7,280.8,808.7,275.7z"
	/>
<path class="st0" d="M987.2,262.2v74.4c0,7.8-2.6,11.1-10.4,11.1h-40c-7.8,0-10.7-3.3-10.7-11.1V107.1c0-7.8,3-11.1,10.7-11.1h79.9
	c69.6,0,94,31.5,94,63.3v39.6c0,31.8-24.4,63.3-94,63.3L987.2,262.2L987.2,262.2z M987.2,146v66.2h29.6c18.1,0,33.7-7,33.7-24.1V170
	c0-17-15.5-24.1-33.7-24.1h-29.6V146z"/>
<path class="st0" d="M1294.3,96c7.8,0,11.1,2.6,11.1,10.4v28.9c0,7.8-3.3,10.7-11.1,10.7h-47.4v190.6c0,7.8-2.6,11.1-10.4,11.1h-40
	c-7.8,0-10.7-3.3-10.7-11.1V146h-47.4c-7.8,0-11.1-3-11.1-10.7v-28.9c0-7.8,3.3-10.4,11.1-10.4H1294.3z"/>
<path class="st0" d="M1328.7,156.4c0-31.8,24.8-63.3,94.4-63.3s94.7,31.5,94.7,63.3v131c0,31.8-25.2,63.3-94.7,63.3
	s-94.4-31.5-94.4-63.3V156.4z M1456.7,167.1c0-17-15.5-24.1-33.7-24.1s-33.3,7-33.3,24.1v109.5c0,17,15.2,24.1,33.3,24.1
	s33.7-7,33.7-24.1V167.1z"/>
<path class="st0" d="M1708.4,245.5l36.3,91c2.6,6.7-2.2,11.1-10.4,11.1h-40c-7,0-8.5-5.9-10.7-11.1l-32.6-81.8h-27.8v81.8
	c0,7.8-2.6,11.1-10.4,11.1h-40c-7.8,0-10.7-3.3-10.7-11.1V107.1c0-7.8,3-11.1,10.7-11.1h79.9c69.6,0,94,31.5,94,63.3v32.2
	C1746.9,212.6,1736.1,233.7,1708.4,245.5z M1623.3,146v58.8h29.6c18.1,0,33.7-7,33.7-24.1V170c0-17-15.5-24.1-33.7-24.1h-29.6V146z"
	/>
<path class="st0" d="M827.7,256.4l68.1-147.3c3.3-7-0.4-11.1-8.1-11.1H858c-0.6,12.6-0.8,22.8,0,23.8c2.3,3.1,3.4,15.1,3.4,15.1
	l-3.4,24.3c0,0-19.6,7.5-23.8,9.5c-4.1,2-7.9,22-7.8,23.9c0,1.9,14.1,3.6,14.1,3.6l-16.2,35.3l-18.8,9.6c0,0-17.2,12.4-16.4,13.7
	s8,16.3,8,16.3s-1.3,27.6,0,29.6s-22.7,18.7-24.7,20c-0.7,0.4-2.9,3-5.7,6.2v2.3l0,0c-0.1,71.6,0.1,80.3,0.2,126.7
	c0,8.9,5,12.6,14,12.6c5,0,29,0.1,34-0.1c6.6-0.2,13.5-4.1,13.5-10.7C828.4,451.1,827.7,256.4,827.7,256.4z"/>
<path class="st0" d="M771.2,202.4c-4.8,0-9.4,0-14.4,0c0-4.7,0-9.4,0-14.5c4.7,0,9.4,0,14.4,0C771.2,192.8,771.2,197.5,771.2,202.4z
	"/>
<path class="st0" d="M772.4,218.1c-4.8,0-9.4,0-14.4,0c0-4.7,0-9.4,0-14.5c4.7,0,9.4,0,14.4,0C772.4,208.4,772.4,213.1,772.4,218.1z
	"/>
<path class="st0" d="M787.9,218.5c-4.8,0-9.4,0-14.4,0c0-4.7,0-9.4,0-14.5c4.7,0,9.4,0,14.4,0C787.9,208.9,787.9,213.6,787.9,218.5z
	"/>
<path class="st0" d="M754.5,134.5c0,4.8,0,9.4,0,14.4c-4.7,0-9.4,0-14.5,0c0-4.6,0-9.3,0-14.4C744.8,134.5,749.5,134.5,754.5,134.5z
	"/>
<path class="st0" d="M754.5,150.1c0,4.8,0,9.4,0,14.4c-4.7,0-9.4,0-14.5,0c0-4.6,0-9.3,0-14.4C744.8,150.1,749.5,150.1,754.5,150.1z
	"/>
<path class="st0" d="M721.5,151c0,5,0,9.6,0,14.5c-4.9,0-9.6,0-14.6,0c0-4.8,0-9.5,0-14.5C711.7,151,716.3,151,721.5,151z"/>
<path class="st0" d="M731.6,169c0,5,0,9.6,0,14.5c-4.9,0-9.6,0-14.6,0c0-4.8,0-9.5,0-14.5C721.9,169,726.4,169,731.6,169z"/>
<path class="st0" d="M720,110.9c-4.8,0-9.4,0-14.4,0c0-4.9,0-9.6,0-14.7c4.8,0,9.4,0,14.4,0C720,100.9,720,105.6,720,110.9z"/>
<path class="st0" d="M736.3,112.9c-4.8,0-9.4,0-14.4,0c0-4.9,0-9.6,0-14.7c4.8,0,9.4,0,14.4,0C736.3,102.8,736.3,107.5,736.3,112.9z
	"/>
<path class="st0" d="M737.2,129.1c-4.8,0-9.4,0-14.4,0c0-4.9,0-9.6,0-14.7c4.8,0,9.4,0,14.4,0C737.2,119,737.2,123.7,737.2,129.1z"
	/>
<path class="st0" d="M753.7,130.4c-4.8,0-9.4,0-14.4,0c0-4.9,0-9.6,0-14.7c4.8,0,9.4,0,14.4,0C753.7,120.4,753.7,125.1,753.7,130.4z
	"/>
<path class="st0" d="M709.5,145.9c-5,0-9.6,0-14.5,0c0-4.9,0-9.6,0-14.7c4.8,0,9.6,0,14.5,0C709.5,136.1,709.5,140.7,709.5,145.9z"
	/>
<path class="st0" d="M612.5,309.3c5,0,9.5,0,14.5,0c0,4.9,0,9.6,0,14.6c-4.8,0-9.5,0-14.5,0C612.5,319.1,612.5,314.5,612.5,309.3z"
	/>
<path class="st0" d="M612.5,324.7c5,0,9.5,0,14.5,0c0,4.9,0,9.6,0,14.6c-4.8,0-9.5,0-14.5,0C612.5,334.4,612.5,329.9,612.5,324.7z"
	/>
<path class="st0" d="M596.6,327.3c5,0,9.5,0,14.5,0c0,4.9,0,9.6,0,14.6c-4.8,0-9.5,0-14.5,0C596.6,337.1,596.6,332.5,596.6,327.3z"
	/>
<path class="st0" d="M577.1,312.2c5,0,9.5,0,14.5,0c0,4.9,0,9.6,0,14.6c-4.8,0-9.5,0-14.5,0C577.1,322,577.1,317.4,577.1,312.2z"/>
<path class="st0" d="M593.8,306c5,0,9.5,0,14.5,0c0,4.9,0,9.6,0,14.6c-4.8,0-9.5,0-14.5,0C593.8,315.7,593.8,311.2,593.8,306z"/>
<path class="st0" d="M594.4,290.6c5,0,9.5,0,14.5,0c0,4.9,0,9.6,0,14.6c-4.8,0-9.5,0-14.5,0C594.4,300.4,594.4,295.8,594.4,290.6z"
	/>
<path class="st0" d="M578.5,290.6c5,0,9.5,0,14.5,0c0,4.9,0,9.6,0,14.6c-4.8,0-9.5,0-14.5,0C578.5,300.4,578.5,295.8,578.5,290.6z"
	/>
<path class="st0" d="M593.8,275.5c5,0,9.5,0,14.5,0c0,4.9,0,9.6,0,14.6c-4.8,0-9.5,0-14.5,0C593.8,285.3,593.8,280.8,593.8,275.5z"
	/>
<path class="st0" d="M617.7,277c5,0,9.5,0,14.5,0c0,4.9,0,9.6,0,14.6c-4.8,0-9.5,0-14.5,0C617.7,286.7,617.7,282.2,617.7,277z"/>
<path class="st0" d="M633.7,290.6c5,0,9.5,0,14.5,0c0,4.9,0,9.6,0,14.6c-4.8,0-9.5,0-14.5,0C633.7,300.4,633.7,295.8,633.7,290.6z"
	/>
<path class="st0" d="M617.7,292.6c5,0,9.5,0,14.5,0c0,4.9,0,9.6,0,14.6c-4.8,0-9.5,0-14.5,0C617.7,302.4,617.7,297.8,617.7,292.6z"
	/>
<path class="st0" d="M573.4,272.2c5,0,9.5,0,14.5,0c0,4.9,0,9.6,0,14.6c-4.8,0-9.5,0-14.5,0C573.4,282,573.4,277.4,573.4,272.2z"/>
<path class="st0" d="M565.4,259.2c5,0,9.5,0,14.5,0c0,4.9,0,9.6,0,14.6c-4.8,0-9.5,0-14.5,0C565.4,269,565.4,264.4,565.4,259.2z"/>
<path class="st0" d="M574.5,251.9c5,0,9.5,0,14.5,0c0,4.9,0,9.6,0,14.6c-4.8,0-9.5,0-14.5,0C574.5,261.7,574.5,257.1,574.5,251.9z"
	/>
<path class="st0" d="M595.6,254.4c5,0,9.5,0,14.5,0c0,4.9,0,9.6,0,14.6c-4.8,0-9.5,0-14.5,0C595.6,264.2,595.6,259.6,595.6,254.4z"
	/>
<path class="st0" d="M592.4,240.6c5,0,9.5,0,14.5,0c0,4.9,0,9.6,0,14.6c-4.8,0-9.5,0-14.5,0C592.4,250.3,592.4,245.8,592.4,240.6z"
	/>
<path class="st0" d="M580.6,241.9c5,0,9.5,0,14.5,0c0,4.9,0,9.6,0,14.6c-4.8,0-9.5,0-14.5,0C580.6,251.7,580.6,247.2,580.6,241.9z"
	/>
<path class="st0" d="M566.1,234.6c5,0,9.5,0,14.5,0c0,4.9,0,9.6,0,14.6c-4.8,0-9.5,0-14.5,0C566.1,244.4,566.1,239.9,566.1,234.6z"
	/>
<path class="st0" d="M628,204.4c0,4.9,0,9.4,0,14.4c-4.8,0-9.5,0-14.6,0c0-4.7,0-9.4,0-14.4C618.2,204.4,622.8,204.4,628,204.4z"/>
<path class="st0" d="M632.6,219.3c0,4.9,0,9.4,0,14.4c-4.8,0-9.5,0-14.6,0c0-4.7,0-9.4,0-14.4C622.8,219.3,627.3,219.3,632.6,219.3z
	"/>
<path class="st0" d="M574.4,213.5c0-5,0-9.5,0-14.3c4.8,0,9.5,0,14.6,0c0,4.6,0,9.3,0,14.3C584.3,213.5,579.6,213.5,574.4,213.5z"/>
<path class="st0" d="M573.3,231.2c0-5,0-9.5,0-14.3c4.8,0,9.5,0,14.6,0c0,4.6,0,9.3,0,14.3C583.2,231.2,578.5,231.2,573.3,231.2z"/>
<path class="st0" d="M564.5,220.7c0-5,0-9.5,0-14.3c4.8,0,9.5,0,14.6,0c0,4.6,0,9.3,0,14.3C574.3,220.7,569.6,220.7,564.5,220.7z"/>
<path class="st0" d="M554.8,232.2c0-5,0-9.5,0-14.3c4.8,0,9.5,0,14.6,0c0,4.6,0,9.3,0,14.3C564.7,232.2,560,232.2,554.8,232.2z"/>
<path class="st0" d="M548.4,247.7c0-5,0-9.5,0-14.3c4.8,0,9.5,0,14.6,0c0,4.6,0,9.3,0,14.3C558.2,247.7,553.5,247.7,548.4,247.7z"/>
<path class="st0" d="M644.2,199.1c-5.1,0-9.6,0-14.5,0c0-4.9,0-9.5,0-14.5c4.7,0,9.4,0,14.5,0C644.2,189.4,644.2,194.1,644.2,199.1z
	"/>
<path class="st0" d="M631.4,196.6c-5.1,0-9.6,0-14.5,0c0-4.9,0-9.5,0-14.5c4.7,0,9.4,0,14.5,0C631.4,186.9,631.4,191.6,631.4,196.6z
	"/>
<path class="st0" d="M628.5,182.1c-5.1,0-9.6,0-14.5,0c0-4.9,0-9.5,0-14.5c4.7,0,9.4,0,14.5,0C628.5,172.4,628.5,177.1,628.5,182.1z
	"/>
<path class="st0" d="M614.6,196.6c-5.1,0-9.6,0-14.5,0c0-4.9,0-9.5,0-14.5c4.7,0,9.4,0,14.5,0C614.6,186.9,614.6,191.6,614.6,196.6z
	"/>
<path class="st0" d="M648.9,181.7c-4.9,0-9.5,0-14.4,0c0-4.9,0-9.6,0-14.6c4.8,0,9.4,0,14.4,0C648.9,171.8,648.9,176.5,648.9,181.7z
	"/>
<path class="st0" d="M646.6,169.5c-4.9,0-9.5,0-14.4,0c0-4.9,0-9.6,0-14.6c4.8,0,9.4,0,14.4,0C646.6,159.6,646.6,164.3,646.6,169.5z
	"/>
<path class="st0" d="M626.9,164.6c-5.1,0-9.6,0-14.5,0c0-4.9,0-9.5,0-14.5c4.7,0,9.4,0,14.5,0C626.9,154.8,626.9,159.5,626.9,164.6z
	"/>
<path class="st0" d="M614.6,161c-5.1,0-9.6,0-14.5,0c0-4.9,0-9.5,0-14.5c4.7,0,9.4,0,14.5,0C614.6,151.3,614.6,155.9,614.6,161z"/>
<path class="st0" d="M628,145.8c-5.1,0-9.6,0-14.5,0c0-4.9,0-9.5,0-14.5c4.7,0,9.4,0,14.5,0C628,136.1,628,140.8,628,145.8z"/>
<path class="st0" d="M614.6,143.5c-5.1,0-9.6,0-14.5,0c0-4.9,0-9.5,0-14.5c4.7,0,9.4,0,14.5,0C614.6,133.8,614.6,138.5,614.6,143.5z
	"/>
<path class="st0" d="M610.7,131.2c-5.1,0-9.6,0-14.5,0c0-4.9,0-9.5,0-14.5c4.7,0,9.4,0,14.5,0C610.7,121.4,610.7,126.1,610.7,131.2z
	"/>
<path class="st0" d="M597.6,146.4c-5.1,0-9.6,0-14.5,0c0-4.9,0-9.5,0-14.5c4.7,0,9.4,0,14.5,0C597.6,136.7,597.6,141.3,597.6,146.4z
	"/>
<path class="st0" d="M633.1,115.3c-5.1,0-9.6,0-14.5,0c0-4.9,0-9.5,0-14.5c4.7,0,9.4,0,14.5,0C633.1,105.6,633.1,110.3,633.1,115.3z
	"/>
<path class="st0" d="M628.5,126.7c-5.1,0-9.6,0-14.5,0c0-4.9,0-9.5,0-14.5c4.7,0,9.4,0,14.5,0C628.5,117,628.5,121.7,628.5,126.7z"
	/>
<path class="st0" d="M646.6,128.8c-5.1,0-9.6,0-14.5,0c0-4.9,0-9.5,0-14.5c4.7,0,9.4,0,14.5,0C646.6,119.1,646.6,123.8,646.6,128.8z
	"/>
<path class="st0" d="M647.3,146.4c-5.1,0-9.6,0-14.5,0c0-4.9,0-9.5,0-14.5c4.7,0,9.4,0,14.5,0C647.3,136.7,647.3,141.3,647.3,146.4z
	"/>
<path class="st0" d="M592.9,128.8c-5.1,0-9.6,0-14.5,0c0-4.9,0-9.5,0-14.5c4.7,0,9.4,0,14.5,0C592.9,119.1,592.9,123.8,592.9,128.8z
	"/>
<path class="st0" d="M579.5,144.5c-5.1,0-9.6,0-14.5,0c0-4.9,0-9.5,0-14.5c4.7,0,9.4,0,14.5,0C579.5,134.8,579.5,139.5,579.5,144.5z
	"/>
<path class="st0" d="M562.9,144.9c-5.1,0-9.6,0-14.5,0c0-4.9,0-9.5,0-14.5c4.7,0,9.4,0,14.5,0C562.9,135.2,562.9,139.9,562.9,144.9z
	"/>
<path class="st0" d="M568.6,129.1c-5.1,0-9.6,0-14.5,0c0-4.9,0-9.5,0-14.5c4.7,0,9.4,0,14.5,0C568.6,119.3,568.6,124,568.6,129.1z"
	/>
<path class="st0" d="M553.6,125.2c-5.1,0-9.6,0-14.5,0c0-4.9,0-9.5,0-14.5c4.7,0,9.4,0,14.5,0C553.6,115.5,553.6,120.2,553.6,125.2z
	"/>
<path class="st0" d="M554.9,112.7c-5.1,0-9.6,0-14.5,0c0-4.9,0-9.5,0-14.5c4.7,0,9.4,0,14.5,0C554.9,103,554.9,107.7,554.9,112.7z"
	/>
<path class="st0" d="M589.5,109.9c-5.1,0-9.6,0-14.5,0c0-4.9,0-9.5,0-14.5c4.7,0,9.4,0,14.5,0C589.5,100.2,589.5,104.9,589.5,109.9z
	"/>
<path class="st0" d="M577.4,106.4c-5.1,0-9.6,0-14.5,0c0-4.9,0-9.5,0-14.5c4.7,0,9.4,0,14.5,0C577.4,96.7,577.4,101.4,577.4,106.4z"
	/>
<path class="st0" d="M538,108.9c-5.1,0-9.6,0-14.5,0c0-4.9,0-9.5,0-14.5c4.7,0,9.4,0,14.5,0C538,99.1,538,103.8,538,108.9z"/>
<path class="st0" d="M522.2,104.6c-5.1,0-9.6,0-14.5,0c0-4.9,0-9.5,0-14.5c4.7,0,9.4,0,14.5,0C522.2,94.9,522.2,99.6,522.2,104.6z"
	/>
<path class="st0" d="M537.5,141.2c-5.1,0-9.6,0-14.5,0c0-4.9,0-9.5,0-14.5c4.7,0,9.4,0,14.5,0C537.5,131.4,537.5,136.1,537.5,141.2z
	"/>
<path class="st0" d="M530.8,128.4c-5.1,0-9.6,0-14.5,0c0-4.9,0-9.5,0-14.5c4.7,0,9.4,0,14.5,0C530.8,118.6,530.8,123.3,530.8,128.4z
	"/>
<path class="st0" d="M516.3,135.6c-5.1,0-9.6,0-14.5,0c0-4.9,0-9.5,0-14.5c4.7,0,9.4,0,14.5,0C516.3,125.9,516.3,130.6,516.3,135.6z
	"/>
<path class="st0" d="M500.9,149.6c-5.1,0-9.6,0-14.5,0c0-4.9,0-9.5,0-14.5c4.7,0,9.4,0,14.5,0C500.9,139.9,500.9,144.6,500.9,149.6z
	"/>
<path class="st0" d="M539.7,195c0,5,0,9.6,0,14.5c-4.9,0-9.6,0-14.6,0c0-4.8,0-9.5,0-14.5C529.9,195,534.5,195,539.7,195z"/>
<path class="st0" d="M554.2,198.1c0,5,0,9.6,0,14.5c-4.9,0-9.6,0-14.6,0c0-4.8,0-9.5,0-14.5C544.4,198.1,549,198.1,554.2,198.1z"/>
<path class="st0" d="M549,216.1c0,5,0,9.6,0,14.5c-4.9,0-9.6,0-14.6,0c0-4.8,0-9.5,0-14.5C539.2,216.1,543.8,216.1,549,216.1z"/>
<path class="st0" d="M537.6,215.2c0,5,0,9.6,0,14.5c-4.9,0-9.6,0-14.6,0c0-4.8,0-9.5,0-14.5C527.8,215.2,532.3,215.2,537.6,215.2z"
	/>
<path class="st0" d="M477,213.3c5.1,0,9.5,0,14.4,0c0,4.8,0,9.5,0,14.7c-4.7,0-9.4,0-14.4,0C477,223.2,477,218.5,477,213.3z"/>
<path class="st0" d="M470.5,208.8c5.1,0,9.5,0,14.4,0c0,4.8,0,9.5,0,14.7c-4.7,0-9.4,0-14.4,0C470.5,218.6,470.5,213.9,470.5,208.8z
	"/>
<path class="st0" d="M460,211.9c5.1,0,9.5,0,14.4,0c0,4.8,0,9.5,0,14.7c-4.7,0-9.4,0-14.4,0C460,221.8,460,217.1,460,211.9z"/>
<path class="st0" d="M497,196c5.1,0,9.5,0,14.4,0c0,4.8,0,9.5,0,14.7c-4.7,0-9.4,0-14.4,0C497,205.9,497,201.2,497,196z"/>
<path class="st0" d="M480.4,191.8c5.1,0,9.5,0,14.4,0c0,4.8,0,9.5,0,14.7c-4.7,0-9.4,0-14.4,0C480.4,201.7,480.4,197,480.4,191.8z"
	/>
<path class="st0" d="M466.9,186.7c5.1,0,9.5,0,14.4,0c0,4.8,0,9.5,0,14.7c-4.7,0-9.4,0-14.4,0C466.9,196.6,466.9,191.9,466.9,186.7z
	"/>
<path class="st0" d="M493.2,184.1c5.1,0,9.5,0,14.4,0c0,4.8,0,9.5,0,14.7c-4.7,0-9.4,0-14.4,0C493.2,194,493.2,189.3,493.2,184.1z"
	/>
<path class="st0" d="M494.5,170.8c5.1,0,9.5,0,14.4,0c0,4.8,0,9.5,0,14.7c-4.7,0-9.4,0-14.4,0C494.5,180.6,494.5,176,494.5,170.8z"
	/>
<path class="st0" d="M493.2,160.3c5.1,0,9.5,0,14.4,0c0,4.8,0,9.5,0,14.7c-4.7,0-9.4,0-14.4,0C493.2,170.2,493.2,165.5,493.2,160.3z
	"/>
<path class="st0" d="M504.9,146.4c5.1,0,9.5,0,14.4,0c0,4.8,0,9.5,0,14.7c-4.7,0-9.4,0-14.4,0C504.9,156.3,504.9,151.6,504.9,146.4z
	"/>
<path class="st0" d="M469.6,152.2c-5.1,0-9.6,0-14.5,0c0-4.9,0-9.5,0-14.5c4.7,0,9.4,0,14.5,0C469.6,142.4,469.6,147.1,469.6,152.2z
	"/>
<path class="st0" d="M481.4,140.5c-5.1,0-9.6,0-14.5,0c0-4.9,0-9.5,0-14.5c4.7,0,9.4,0,14.5,0C481.4,130.8,481.4,135.5,481.4,140.5z
	"/>
<path class="st0" d="M487.6,126.7c-5.1,0-9.6,0-14.5,0c0-4.9,0-9.5,0-14.5c4.7,0,9.4,0,14.5,0C487.6,117,487.6,121.7,487.6,126.7z"
	/>
<path class="st0" d="M484.2,118c-5.1,0-9.6,0-14.5,0c0-4.9,0-9.5,0-14.5c4.7,0,9.4,0,14.5,0C484.2,108.2,484.2,112.9,484.2,118z"/>
<path class="st0" d="M490,104.6c-5.1,0-9.6,0-14.5,0c0-4.9,0-9.5,0-14.5c4.7,0,9.4,0,14.5,0C490,94.9,490,99.6,490,104.6z"/>
<path class="st0" d="M482.7,99.2c-5.1,0-9.6,0-14.5,0c0-4.9,0-9.5,0-14.5c4.7,0,9.4,0,14.5,0C482.7,89.5,482.7,94.2,482.7,99.2z"/>
<path class="st0" d="M517.8,232.2c5.1,0,9.5,0,14.4,0c0,4.8,0,9.5,0,14.7c-4.7,0-9.4,0-14.4,0C517.8,242,517.8,237.3,517.8,232.2z"
	/>
<path class="st0" d="M505.8,249.2c5.1,0,9.5,0,14.4,0c0,4.8,0,9.5,0,14.7c-4.7,0-9.4,0-14.4,0C505.8,259.1,505.8,254.4,505.8,249.2z
	"/>
<path class="st0" d="M497,241.3c5.1,0,9.5,0,14.4,0c0,4.8,0,9.5,0,14.7c-4.7,0-9.4,0-14.4,0C497,251.2,497,246.5,497,241.3z"/>
<path class="st0" d="M480.7,233.2c5.1,0,9.5,0,14.4,0c0,4.8,0,9.5,0,14.7c-4.7,0-9.4,0-14.4,0C480.7,243.1,480.7,238.4,480.7,233.2z
	"/>
<path class="st0" d="M473.5,234.2c5.1,0,9.5,0,14.4,0c0,4.8,0,9.5,0,14.7c-4.7,0-9.4,0-14.4,0C473.5,244.1,473.5,239.4,473.5,234.2z
	"/>
<path class="st0" d="M481.6,262.5c0,4.9,0,9.4,0,14.5c-4.8,0-9.5,0-14.5,0c0-4.7,0-9.4,0-14.5C471.9,262.5,476.6,262.5,481.6,262.5z
	"/>
<path class="st0" d="M487.1,264.3c0,4.9,0,9.4,0,14.5c-4.8,0-9.5,0-14.5,0c0-4.7,0-9.4,0-14.5C477.4,264.3,482.1,264.3,487.1,264.3z
	"/>
<path class="st0" d="M501.7,260.8c0,4.9,0,9.4,0,14.5c-4.8,0-9.5,0-14.5,0c0-4.7,0-9.4,0-14.5C492,260.8,496.7,260.8,501.7,260.8z"
	/>
<path class="st0" d="M507.6,267.6c0,4.9,0,9.4,0,14.5c-4.8,0-9.5,0-14.5,0c0-4.7,0-9.4,0-14.5C498,267.6,502.7,267.6,507.6,267.6z"
	/>
<path class="st0" d="M507.6,282.9c0,4.9,0,9.4,0,14.5c-4.8,0-9.5,0-14.5,0c0-4.7,0-9.4,0-14.5C497.9,282.9,502.6,282.9,507.6,282.9z
	"/>
<path class="st0" d="M494.9,293.2c0,4.9,0,9.4,0,14.5c-4.8,0-9.5,0-14.5,0c0-4.7,0-9.4,0-14.5C485.2,293.2,489.9,293.2,494.9,293.2z
	"/>
<path class="st0" d="M485.9,300.5c0,4.9,0,9.4,0,14.5c-4.8,0-9.5,0-14.5,0c0-4.7,0-9.4,0-14.5C476.2,300.5,480.9,300.5,485.9,300.5z
	"/>
<path class="st0" d="M494.4,316c0,4.9,0,9.4,0,14.5c-4.8,0-9.5,0-14.5,0c0-4.7,0-9.4,0-14.5C484.7,316,489.4,316,494.4,316z"/>
<path class="st0" d="M505.3,317.4c0,4.9,0,9.4,0,14.5c-4.8,0-9.5,0-14.5,0c0-4.7,0-9.4,0-14.5C495.6,317.4,500.3,317.4,505.3,317.4z
	"/>
<path class="st0" d="M513.8,324.3c0,4.9,0,9.4,0,14.5c-4.8,0-9.5,0-14.5,0c0-4.7,0-9.4,0-14.5C504.2,324.3,508.9,324.3,513.8,324.3z
	"/>
<path class="st0" d="M409.9,331.9c-4.8,0-9.4,0-14.4,0c0-4.7,0-9.4,0-14.5c4.7,0,9.4,0,14.4,0C409.9,322.2,409.9,326.9,409.9,331.9z
	"/>
<path class="st0" d="M409.9,269.7c-4.8,0-9.4,0-14.4,0c0-4.7,0-9.4,0-14.5c4.7,0,9.4,0,14.4,0C409.9,260,409.9,264.7,409.9,269.7z"
	/>
<path class="st0" d="M414.8,274.8c-4.8,0-9.4,0-14.4,0c0-4.7,0-9.4,0-14.5c4.7,0,9.4,0,14.4,0C414.8,265.1,414.8,269.8,414.8,274.8z
	"/>
<path class="st0" d="M378.3,251c-4.8,0-9.4,0-14.4,0c0-4.7,0-9.4,0-14.5c4.7,0,9.4,0,14.4,0C378.3,241.3,378.3,246,378.3,251z"/>
<path class="st0" d="M373,249.9c-4.8,0-9.4,0-14.4,0c0-4.7,0-9.4,0-14.5c4.7,0,9.4,0,14.4,0C373,240.1,373,244.8,373,249.9z"/>
<path class="st0" d="M368.9,288.7c-4.8,0-9.4,0-14.4,0c0-4.7,0-9.4,0-14.5c4.7,0,9.4,0,14.4,0C368.9,279,368.9,283.7,368.9,288.7z"
	/>
<path class="st0" d="M356.1,290.7c-4.8,0-9.4,0-14.4,0c0-4.7,0-9.4,0-14.5c4.7,0,9.4,0,14.4,0C356.1,281,356.1,285.7,356.1,290.7z"
	/>
<path class="st0" d="M348.9,287.5c-4.8,0-9.4,0-14.4,0c0-4.7,0-9.4,0-14.5c4.7,0,9.4,0,14.4,0C348.9,277.8,348.9,282.5,348.9,287.5z
	"/>
<path class="st0" d="M337.3,294.7c-4.8,0-9.4,0-14.4,0c0-4.7,0-9.4,0-14.5c4.7,0,9.4,0,14.4,0C337.3,285,337.3,289.7,337.3,294.7z"
	/>
<path class="st0" d="M342.6,307.7c-4.8,0-9.4,0-14.4,0c0-4.7,0-9.4,0-14.5c4.7,0,9.4,0,14.4,0C342.6,298,342.6,302.7,342.6,307.7z"
	/>
<path class="st0" d="M365.8,311.2c-4.8,0-9.4,0-14.4,0c0-4.7,0-9.4,0-14.5c4.7,0,9.4,0,14.4,0C365.8,301.5,365.8,306.2,365.8,311.2z
	"/>
<path class="st0" d="M376.2,314.9c-4.8,0-9.4,0-14.4,0c0-4.7,0-9.4,0-14.5c4.7,0,9.4,0,14.4,0C376.2,305.2,376.2,309.9,376.2,314.9z
	"/>
<path class="st0" d="M339.9,337.1c0-5.1,0-9.6,0-14.6c4.9,0,9.6,0,14.6,0c0,4.9,0,9.6,0,14.6C349.6,337.1,345,337.1,339.9,337.1z"/>
<path class="st0" d="M334.3,328.8c0-5.1,0-9.6,0-14.6c4.9,0,9.6,0,14.6,0c0,4.9,0,9.6,0,14.6C344.1,328.8,339.5,328.8,334.3,328.8z"
	/>
<path class="st0" d="M319.5,330.6c0-5.1,0-9.6,0-14.6c4.9,0,9.6,0,14.6,0c0,4.9,0,9.6,0,14.6C329.3,330.6,324.7,330.6,319.5,330.6z"
	/>
<path class="st0" d="M304.8,341.3c0-5.1,0-9.6,0-14.6c4.9,0,9.6,0,14.6,0c0,4.9,0,9.6,0,14.6C314.5,341.3,309.9,341.3,304.8,341.3z"
	/>
<path class="st0" d="M291.8,335.2c0-5.1,0-9.6,0-14.6c4.9,0,9.6,0,14.6,0c0,4.9,0,9.6,0,14.6C301.6,335.2,297,335.2,291.8,335.2z"/>
<path class="st0" d="M277.1,339.2c0-5.1,0-9.6,0-14.6c4.9,0,9.6,0,14.6,0c0,4.9,0,9.6,0,14.6C286.9,339.2,282.3,339.2,277.1,339.2z"
	/>
<path class="st0" d="M282.2,318.9c0-5.1,0-9.6,0-14.6c4.9,0,9.6,0,14.6,0c0,4.9,0,9.6,0,14.6C292,318.9,287.4,318.9,282.2,318.9z"/>
<path class="st0" d="M274.9,309.2c-5,0-9.6,0-14.4,0c0-4.8,0-9.4,0-14.4c4.6,0,9.3,0,14.4,0C274.9,299.4,274.9,304,274.9,309.2z"/>
<path class="st0" d="M264.4,302c-5,0-9.6,0-14.4,0c0-4.8,0-9.4,0-14.4c4.6,0,9.3,0,14.4,0C264.4,292.1,264.4,296.8,264.4,302z"/>
<path class="st0" d="M261.7,289.8c-5,0-9.6,0-14.4,0c0-4.8,0-9.4,0-14.4c4.6,0,9.3,0,14.4,0C261.7,280,261.7,284.7,261.7,289.8z"/>
<path class="st0" d="M274,283.5c-5,0-9.6,0-14.4,0c0-4.8,0-9.4,0-14.4c4.6,0,9.3,0,14.4,0C274,273.7,274,278.3,274,283.5z"/>
<path class="st0" d="M276.1,289.8c-5,0-9.6,0-14.4,0c0-4.8,0-9.4,0-14.4c4.6,0,9.3,0,14.4,0C276.1,280,276.1,284.7,276.1,289.8z"/>
<path class="st0" d="M142.4,283c0-4.9,0-9.5,0-14.5c4.8,0,9.5,0,14.6,0c0,4.8,0,9.4,0,14.5C152.2,283,147.6,283,142.4,283z"/>
<path class="st0" d="M236.4,226.3c-5,0-9.5,0-14.5,0c0-4.9,0-9.6,0-14.6c4.8,0,9.5,0,14.5,0C236.4,216.5,236.4,221.1,236.4,226.3z"
	/>
<path class="st0" d="M238.8,234.8c-5,0-9.5,0-14.5,0c0-4.9,0-9.6,0-14.6c4.8,0,9.5,0,14.5,0C238.8,225,238.8,229.6,238.8,234.8z"/>
<path class="st0" d="M391.4,156.9c0,4.8,0,9.4,0,14.3c-4.9,0-9.6,0-14.6,0c0-4.7,0-9.3,0-14.3C381.5,156.9,386.2,156.9,391.4,156.9z
	"/>
<path class="st0" d="M394.4,145c0,4.8,0,9.4,0,14.3c-4.9,0-9.6,0-14.6,0c0-4.7,0-9.3,0-14.3C384.5,145,389.2,145,394.4,145z"/>
<path class="st0" d="M406.1,130.2c0,4.8,0,9.4,0,14.3c-4.9,0-9.6,0-14.6,0c0-4.7,0-9.3,0-14.3C396.1,130.2,400.8,130.2,406.1,130.2z
	"/>
<path class="st0" d="M387.6,130.5c0,4.8,0,9.4,0,14.3c-4.9,0-9.6,0-14.6,0c0-4.7,0-9.3,0-14.3C377.7,130.5,382.4,130.5,387.6,130.5z
	"/>
<path class="st0" d="M390.6,123.4c0,4.8,0,9.4,0,14.3c-4.9,0-9.6,0-14.6,0c0-4.7,0-9.3,0-14.3C380.7,123.4,385.4,123.4,390.6,123.4z
	"/>
<path class="st0" d="M377.3,117c0,4.8,0,9.4,0,14.3c-4.9,0-9.6,0-14.6,0c0-4.7,0-9.3,0-14.3C367.3,117,372,117,377.3,117z"/>
<path class="st0" d="M382.6,100.6c0,4.8,0,9.4,0,14.3c-4.9,0-9.6,0-14.6,0c0-4.7,0-9.3,0-14.3C372.7,100.6,377.4,100.6,382.6,100.6z
	"/>
<path class="st0" d="M368,103.1c0,4.8,0,9.4,0,14.3c-4.9,0-9.6,0-14.6,0c0-4.7,0-9.3,0-14.3C358.1,103.1,362.8,103.1,368,103.1z"/>
<path class="st0" d="M370,84.8c0,4.8,0,9.4,0,14.3c-4.9,0-9.6,0-14.6,0c0-4.7,0-9.3,0-14.3C360,84.8,364.7,84.8,370,84.8z"/>
<path class="st0" d="M355.5,96.3c0,4.8,0,9.4,0,14.3c-4.9,0-9.6,0-14.6,0c0-4.7,0-9.3,0-14.3C345.5,96.3,350.2,96.3,355.5,96.3z"/>
<path class="st0" d="M348.5,107.9c0,4.8,0,9.4,0,14.3c-4.9,0-9.6,0-14.6,0c0-4.7,0-9.3,0-14.3C338.5,107.9,343.2,107.9,348.5,107.9z
	"/>
<path class="st0" d="M366.7,150.4c0,4.8,0,9.4,0,14.3c-4.9,0-9.6,0-14.6,0c0-4.7,0-9.3,0-14.3C356.7,150.4,361.4,150.4,366.7,150.4z
	"/>
<path class="st0" d="M355.5,159.2c0,4.8,0,9.4,0,14.3c-4.9,0-9.6,0-14.6,0c0-4.7,0-9.3,0-14.3C345.5,159.2,350.2,159.2,355.5,159.2z
	"/>
<path class="st0" d="M352.8,146c0,4.8,0,9.4,0,14.3c-4.9,0-9.6,0-14.6,0c0-4.7,0-9.3,0-14.3C342.9,146,347.6,146,352.8,146z"/>
<path class="st0" d="M330.4,114c0,4.8,0,9.4,0,14.3c-4.9,0-9.6,0-14.6,0c0-4.7,0-9.3,0-14.3C320.4,114,325.1,114,330.4,114z"/>
<path class="st0" d="M318.6,112.1c0,4.8,0,9.4,0,14.3c-4.9,0-9.6,0-14.6,0c0-4.7,0-9.3,0-14.3C308.6,112.1,313.3,112.1,318.6,112.1z
	"/>
<path class="st0" d="M320.1,89.2c0,4.8,0,9.4,0,14.3c-4.9,0-9.6,0-14.6,0c0-4.7,0-9.3,0-14.3C310.1,89.2,314.8,89.2,320.1,89.2z"/>
<path class="st0" d="M304.6,84.2c0,4.8,0,9.4,0,14.3c-4.9,0-9.6,0-14.6,0c0-4.7,0-9.3,0-14.3C294.6,84.2,299.3,84.2,304.6,84.2z"/>
<path class="st0" d="M299.3,91c0,4.8,0,9.4,0,14.3c-4.9,0-9.6,0-14.6,0c0-4.7,0-9.3,0-14.3C289.4,91,294.1,91,299.3,91z"/>
<path class="st0" d="M276.5,94.2c0,4.8,0,9.4,0,14.3c-4.9,0-9.6,0-14.6,0c0-4.7,0-9.3,0-14.3C266.5,94.2,271.2,94.2,276.5,94.2z"/>
<path class="st0" d="M249.3,137.7c0,4.9,0,9.5,0,14.5c-4.8,0-9.5,0-14.6,0c0-4.8,0-9.5,0-14.5C239.7,137.7,244.4,137.7,249.3,137.7z
	"/>
<path class="st0" d="M254.6,110.1c0,4.9,0,9.5,0,14.5c-4.8,0-9.5,0-14.6,0c0-4.8,0-9.5,0-14.5C244.9,110.1,249.6,110.1,254.6,110.1z
	"/>
<path class="st0" d="M246.1,106c0,4.9,0,9.5,0,14.5c-4.8,0-9.5,0-14.6,0c0-4.8,0-9.5,0-14.5C236.5,106,241.2,106,246.1,106z"/>
<path class="st0" d="M231.5,108.8c0,4.9,0,9.5,0,14.5c-4.8,0-9.5,0-14.6,0c0-4.8,0-9.5,0-14.5C221.9,108.8,226.6,108.8,231.5,108.8z
	"/>
<path class="st0" d="M212.8,116.9c0,4.9,0,9.5,0,14.5c-4.8,0-9.5,0-14.6,0c0-4.8,0-9.5,0-14.5C203.2,116.9,207.9,116.9,212.8,116.9z
	"/>
<path class="st0" d="M222.3,106.8c0,4.9,0,9.5,0,14.5c-4.8,0-9.5,0-14.6,0c0-4.8,0-9.5,0-14.5C212.7,106.8,217.4,106.8,222.3,106.8z
	"/>
<path class="st0" d="M216.1,91.2c0,4.9,0,9.5,0,14.5c-4.8,0-9.5,0-14.6,0c0-4.8,0-9.5,0-14.5C206.4,91.2,211.1,91.2,216.1,91.2z"/>
<path class="st0" d="M198.8,132.3c0,4.9,0,9.5,0,14.5c-4.8,0-9.5,0-14.6,0c0-4.8,0-9.5,0-14.5C189.2,132.3,193.9,132.3,198.8,132.3z
	"/>
<path class="st0" d="M156.7,150.2c5,0,9.5,0,14.3,0c0,4.8,0,9.5,0,14.6c-4.6,0-9.3,0-14.3,0C156.7,160.1,156.7,155.4,156.7,150.2z"
	/>
<path class="st0" d="M97,172.9c0,4.9,0,9.5,0,14.5c-4.9,0-9.6,0-14.6,0c0-4.8,0-9.5,0-14.5C87.2,172.9,91.8,172.9,97,172.9z"/>
<path class="st0" d="M126.1,53.8c0-4.9,0-9.5,0-14.5c4.9,0,9.7,0,14.7,0c0,4.8,0,9.4,0,14.5C136,53.8,131.3,53.8,126.1,53.8z"/>
<path class="st0" d="M112.6,43.9c0-4.9,0-9.5,0-14.5c4.9,0,9.7,0,14.7,0c0,4.8,0,9.4,0,14.5C122.5,43.9,117.8,43.9,112.6,43.9z"/>
<path class="st0" d="M780.4,409.1h68.3c3.1,0,5.6-2.5,5.6-5.6v-20.8c0-3.1-2.5-5.6-5.6-5.6h-68.3c-3.1,0-5.6,2.5-5.6,5.6v20.8
	C774.8,406.6,777.4,409.1,780.4,409.1z"/>
<path class="st0" d="M795.7,427.8h80.7c2.9,0,5.2-2.3,5.2-5.2V409c0-2.9-2.3-5.2-5.2-5.2h-80.7c-2.9,0-5.2,2.3-5.2,5.2v13.6
	C790.5,425.5,792.8,427.8,795.7,427.8z"/>
<path class="st0" d="M780.7,448.8h79.9c3.1,0,5.6-2.5,5.6-5.6v-16.8c0-3.1-2.5-5.6-5.6-5.6h-79.9c-3.1,0-5.6,2.5-5.6,5.6v16.8
	C775.1,446.3,777.7,448.8,780.7,448.8z"/>
</svg>
