<?xml version="1.0" encoding="utf-8"?>
<!-- Generator: Adobe Illustrator 19.1.0, SVG Export Plug-In . SVG Version: 6.00 Build 0)  -->
<svg version="1.1" id="Слой_1" xmlns="http://www.w3.org/2000/svg" xmlns:xlink="http://www.w3.org/1999/xlink" x="0px" y="0px"
     viewBox="0 0 104 28" style="enable-background:new 0 0 104 28;" xml:space="preserve">
<style type="text/css">
    .st0{fill:#007fcd;}
    .st1{fill:#5EC5F1;}
    .st2{fill:#00A5EA;}
    .st3{fill:#e1e4e5;}
    .st4{fill:#191919;}
    .st5{fill:#007fcd;}
</style>
<g>
    <g>
        <g>
            <circle class="st0" cx="13.8" cy="13.8" r="13.8"/>
        </g>
        <path class="st1" d="M17.8,24.1c-5.7,0-10.4-4.6-10.4-10.4C7.4,8,12.1,3.4,17.8,3.4c3.5,0,6.5,1.7,8.4,4.3C26.1,7.4,26,7.2,25.8,7
            c-1.1-1.3-2.4-2.5-3.9-3.4C15.3-0.2,6.8,2,3,8.6C0.5,13,0.6,18.3,3,22.4c2.5,3.2,6.5,5.3,10.9,5.3c5.7,0,10.6-3.4,12.7-8.3
            C24.7,22.2,21.4,24.1,17.8,24.1z"/>
        <g>
            <path class="st2" d="M17.8,24.1c-5.7,0-10.4-4.6-10.4-10.4C7.4,8,12.1,3.4,17.8,3.4c0.6,0,1.3,0.1,1.9,0.2
                C13.9,2.1,7.6,4.6,4.5,10.1C1.9,14.6,2.1,20,4.6,24.1c2.4,2.2,5.7,3.5,9.2,3.5c5.7,0,10.6-3.4,12.7-8.3
                C24.7,22.2,21.4,24.1,17.8,24.1z"/>
        </g>
        <g>
            <path class="st0" d="M17.8,24.1c-5.7,0-10.4-4.6-10.4-10.4c0-4.4,2.8-8.2,6.7-9.7c-3.2,0.9-6.1,3.1-8,6.2
                c-3.1,5.4-2.1,12,2.1,16.2c1.7,0.7,3.6,1.2,5.6,1.2c5.7,0,10.6-3.4,12.7-8.3C24.7,22.2,21.4,24.1,17.8,24.1z"/>
        </g>
        <g>
            <path class="st1" d="M15.8,3.5c0.1,0,0.1,0,0.2,0C15.9,3.5,15.9,3.5,15.8,3.5z"/>
            <path class="st1" d="M17.8,24.1c-5.7,0-10.4-4.6-10.4-10.4c0-5,3.5-9.1,8.2-10.1C14.3,3.8,13,4.3,11.8,5C6,8.4,3.9,15.9,7.3,21.7
                c1.8,3.1,4.7,5.1,7.9,5.8c5-0.5,9.3-3.8,11.2-8.2C24.7,22.2,21.4,24.1,17.8,24.1z"/>
        </g>
        <path class="st2" d="M17.8,24.1c-4,0-7.5-2.3-9.2-5.6c0.2,0.8,0.6,1.6,1,2.4c2.4,4.2,7.3,5.9,11.7,4.5c2.3-1.5,4.1-3.6,5.2-6.1
            C24.6,22.2,21.4,24.1,17.8,24.1z"/>
        <g>
            <circle class="st3" cx="17.8" cy="13.7" r="10.4"/>
        </g>
    </g>
    <g>
        <path class="st4" d="M32.8,12.5c0.3-0.5,0.6-1,1.1-1.3c0.5-0.3,1.1-0.4,2-0.4c0.9,0,1.8,0.3,2.5,0.8c0.7,0.5,1.1,1.2,1.1,2v4.6
            l0,0.9c0,0.5,0,0.8,0.1,1c0.1,0.2,0.3,0.3,0.7,0.3l0.4,0v0.3h-6.3v-0.3l0.3,0c0.4,0,0.6-0.1,0.7-0.2c0.1-0.2,0.1-0.5,0.1-1l0-0.9
            v-4.2l0-0.8c0-0.6-0.1-1-0.3-1.2c-0.2-0.2-0.5-0.4-0.8-0.4c-0.5,0-0.8,0.2-1,0.4c-0.2,0.3-0.4,0.6-0.5,0.9v5.2l0,0.9
            c0,0.5,0,0.9,0.1,1c0.1,0.2,0.3,0.2,0.7,0.2l0.3,0v0.3h-6.3v-0.3l0.5,0c0.4,0,0.6-0.1,0.7-0.3c0.1-0.1,0.1-0.5,0.1-1l0-0.9V8
            l0-0.8c0-0.4-0.1-0.6-0.2-0.8c-0.1-0.1-0.4-0.2-0.7-0.3l-0.8,0V5.8h5.6v4.8c0,0.4,0,0.8,0,1.1C32.9,12.1,32.9,12.3,32.8,12.5z"/>
        <path class="st4" d="M51.6,15.8c0,1.4-0.5,2.6-1.6,3.6c-1.1,1-2.4,1.4-3.9,1.4c-1.6,0-2.9-0.5-3.9-1.4c-1.1-1-1.6-2.2-1.6-3.6
            c0-1.4,0.5-2.6,1.6-3.6c1.1-1,2.4-1.4,3.9-1.4c1.5,0,2.8,0.5,3.9,1.4C51,13.2,51.6,14.4,51.6,15.8z M47.5,15.8c0-0.2,0-0.6,0-1.1
            c0-0.6,0-0.9,0-1c0-0.7-0.1-1.3-0.3-1.8c-0.2-0.5-0.6-0.7-1-0.7c-0.4,0-0.8,0.2-1,0.7c-0.2,0.5-0.3,1.1-0.3,1.8c0,0.3,0,0.6,0,0.9
            c0,0.4,0,0.8-0.1,1.2c0,0.2,0,0.6,0,1.2c0,0.6,0,0.9,0,1c0,0.7,0.1,1.3,0.3,1.8c0.2,0.5,0.6,0.7,1,0.7c0.4,0,0.8-0.2,1-0.7
            c0.2-0.5,0.3-1.1,0.3-1.8c0-0.3,0-0.6,0-1C47.5,16.7,47.5,16.2,47.5,15.8z"/>
        <path class="st4" d="M51.1,25.3V25l0.7,0c0.4,0,0.6-0.1,0.8-0.3c0.1-0.1,0.2-0.4,0.2-0.8l0-0.8v-9.9l0-0.8c0-0.4-0.1-0.6-0.2-0.8
            c-0.1-0.1-0.4-0.2-0.8-0.3l-0.7,0V11h5.5v1.2c0.1-0.3,0.4-0.6,0.7-0.9c0.3-0.3,1-0.5,1.9-0.5c1.3,0,2.4,0.5,3.2,1.4
            c0.8,0.9,1.2,2.1,1.2,3.7c0,1.5-0.4,2.7-1.2,3.6c-0.8,0.9-1.9,1.4-3.2,1.4c-0.9,0-1.6-0.1-1.9-0.4c-0.3-0.3-0.5-0.5-0.7-0.8l0,1.2
            v1.9l0,0.9c0,0.5,0.1,0.8,0.3,0.9c0.1,0.2,0.4,0.3,0.8,0.3l1,0.1v0.3H51.1z M56.8,19.2c0.1,0.3,0.2,0.6,0.5,0.8
            c0.2,0.2,0.5,0.3,0.8,0.3c0.4,0,0.7-0.2,0.9-0.6c0.2-0.4,0.3-0.9,0.4-1.3c0.1-0.5,0.1-0.9,0.1-1.3c0-0.4,0-0.8,0-1.2v-1.3
            c0-0.4-0.1-0.8-0.1-1.2c0-0.4-0.2-0.8-0.4-1.2c-0.2-0.4-0.5-0.6-1-0.6c-0.3,0-0.5,0.1-0.8,0.4c-0.2,0.2-0.4,0.5-0.5,0.9
            c0,0.3,0,0.7-0.1,1.3c0,0.5,0,1,0,1.6v2.2C56.7,18.3,56.7,18.8,56.8,19.2z"/>
        <path class="st4" d="M75.2,15.8c0,1.4-0.5,2.6-1.6,3.6c-1.1,1-2.4,1.4-3.9,1.4c-1.6,0-2.9-0.5-3.9-1.4c-1.1-1-1.6-2.2-1.6-3.6
            c0-1.4,0.5-2.6,1.6-3.6c1.1-1,2.4-1.4,3.9-1.4c1.5,0,2.8,0.5,3.9,1.4C74.6,13.2,75.2,14.4,75.2,15.8z M71.1,15.8
            c0-0.2,0-0.6,0-1.1c0-0.6,0-0.9,0-1c0-0.7-0.1-1.3-0.3-1.8c-0.2-0.5-0.6-0.7-1-0.7c-0.4,0-0.8,0.2-1,0.7c-0.2,0.5-0.3,1.1-0.3,1.8
            c0,0.3,0,0.6,0,0.9c0,0.4,0,0.8-0.1,1.2c0,0.2,0,0.6,0,1.2c0,0.6,0,0.9,0,1c0,0.7,0.1,1.3,0.3,1.8c0.2,0.5,0.6,0.7,1,0.7
            c0.4,0,0.8-0.2,1-0.7c0.2-0.5,0.3-1.1,0.3-1.8c0-0.3,0-0.6,0-1C71.1,16.7,71.1,16.2,71.1,15.8z"/>
        <path class="st5" d="M81.7,20.6h-6.6v-0.3l0.5,0c0.4,0,0.6-0.1,0.7-0.3c0.1-0.1,0.1-0.5,0.1-1l0-0.9V8l0-0.8
            c0-0.3-0.1-0.6-0.1-0.7c-0.1-0.2-0.3-0.3-0.7-0.3l-0.7,0V5.8h5.5v12.3l0,0.9c0,0.5,0,0.8,0.1,1c0.1,0.2,0.3,0.3,0.7,0.3l0.5,0
            V20.6z"/>
        <path class="st5" d="M92.6,15.8c0,1.4-0.5,2.6-1.6,3.6c-1.1,1-2.4,1.4-3.9,1.4c-1.6,0-2.9-0.5-3.9-1.4c-1.1-1-1.6-2.2-1.6-3.6
            c0-1.4,0.5-2.6,1.6-3.6c1.1-1,2.4-1.4,3.9-1.4c1.5,0,2.8,0.5,3.9,1.4C92.1,13.2,92.6,14.4,92.6,15.8z M88.6,15.8
            c0-0.2,0-0.6,0-1.1c0-0.6,0-0.9,0-1c0-0.7-0.1-1.3-0.3-1.8c-0.2-0.5-0.6-0.7-1-0.7c-0.4,0-0.8,0.2-1,0.7c-0.2,0.5-0.3,1.1-0.3,1.8
            c0,0.3,0,0.6,0,0.9c0,0.4,0,0.8-0.1,1.2c0,0.2,0,0.6,0,1.2c0,0.6,0,0.9,0,1c0,0.7,0.1,1.3,0.3,1.8c0.2,0.5,0.6,0.7,1,0.7
            c0.4,0,0.8-0.2,1-0.7c0.2-0.5,0.3-1.1,0.3-1.8c0-0.3,0-0.6,0-1C88.5,16.7,88.6,16.2,88.6,15.8z"/>
        <path class="st5" d="M100.6,11.9c0.1-0.3,0.4-0.6,0.7-0.8c0.3-0.2,0.7-0.3,1.1-0.3c0.5,0,0.9,0.1,1.1,0.4c0.3,0.2,0.4,0.6,0.4,1
            c0,0.3-0.1,0.6-0.3,0.8c-0.2,0.2-0.5,0.3-0.8,0.3c-0.3,0-0.6-0.1-0.8-0.3c-0.2-0.2-0.3-0.5-0.3-0.8c0-0.2,0.1-0.4,0.2-0.5
            c0.1-0.2,0.2-0.3,0.2-0.4c0-0.1-0.1-0.1-0.2-0.1c-0.2,0-0.4,0.1-0.6,0.2c-0.2,0.1-0.4,0.4-0.5,0.6c0.2,0.3,0.4,0.6,0.6,1
            c0.1,0.4,0.2,0.8,0.2,1.2c0,1-0.4,1.9-1.2,2.5c-0.8,0.6-1.7,0.9-2.8,0.9c-0.7,0-1.3-0.1-1.9-0.4c-0.3,0-0.6,0-0.8,0.1
            c-0.3,0.1-0.4,0.3-0.4,0.6c0,0.2,0.1,0.3,0.3,0.4c0.2,0.1,0.4,0.2,0.7,0.2h4.3c1.1,0,2,0.3,2.7,1c0.7,0.6,1,1.4,1,2.4
            c0,1.2-0.6,2.1-1.7,2.6c-1.1,0.6-2.4,0.8-3.9,0.8c-1.2,0-2.3-0.1-3.2-0.4c-0.9-0.3-1.4-0.8-1.4-1.6c0-0.4,0.1-0.6,0.4-0.8
            c0.3-0.2,0.6-0.4,1-0.4c-0.5-0.3-1-0.7-1.3-1c-0.3-0.4-0.5-0.9-0.5-1.4c0-0.7,0.2-1.2,0.7-1.7c0.4-0.5,1-0.8,1.6-0.9
            c-0.5-0.3-0.9-0.7-1.2-1.2c-0.3-0.5-0.4-1-0.4-1.6c0-1,0.4-1.9,1.2-2.5c0.8-0.6,1.7-1,2.8-1C98.8,10.8,99.8,11.2,100.6,11.9z
             M95,22.3c-0.4,0.1-0.7,0.2-0.8,0.3c-0.2,0.2-0.3,0.4-0.3,0.7c0,0.5,0.4,1,1.2,1.2c0.8,0.3,1.7,0.4,2.7,0.4c1.3,0,2.3-0.1,3.1-0.4
            c0.8-0.3,1.2-0.7,1.2-1.4c0-0.4-0.2-0.6-0.5-0.8c-0.4-0.1-0.9-0.2-1.5-0.2H95z M98.5,14.3l-0.1-1.5c0-0.5-0.1-0.9-0.2-1.2
            c-0.1-0.3-0.4-0.4-0.7-0.4c-0.3,0-0.5,0.2-0.7,0.5c-0.1,0.3-0.2,0.7-0.2,1.2l-0.1,1.5l0.1,1.5c0,0.5,0.1,0.9,0.2,1.2
            c0.1,0.3,0.4,0.5,0.7,0.5c0.3,0,0.5-0.1,0.7-0.4c0.1-0.3,0.2-0.7,0.2-1.2L98.5,14.3z"/>
    </g>
    <path class="st4" d="M26.2,13.5c-0.6-0.8-1.3-1.4-2.2-1.8c-0.9-0.4-1.7-0.8-2.6-1.1c-0.8-0.3-1.5-0.6-1.9-0.8
        C19,9.6,18.6,9.3,18.2,9c-0.4-0.3-0.5-0.8-0.5-1.3c0-0.5,0.2-0.9,0.7-1.2c0.5-0.3,1-0.4,1.5-0.5c1.8-0.1,3.8,1.1,4.2,1.4v0
        c0.2,0.1,0.3,0.2,0.4,0.4c0.1,0.2,0.2,0.4,0.2,0.6c0,0.1,0,0.2-0.1,0.2c-0.1,0-0.2-0.1-0.4-0.2c-0.2-0.1-0.3-0.2-0.5-0.2
        c-0.4,0-0.6,0.1-0.8,0.3c-0.2,0.2-0.3,0.5-0.3,0.8c0,0.4,0.1,0.6,0.3,0.8c0.2,0.2,0.5,0.3,0.8,0.3c0.4,0,0.8-0.1,1-0.4
        c0.2-0.3,0.4-0.7,0.4-1.1c0-0.4-0.1-0.8-0.3-1.1c-0.1-0.2-0.2-0.3-0.4-0.4c-0.2-0.1-0.3-0.2-0.5-0.3c-0.5-0.4-1.1-0.6-1.5-0.8
        c-0.5-0.2-0.9-0.4-1.3-0.5c-0.4-0.1-0.8-0.1-1.2-0.1c-1.4,0-2.6,0.5-3.7,1.4c-1.1,0.9-1.6,2-1.6,3.4c0,1.7,0.5,2.8,1.5,3.5
        c1,0.6,2,1.1,2.9,1.5c0.9,0.4,1.8,0.7,2.6,1c0.8,0.3,1.4,0.6,1.7,1c0.3,0.3,0.5,0.8,0.5,1.4c0,0.5-0.2,0.9-0.6,1.3
        c-0.4,0.4-1,0.5-1.6,0.5c-1.2,0-2.2-0.3-3-0.9c-0.9-0.6-1.6-1.3-2.1-2.2c-0.5-0.9-0.9-1.7-1.1-2.3c-0.2-0.7-0.3-1.1-0.4-1.4h-0.3
        v7.3H15c0.1-0.8,0.2-1.4,0.3-1.7c0.1-0.3,0.4-0.5,0.8-0.5c0.2,0,0.8,0.4,2,1.1c1.1,0.7,2.3,1.1,3.5,1.1c1.3,0,2.6-0.4,3.7-1.3
        c1.1-0.9,1.7-2,1.7-3.3C27,15.2,26.8,14.3,26.2,13.5z"/>
    <path class="st4" d="M101.8,24.6c-1.1,0.6-2.4,0.8-3.9,0.8c-1.2,0-2.3-0.2-3.2-0.5c-0.9-0.3-1.4-0.8-1.4-1.6c0-0.4,0.1-0.6,0.4-0.8
        c0.3-0.2,0.6-0.4,1-0.4l0.4,0.2c-0.4,0.1-0.7,0.2-0.8,0.3c-0.2,0.2-0.3,0.4-0.3,0.7c0,0.5,0.4,1,1.2,1.2c0.8,0.3,1.7,0.4,2.7,0.4
        c1.3,0,2.3-0.1,3.1-0.4"/>
</g>
</svg>
