<?xml version="1.0" encoding="utf-8"?>
<!-- Generator: Adobe Illustrator 22.1.0, SVG Export Plug-In . SVG Version: 6.00 Build 0)  -->
<svg version="1.1" id="Layer_1" xmlns="http://www.w3.org/2000/svg" xmlns:xlink="http://www.w3.org/1999/xlink" x="0px" y="0px"
	 viewBox="0 0 60 60" style="enable-background:new 0 0 60 60;" xml:space="preserve">
<path d="M21,16.7V52c0,0.5-0.1,0.9-0.4,1.3c-0.3,0.4-0.6,0.5-1.1,0.5c-0.3,0-0.7-0.1-1-0.2l-14-7c-0.4-0.2-0.8-0.5-1.1-1
	C3.1,45.1,3,44.6,3,44.2V9.8c0-0.4,0.1-0.7,0.3-1c0.2-0.3,0.5-0.4,0.9-0.4c0.3,0,0.7,0.2,1.3,0.5l15.4,7.7C21,16.6,21,16.6,21,16.7z
	 M22.9,19.7L39,45.8l-16.1-8V19.7z M57,20.3V52c0,0.5-0.1,0.9-0.4,1.2c-0.3,0.3-0.7,0.5-1.1,0.5s-1-0.1-1.4-0.4l-13.3-6.6L57,20.3z
	 M56.9,16.7c0,0.1-2.6,4.3-7.7,12.6S41,42.6,40.1,44L28.4,24.9L38.1,9c0.3-0.6,0.9-0.8,1.6-0.8c0.3,0,0.5,0.1,0.8,0.2l16.3,8.1
	C56.9,16.5,56.9,16.6,56.9,16.7z"/>
</svg>
