<?xml version="1.0" encoding="utf-8"?>
<!-- Generator: Adobe Illustrator 22.1.0, SVG Export Plug-In . SVG Version: 6.00 Build 0)  -->
<svg version="1.1" id="Layer_1" xmlns="http://www.w3.org/2000/svg" xmlns:xlink="http://www.w3.org/1999/xlink" x="0px" y="0px"
	 viewBox="0 0 50 50" style="enable-background:new 0 0 50 50;" xml:space="preserve">
<path d="M45.8,5.2L1.9,22.3c-1.4,0.6-1.3,2.6,0.1,3l11.2,3.3l4.2,13.2c0.4,1.4,2.2,1.8,3.2,0.8l5.8-5.9L37.7,45
	c1.4,1,3.4,0.3,3.7-1.4l7.5-35.8C49.2,6,47.5,4.5,45.8,5.2L45.8,5.2L45.8,5.2z M40.3,13.1l-20.4,18c-0.2,0.2-0.3,0.4-0.4,0.7l-0.8,7
	c0,0.2-0.3,0.3-0.4,0l-3.2-10.4c-0.1-0.5,0-1,0.5-1.3l24.1-14.9C40.2,12,40.8,12.7,40.3,13.1L40.3,13.1L40.3,13.1z"/>
</svg>
