<svg xmlns="http://www.w3.org/2000/svg" width="1200px" height="350x" viewBox="0 0 1024 299"><g fill="none"><polygon points="0 85.3 0 0 213.4 106.7 213.4 192.3" fill="#D1B48C"></polygon><path d="M298.9 106.7L298.9 115.7 326.6 115.7 326.6 192 336.2 192 336.2 115.7 364.2 115.7 364.2 106.7 298.9 106.7 298.9 106.7ZM392.5 106.7L392.5 192 452.1 192 452.1 182.9 402.4 182.9 402.4 153.1 445.5 153.1 445.5 144 402.4 144 402.4 115.4 450.6 115.4 450.6 106.4 392.5 106.4 392.5 106.7ZM552.6 192L532.8 163C545.1 159.1 552 149.5 552 135.6 552 117.5 539.7 107 518.3 107L485.8 107 485.8 192.3 495.5 192.3 495.5 165.1 518 165.1C519.8 165.1 521.9 165.1 523.4 164.8L541.2 192.3 552.6 192.3 552.6 192ZM495.7 156.1L495.7 115.7 518.3 115.7C533.7 115.7 542.7 122.6 542.7 135.6 542.7 149.2 534 156.1 518.3 156.1L495.7 156.1 495.7 156.1ZM588.2 106.7L588.2 192 597.5 192 597.5 120.8 628.5 182.9 634.2 182.9 665.2 120.8 665.2 192 674.3 192 674.3 106.7 662.5 106.7 631.5 168.7 600.2 106.7 588.2 106.7 588.2 106.7ZM714.6 106.7L714.6 192 724.2 192 724.2 106.7 714.6 106.7 714.6 106.7ZM764.2 106.7L764.2 192 773.9 192 773.9 122.6 825 192 835 192 835 106.7 825.4 106.7 825.4 176 774.2 106.7 764.2 106.7 764.2 106.7ZM938.5 192L949.1 192 910.8 106.7 900.6 106.7 862.4 192 872.6 192 882.2 170.3 928.6 170.3 938.5 192 938.5 192ZM886.5 161.2L905.7 117.2 925 161.2 886.5 161.2 886.5 161.2ZM976.8 106.7L976.8 192 1024 192 1024 182.9 986.7 182.9 986.7 106.7 976.8 106.7Z" fill="#FEFEFE"></path><polygon points="0 213.3 0 298.9 213.4 192.3 213.4 106.7" fill="#B59B77"></polygon><polygon points="213.4 106.7 213.4 192.3 128.2 149.5" fill="#9D8966"></polygon></g></svg>