<?xml version="1.0" encoding="utf-8"?>
<!-- Generator: Adobe Illustrator 20.1.0, SVG Export Plug-In . SVG Version: 6.00 Build 0)  -->
<svg version="1.1" id="Layer_1" xmlns="http://www.w3.org/2000/svg" xmlns:xlink="http://www.w3.org/1999/xlink" x="0px" y="0px"
	 viewBox="0 0 1711.1 242.4" style="enable-background:new 0 0 1711.1 242.4;" xml:space="preserve">
<path id="XMLID_92_" d="M1250.1,122.9V4.4h41.1c45.4,0,60.1,24.5,60.1,61.9c0,39.7-25.4,56.5-60.1,56.5L1250.1,122.9L1250.1,122.9z
	 M1374.7,199.9l-9.4-31.9c-8.1-23.9-24.9-41.6-59.3-44.2c37.7-1.3,74.2-16,74.2-59.2c0-45.8-36.2-62-84.7-62h-95v0.7
	c15.7,0,19.2,14,19.2,42.4v149.6c0,22.2-3.2,42.4-19.2,42.4v0.7h68.7v-0.7c-16.5,0-19.2-20.2-19.2-42.4v-70.7h40.8
	c29.3,0,34,23.2,42.4,47.2l10.4,30.3l0,0c7.7,21.8,28.4,36.4,51.5,36.4h19.2v-0.7C1393.8,237.8,1383.5,226.2,1374.7,199.9z"/>
<path id="XMLID_89_" d="M285.4,122.9V4.4h41.1c45.4,0,60.1,24.5,60.1,61.9c0,39.7-25.4,56.5-60.1,56.5L285.4,122.9L285.4,122.9z
	 M410,199.9l-9.4-31.9c-8.1-23.9-24.9-41.6-59.3-44.2c37.7-1.3,74.2-16,74.2-59.2c0-45.8-36.2-62-84.7-62h-95v0.7
	c16.3,0,19.2,14,19.2,42.4v149.6c0,22.2-3.6,42.4-19.2,42.4v0.7h68.7v-0.7c-16.4,0-19.2-20.2-19.2-42.4v-70.7h40.8
	c29.3,0,34,23.2,42.4,47.2l10.4,30.3l0,0c7.7,21.8,28.4,36.4,51.5,36.4h19.2v-0.7C429.1,237.8,418.8,226.2,410,199.9z"/>
<g id="XMLID_74_">
	<path id="XMLID_75_" d="M840.1,54.8c0,30.7,24.5,40.8,52.6,48.8c36.9,10.4,79.4,20.2,79.4,72.1c0,46.5-38.9,66.7-78.1,66.7
		c-26.1,0-44.1-12.5-56.9-12.5c-9.1,0-14.4,5.7-20.6,12.5l-3.6-74.1h0.7c0,46.2,47.4,72.9,80.4,72.9c36.6,0,52-24.3,52-57
		s-30.1-42.1-61.4-51.5c-33.7-10.1-69-21.6-69-67.7c0-39.7,32.7-65,71.3-65C913,0,930,11.8,940.2,11.8c10.8,0,15-6.7,19.3-11.8
		l1.3,68.4h-0.7c0-39.3-37.9-67.1-73.2-67.1C856.9,1.2,840.1,22.8,840.1,54.8z"/>
</g>
<path id="XMLID_73_" d="M202.2,2.7H27.7H11.1L0,64.5h0.7C22.3,26.8,30,4.4,67.7,4.4h32V198c0,22.2-4.6,39.7-20.9,39.7v0.7H151v-0.7
	c-15.4,0-20.9-17.5-20.9-39.7V4.4h31.5c37.7,0,45.9,22.3,67.5,60.1h0.7L218.7,2.7H202.2L202.2,2.7z"/>
<path id="XMLID_70_" d="M592.5,3.3c16.2,0,25.3,13,25.3,38.6v104.2c0,61.2-32.8,93.3-79.7,93.3c-52.8,0-65.1-37.2-65.1-95V45.7
	c0-22.2,3.5-42.4,19.2-42.4V2.6h-68.7v0.7c16.2,0,19.2,20.2,19.2,42.4v101.7c0,61.6,34.4,94.3,95.7,94.3c50.5,0,81.3-36.9,81.3-93.2
	V42.3c0-25.6,9.4-38.6,25.3-38.6V3l-52.3-0.4v0.7H592.5z"/>
<path id="XMLID_66_" d="M1013.2,153.1L1061,41.9l52,111.2H1013.2z M1167,200.7L1077,0.5L994.4,193c-9.8,22.2-19.9,44.8-33,44.8v0.7
	h46.3v-0.7c-9.7,0-16.2-12.5-16.2-22.6c0-8.4,2.7-16.2,5.7-23.2l15.4-37.2H1114l20,44.9c3.7,8.1,5.7,14.8,5.7,20.2
	c0,8.1-5.9,17.9-15.5,17.9v0.7h70.1v-0.7C1180.9,237.8,1177.1,222.6,1167,200.7"/>
<path id="XMLID_63_" d="M1506.6,236.7h-34.4V4.4h29.3c76.3,0,116.8,44.8,116.8,115.9C1618.4,194.8,1566.9,236.7,1506.6,236.7z
	 M1506.3,2.7h-83.6v0.7c16.3,0,19.2,20.2,19.2,42.4v149.6c0,22.2-3.1,42.4-19.2,42.4v0.7h89.9c70.7,0,130.4-38.7,130.4-120.6
	C1643,41.7,1587.5,2.7,1506.3,2.7"/>
<g id="XMLID_59_">
	<path id="XMLID_60_" d="M665.1,54.8c0,30.7,24.5,40.8,52.6,48.8c36.9,10.4,79.4,20.2,79.4,72.1c0,46.5-38.9,66.7-78.1,66.7
		c-26.1,0-44.1-12.5-56.9-12.5c-9.1,0-14.4,5.7-20.6,12.5l-3.6-74.1h0.7c0,46.2,47.4,72.9,80.4,72.9c36.6,0,52-24.3,52-57
		s-30.1-42.1-61.4-51.5c-33.7-10.1-69-21.6-69-67.7c0-39.7,32.7-65,71.3-65C738,0,755,11.8,765.2,11.8c10.8,0,15-6.7,19.3-11.8
		l1.3,68.4h-0.7c0-39.3-37.9-67.1-73.2-67.1C681.9,1.2,665.1,22.8,665.1,54.8z"/>
</g>
<path id="XMLID_62_" d="M1711.1,3.3V2.6h-60.8v0.7c16.8,0,19.2,20.2,19.2,42.4v149.6c0,22.2-3.2,42.4-19.2,42.4v0.7h60.8v-0.7
	c-16.5,0-19.2-20.2-19.2-42.4V45.8C1691.9,23.5,1693.4,3.3,1711.1,3.3"/>
</svg>
