<svg xmlns="http://www.w3.org/2000/svg" width="27" height="27" viewBox="0 0 27 27">
  <metadata><?xpacket begin="﻿" id="W5M0MpCehiHzreSzNTczkc9d"?>
<x:xmpmeta xmlns:x="adobe:ns:meta/" x:xmptk="Adobe XMP Core 5.6-c138 79.159824, 2016/09/14-01:09:01        ">
   <rdf:RDF xmlns:rdf="http://www.w3.org/1999/02/22-rdf-syntax-ns#">
      <rdf:Description rdf:about=""/>
   </rdf:RDF>
</x:xmpmeta>
                                                                                                    
                                                                                                    
                                                                                                    
                                                                                                    
                                                                                                    
                                                                                                    
                                                                                                    
                                                                                                    
                                                                                                    
                                                                                                    
                                                                                                    
                                                                                                    
                                                                                                    
                                                                                                    
                                                                                                    
                                                                                                    
                                                                                                    
                                                                                                    
                                                                                                    
                                                                                                    
                           
<?xpacket end="w"?></metadata>
<defs>
    <style>
      .cls-1 {
        fill: #fff;
        fill-rule: evenodd;
      }
    </style>
  </defs>
  <path id="Фигура_14" data-name="Фигура 14" class="cls-1" d="M1374.94,746.852v-0.031a0.055,0.055,0,0,0-.02.031h0.02ZM1373.5,735a13.5,13.5,0,1,0,13.5,13.5A13.5,13.5,0,0,0,1373.5,735Zm-3.57,20.151h-3.23v-9.7h3.23v9.7Zm-1.61-11.03h-0.02A1.837,1.837,0,1,1,1368.32,744.12Zm13.24,11.03h-3.22v-5.192c0-1.3-.47-2.195-1.64-2.195a1.756,1.756,0,0,0-1.65,1.181,2.09,2.09,0,0,0-.11.786v5.42h-3.23s0.05-8.795,0-9.7h3.23v1.376a3.2,3.2,0,0,1,2.91-1.6c2.12,0,3.71,1.387,3.71,4.367v5.566Z" transform="translate(-1360 -735)"/>
</svg>
