<svg xmlns="http://www.w3.org/2000/svg" width="32" height="26.219" viewBox="0 0 32 26.219">
  <metadata><?xpacket begin="﻿" id="W5M0MpCehiHzreSzNTczkc9d"?>
<x:xmpmeta xmlns:x="adobe:ns:meta/" x:xmptk="Adobe XMP Core 5.6-c138 79.159824, 2016/09/14-01:09:01        ">
   <rdf:RDF xmlns:rdf="http://www.w3.org/1999/02/22-rdf-syntax-ns#">
      <rdf:Description rdf:about=""/>
   </rdf:RDF>
</x:xmpmeta>
                                                                                                    
                                                                                                    
                                                                                                    
                                                                                                    
                                                                                                    
                                                                                                    
                                                                                                    
                                                                                                    
                                                                                                    
                                                                                                    
                                                                                                    
                                                                                                    
                                                                                                    
                                                                                                    
                                                                                                    
                                                                                                    
                                                                                                    
                                                                                                    
                                                                                                    
                                                                                                    
                           
<?xpacket end="w"?></metadata>
<defs>
    <style>
      .cls-1 {
        fill: #fff;
        fill-rule: evenodd;
      }
    </style>
  </defs>
  <path id="Фигура_12" data-name="Фигура 12" class="cls-1" d="M1506.71,748.105a4.015,4.015,0,0,0-3.98-4.035,3.915,3.915,0,0,0-2.4.817,16.575,16.575,0,0,0-8.22-2.731l1.67-3.971,4.86,1.15a3,3,0,1,0,.46-1.963l-5.68-1.346a1,1,0,0,0-1.15.587l-2.3,5.488a16.924,16.924,0,0,0-8.94,2.734,3.839,3.839,0,0,0-2.33-.765,4.037,4.037,0,0,0-1.97,7.528c-0.01.177-.02,0.359-0.02,0.543,0,5.562,6.25,10.087,13.93,10.087s13.94-4.525,13.94-10.087c0-.158-0.01-0.313-0.02-0.468A4,4,0,0,0,1506.71,748.105Zm-5.12-10.088a1.009,1.009,0,1,1-.99,1.009A1.006,1.006,0,0,1,1501.59,738.017Zm-17.91,13.115a1.99,1.99,0,1,1,1.99,2.017A2.005,2.005,0,0,1,1483.68,751.132Zm11.56,6.692a7.742,7.742,0,0,1-9.19,0,1,1,0,0,1-.22-1.408,0.989,0.989,0,0,1,1.39-.226,5.761,5.761,0,0,0,6.85,0,0.985,0.985,0,0,1,1.39.226A1.014,1.014,0,0,1,1495.24,757.824Zm0.38-4.675a2.018,2.018,0,1,1,1.99-2.017A2,2,0,0,1,1495.62,753.149Z" transform="translate(-1474.72 -736)"/>
</svg>
