<svg xmlns="http://www.w3.org/2000/svg" width="25.88" height="23.157" viewBox="0 0 25.88 23.157">
  <metadata><?xpacket begin="﻿" id="W5M0MpCehiHzreSzNTczkc9d"?>
<x:xmpmeta xmlns:x="adobe:ns:meta/" x:xmptk="Adobe XMP Core 5.6-c138 79.159824, 2016/09/14-01:09:01        ">
   <rdf:RDF xmlns:rdf="http://www.w3.org/1999/02/22-rdf-syntax-ns#">
      <rdf:Description rdf:about=""/>
   </rdf:RDF>
</x:xmpmeta>
                                                                                                    
                                                                                                    
                                                                                                    
                                                                                                    
                                                                                                    
                                                                                                    
                                                                                                    
                                                                                                    
                                                                                                    
                                                                                                    
                                                                                                    
                                                                                                    
                                                                                                    
                                                                                                    
                                                                                                    
                                                                                                    
                                                                                                    
                                                                                                    
                                                                                                    
                                                                                                    
                           
<?xpacket end="w"?></metadata>
<defs>
    <style>
      .cls-1 {
        fill: #fff;
        fill-rule: evenodd;
      }
    </style>
  </defs>
  <path id="Фигура_9" data-name="Фигура 9" class="cls-1" d="M1416.59,749.411l5.96,2.286,2.31,7.624a0.7,0.7,0,0,0,1.12.344l3.33-2.782a0.957,0.957,0,0,1,1.2-.035l6,4.471a0.7,0.7,0,0,0,1.1-.437l4.4-21.7a0.709,0.709,0,0,0-.94-0.82l-24.49,9.7a0.729,0.729,0,0,0,.01,1.35h0Zm7.9,1.07,11.66-7.373a0.208,0.208,0,0,1,.25.33l-9.63,9.183a2.092,2.092,0,0,0-.61,1.225l-0.33,2.494a0.3,0.3,0,0,1-.59.044l-1.26-4.548a1.219,1.219,0,0,1,.51-1.355h0Zm0,0" transform="translate(-1416.12 -738.312)"/>
</svg>
