<svg xmlns="http://www.w3.org/2000/svg" width="25.91" height="20.812" viewBox="0 0 25.91 20.812">
  <metadata><?xpacket begin="﻿" id="W5M0MpCehiHzreSzNTczkc9d"?>
<x:xmpmeta xmlns:x="adobe:ns:meta/" x:xmptk="Adobe XMP Core 5.6-c138 79.159824, 2016/09/14-01:09:01        ">
   <rdf:RDF xmlns:rdf="http://www.w3.org/1999/02/22-rdf-syntax-ns#">
      <rdf:Description rdf:about=""/>
   </rdf:RDF>
</x:xmpmeta>
                                                                                                    
                                                                                                    
                                                                                                    
                                                                                                    
                                                                                                    
                                                                                                    
                                                                                                    
                                                                                                    
                                                                                                    
                                                                                                    
                                                                                                    
                                                                                                    
                                                                                                    
                                                                                                    
                                                                                                    
                                                                                                    
                                                                                                    
                                                                                                    
                                                                                                    
                                                                                                    
                           
<?xpacket end="w"?></metadata>
<defs>
    <style>
      .cls-1 {
        fill: #fff;
        fill-rule: evenodd;
      }
    </style>
  </defs>
  <path id="Фигура_7" data-name="Фигура 7" class="cls-1" d="M1329.89,741.547a10.667,10.667,0,0,1-3.05.831,5.294,5.294,0,0,0,2.34-2.913,10.628,10.628,0,0,1-3.38,1.276,5.32,5.32,0,0,0-9.18,3.6,5.862,5.862,0,0,0,.13,1.2,15.116,15.116,0,0,1-10.95-5.5,5.176,5.176,0,0,0-.72,2.646,5.238,5.238,0,0,0,2.36,4.373,5.266,5.266,0,0,1-2.4-.656v0.064a5.284,5.284,0,0,0,4.26,5.164,5.549,5.549,0,0,1-1.4.179,5.294,5.294,0,0,1-1-.093,5.327,5.327,0,0,0,4.96,3.655,10.747,10.747,0,0,1-6.6,2.245,11.566,11.566,0,0,1-1.26-.07,15.117,15.117,0,0,0,8.14,2.362,14.928,14.928,0,0,0,15.11-14.961l-0.01-.681a10.655,10.655,0,0,0,2.65-2.724h0Zm0,0" transform="translate(-1304 -739.094)"/>
</svg>
