<?xml version="1.0" encoding="utf-8"?>
<!-- Svg Vector Icons : http://www.onlinewebfonts.com/icon -->
<!DOCTYPE svg PUBLIC "-//W3C//DTD SVG 1.1//EN" "http://www.w3.org/Graphics/SVG/1.1/DTD/svg11.dtd">
<svg version="1.1" xmlns="http://www.w3.org/2000/svg" xmlns:xlink="http://www.w3.org/1999/xlink" x="0px" y="0px" viewBox="0 0 1000 1000" enable-background="new 0 0 1000 1000" xml:space="preserve" fill="#fff">
<metadata> Svg Vector Icons : http://www.onlinewebfonts.com/icon </metadata>
<g><path d="M721.4,376c-12-151.4-166.8-271.6-355.3-271.6C169.7,104.4,10,234.8,10,395c0,106.3,68.6,201.5,180.7,253c-15.5,52.4-59.2,117.9-73.7,133c-6.2,6.5-8.7,15.6-6.8,24.3c1.9,8.7,8.1,15.9,16.5,19.1c6.6,2.5,14,3.8,22.6,3.8c61.2,0,212.2-77.6,253.3-144.2c32.7-2.7,64-9,93.3-18.4c-13.8-25.5-21.4-53.6-21.4-83.2C474.5,470.2,584.7,378.7,721.4,376z M237.3,375.2c-23.4,0-42.4-19-42.4-42.4c0-23.4,19-42.4,42.4-42.4c23.4,0,42.4,19,42.4,42.4C279.7,356.2,260.7,375.2,237.3,375.2z M451.7,332.8c0-23.4,19-42.4,42.4-42.4c23.4,0,42.4,19,42.4,42.4c0,23.4-19,42.4-42.4,42.4C470.7,375.2,451.7,356.2,451.7,332.8z"/><path d="M990,591.4c0-112.5-112.1-204-250-204c-137.9,0-250,91.5-250,204c0,105,97.7,192.4,224.4,202.9c28.8,46.7,134.9,101.2,177.8,101.2c6,0,11.2-0.9,15.8-2.6c5.9-2.3,10.2-7.3,11.6-13.4c1.4-6.1-0.4-12.5-4.7-17.1c-10.2-10.6-40.9-56.6-51.7-93.4C941.8,732.9,990,666.1,990,591.4z M652.1,588.4c-18.6,0-33.7-15.1-33.7-33.7s15.1-33.7,33.7-33.7c18.6,0,33.7,15.1,33.7,33.7S670.7,588.4,652.1,588.4z M843.2,588.4c-18.6,0-33.7-15.1-33.7-33.7s15.1-33.7,33.7-33.7s33.7,15.1,33.7,33.7S861.8,588.4,843.2,588.4z"/></g>
</svg>