<?xml version="1.0" encoding="utf-8"?>
<!-- Generator: Adobe Illustrator 22.1.0, SVG Export Plug-In . SVG Version: 6.00 Build 0)  -->
<svg version="1.1" id="Layer_1" xmlns="http://www.w3.org/2000/svg" xmlns:xlink="http://www.w3.org/1999/xlink" x="0px" y="0px"
	 viewBox="0 0 200 200" style="enable-background:new 0 0 200 200;" xml:space="preserve">
<style type="text/css">
	.st0{fill:#FFFFFF;}
	.st1{fill:url(#SVGID_1_);}
	.st2{fill:url(#SVGID_2_);}
	.st3{fill:url(#SVGID_3_);}
	.st4{fill:url(#SVGID_4_);}
	.st5{fill:url(#SVGID_5_);}
	.st6{fill:url(#SVGID_6_);}
	.st7{fill:url(#SVGID_7_);}
	.st8{fill:url(#SVGID_8_);}
	.st9{fill:url(#SVGID_9_);}
</style>
<path class="st0" d="M164.1,54L106,19.7c-3.8-2.2-9.5-2.2-13.3,0L34.6,54c-3.8,2.2-6.6,7.2-6.6,11.6v68.8c0,4.4,2.8,9.4,6.6,11.6
	l58.1,34.3c1.9,1.1,4.3,1.7,6.7,1.7c2.4,0,4.8-0.6,6.7-1.7l58.1-34.3c3.8-2.2,6.6-7.2,6.6-11.6V65.6C170.7,61.2,167.9,56.2,164.1,54
	z"/>
<g>
	<linearGradient id="SVGID_1_" gradientUnits="userSpaceOnUse" x1="58.7447" y1="134.2887" x2="136.5053" y2="134.2887">
		<stop  offset="0" style="stop-color:#7299FF"/>
		<stop  offset="1" style="stop-color:#C0E1FE"/>
	</linearGradient>
	<path class="st1" d="M97.9,144.7l-36-20.8c0-0.1,0-0.2,0-0.3c0-0.9-0.7-1.6-1.6-1.6c-0.9,0-1.6,0.7-1.6,1.6c0,0.9,0.7,1.6,1.6,1.6
		c0.2,0,0.3,0,0.4-0.1l37.1,21.4l36.3-21c0.2,0.1,0.4,0.1,0.7,0.1c0.9,0,1.6-0.7,1.6-1.6s-0.7-1.6-1.6-1.6s-1.6,0.7-1.6,1.6
		c0,0,0,0.1,0,0.1L97.9,144.7z"/>
	<linearGradient id="SVGID_2_" gradientUnits="userSpaceOnUse" x1="43.3504" y1="101.9492" x2="155.2855" y2="101.9492">
		<stop  offset="0" style="stop-color:#7299FF"/>
		<stop  offset="1" style="stop-color:#C0E1FE"/>
	</linearGradient>
	<path class="st2" d="M155.3,96.8c0-2-1.6-3.6-3.6-3.6s-3.6,1.6-3.6,3.6c0,1.7,1.1,3.1,2.7,3.5v32.1l-52.9,30.6L45,132.4V71.2
		L97.4,41v-1.9l-54,31.2v63l54.5,31.5l54.3-31.3l0.2-0.1v-33C154,100,155.3,98.5,155.3,96.8z"/>
	<linearGradient id="SVGID_3_" gradientUnits="userSpaceOnUse" x1="58.8554" y1="66.197" x2="102.8337" y2="66.197">
		<stop  offset="0" style="stop-color:#7299FF"/>
		<stop  offset="1" style="stop-color:#C0E1FE"/>
	</linearGradient>
	<path class="st3" d="M93.5,56.7c0,0.6,0.1,1.1,0.3,1.7L61,77.3c-0.2-0.1-0.4-0.1-0.6-0.1c-0.9,0-1.6,0.7-1.6,1.6
		c0,0.9,0.7,1.6,1.6,1.6c0.9,0,1.6-0.7,1.6-1.6c0-0.1,0-0.1,0-0.2l32.6-18.8c0.9,1,2.1,1.6,3.5,1.6c2.6,0,4.7-2.1,4.7-4.7
		c0-2.6-2.1-4.7-4.7-4.7C95.6,52,93.5,54.1,93.5,56.7z"/>
</g>
<g>
	<linearGradient id="SVGID_4_" gradientUnits="userSpaceOnUse" x1="75.625" y1="117.0312" x2="98.3259" y2="117.0312">
		<stop  offset="0" style="stop-color:#7299FF"/>
		<stop  offset="1" style="stop-color:#C0E1FE"/>
	</linearGradient>
	<path class="st4" d="M98,116.4c-0.3-0.3-0.8-0.5-1.2-0.5h-0.9v-2.3c0-0.9-0.7-1.7-1.7-1.7H79.8c-0.9,0-1.6,0.7-1.6,1.7v2.3h-0.9
		c-0.9,0-1.7,0.7-1.7,1.7v4.6h22.7l0-4.6C98.4,117.1,98.2,116.7,98,116.4z M80,115.8v-2.1h14.1v2.1H80z M77.5,120.2v-2.6h19.1v2.6
		H77.5z"/>
	<linearGradient id="SVGID_5_" gradientUnits="userSpaceOnUse" x1="82.9654" y1="96.4719" x2="123.3744" y2="96.4719">
		<stop  offset="0" style="stop-color:#7299FF"/>
		<stop  offset="1" style="stop-color:#C0E1FE"/>
	</linearGradient>
	<path class="st5" d="M122.3,110.3c-0.6-0.6-1.4-1-2.3-1l-17.4-17.4l3.9-3.9c0.3,0.1,0.6,0.2,1,0.2c0.8,0,1.5-0.3,1.9-0.8
		c1-1,1.2-2.7,0.3-4c-1.8-2.5-4-4.7-6.5-6.5c-1.1-0.8-3-0.7-4,0.3c-0.8,0.8-1,1.9-0.6,3l-11.8,12c-1-0.4-2.2-0.1-3,0.6
		c-1,1-1.2,2.7-0.3,4c1.8,2.5,4,4.7,6.6,6.5c0.5,0.3,1.1,0.5,1.7,0.5c0.9,0,1.7-0.3,2.3-0.9c0.8-0.8,1-1.9,0.6-3l3.9-3.9l17.4,17.4
		c0.1,0.9,0.5,1.7,1,2.2c0.7,0.7,1.7,1.1,2.6,1.1c1,0,1.9-0.4,2.6-1.1c0.7-0.7,1.1-1.6,1.1-2.6C123.4,112,123,111,122.3,110.3z
		 M88.3,93.2l11.6-11.7l5.2,5.2L93.5,98.4L88.3,93.2z M100.4,78.9c0-0.1,0.1-0.3,0.2-0.5l0,0c0.4-0.3,0.7-0.4,1-0.4
		c0.3,0,0.6,0.1,0.7,0.2c2.3,1.7,4.4,3.8,6.2,6.2c0.3,0.4,0.2,1.2-0.2,1.7c0,0-0.6,0.5-1.3,0l-6.3-6.3
		C100.5,79.5,100.3,79.2,100.4,78.9z M93,100.9c0,0.2-0.1,0.5-0.3,0.7v0c-0.4,0.4-1.2,0.4-1.7,0.2c-2.3-1.7-4.4-3.8-6.2-6.2
		c-0.3-0.4-0.3-1.2,0.2-1.7c0.1-0.1,0.3-0.3,0.6-0.3c0.2,0,0.4,0.1,0.6,0.3l6.3,6.3C92.9,100.4,93,100.6,93,100.9z M121,114.3
		c-0.7,0.7-2,0.7-2.7,0c-0.4-0.4-0.5-0.8-0.5-1.4s0.2-1,0.5-1.4c0.3-0.4,0.8-0.5,1.4-0.5c0.6,0,1,0.2,1.4,0.5
		C121.8,112.4,121.8,113.5,121,114.3z M116,107.8l1.9,1.9c-0.3,0.2-0.6,0.4-0.8,0.6c-0.3,0.3-0.5,0.6-0.7,0.8l-1.8-1.8L116,107.8z
		 M114.7,106.6l-1.5,1.5l-0.8-0.8l1.5-1.5L114.7,106.6z M112.6,104.5l-1.5,1.5L99.8,94.7l1.5-1.5L112.6,104.5z"/>
	<linearGradient id="SVGID_6_" gradientUnits="userSpaceOnUse" x1="98.5723" y1="86.8191" x2="101.1543" y2="86.8191">
		<stop  offset="0" style="stop-color:#7299FF"/>
		<stop  offset="1" style="stop-color:#C0E1FE"/>
	</linearGradient>
	<polygon class="st6" points="99.9,85.5 98.6,86.8 99.9,88.1 101.2,86.8 	"/>
	<linearGradient id="SVGID_7_" gradientUnits="userSpaceOnUse" x1="92.0518" y1="93.342" x2="94.6338" y2="93.342">
		<stop  offset="0" style="stop-color:#7299FF"/>
		<stop  offset="1" style="stop-color:#C0E1FE"/>
	</linearGradient>
	<polygon class="st7" points="92.1,93.3 93.3,94.6 94.6,93.3 93.3,92.1 	"/>
	<linearGradient id="SVGID_8_" gradientUnits="userSpaceOnUse" x1="94.2217" y1="91.1111" x2="96.8037" y2="91.1111">
		<stop  offset="0" style="stop-color:#7299FF"/>
		<stop  offset="1" style="stop-color:#C0E1FE"/>
	</linearGradient>
	<polygon class="st8" points="94.2,91.1 95.5,92.4 96.8,91.1 95.5,89.8 	"/>
	<linearGradient id="SVGID_9_" gradientUnits="userSpaceOnUse" x1="96.3955" y1="88.9802" x2="98.9766" y2="88.9802">
		<stop  offset="0" style="stop-color:#7299FF"/>
		<stop  offset="1" style="stop-color:#C0E1FE"/>
	</linearGradient>
	<polygon class="st9" points="96.4,89 97.7,90.3 99,89 97.7,87.7 	"/>
</g>
</svg>
