<?xml version="1.0" encoding="utf-8"?>
<!-- Generator: Adobe Illustrator 22.1.0, SVG Export Plug-In . SVG Version: 6.00 Build 0)  -->
<svg version="1.1" id="Layer_1" xmlns="http://www.w3.org/2000/svg" xmlns:xlink="http://www.w3.org/1999/xlink" x="0px" y="0px"
	 viewBox="0 0 200 200" style="enable-background:new 0 0 200 200;" xml:space="preserve">
<style type="text/css">
	.st0{fill:#FFFFFF;}
	.st1{fill:url(#SVGID_1_);}
	.st2{fill:url(#SVGID_2_);}
	.st3{fill:url(#SVGID_3_);}
	.st4{fill:url(#SVGID_4_);}
</style>
<path class="st0" d="M164.1,54L106,19.7c-3.8-2.2-9.5-2.2-13.3,0L34.6,54c-3.8,2.2-6.6,7.2-6.6,11.6v68.8c0,4.4,2.8,9.4,6.6,11.6
	l58.1,34.3c1.9,1.1,4.3,1.7,6.7,1.7c2.4,0,4.8-0.6,6.7-1.7l58.1-34.3c3.8-2.2,6.6-7.2,6.6-11.6V65.6C170.7,61.2,167.9,56.2,164.1,54
	z"/>
<g>
	<linearGradient id="SVGID_1_" gradientUnits="userSpaceOnUse" x1="58.7447" y1="134.2887" x2="136.5053" y2="134.2887">
		<stop  offset="0" style="stop-color:#7299FF"/>
		<stop  offset="1" style="stop-color:#C0E1FE"/>
	</linearGradient>
	<path class="st1" d="M97.9,144.7l-36-20.8c0-0.1,0-0.2,0-0.3c0-0.9-0.7-1.6-1.6-1.6c-0.9,0-1.6,0.7-1.6,1.6c0,0.9,0.7,1.6,1.6,1.6
		c0.2,0,0.3,0,0.4-0.1l37.1,21.4l36.3-21c0.2,0.1,0.4,0.1,0.7,0.1c0.9,0,1.6-0.7,1.6-1.6s-0.7-1.6-1.6-1.6s-1.6,0.7-1.6,1.6
		c0,0,0,0.1,0,0.1L97.9,144.7z"/>
	<linearGradient id="SVGID_2_" gradientUnits="userSpaceOnUse" x1="43.3504" y1="101.9492" x2="155.2855" y2="101.9492">
		<stop  offset="0" style="stop-color:#7299FF"/>
		<stop  offset="1" style="stop-color:#C0E1FE"/>
	</linearGradient>
	<path class="st2" d="M155.3,96.8c0-2-1.6-3.6-3.6-3.6s-3.6,1.6-3.6,3.6c0,1.7,1.1,3.1,2.7,3.5v32.1l-52.9,30.6L45,132.4V71.2
		L97.4,41v-1.9l-54,31.2v63l54.5,31.5l54.3-31.3l0.2-0.1v-33C154,100,155.3,98.5,155.3,96.8z"/>
	<linearGradient id="SVGID_3_" gradientUnits="userSpaceOnUse" x1="58.8554" y1="66.197" x2="102.8337" y2="66.197">
		<stop  offset="0" style="stop-color:#7299FF"/>
		<stop  offset="1" style="stop-color:#C0E1FE"/>
	</linearGradient>
	<path class="st3" d="M93.5,56.7c0,0.6,0.1,1.1,0.3,1.7L61,77.3c-0.2-0.1-0.4-0.1-0.6-0.1c-0.9,0-1.6,0.7-1.6,1.6
		c0,0.9,0.7,1.6,1.6,1.6c0.9,0,1.6-0.7,1.6-1.6c0-0.1,0-0.1,0-0.2l32.6-18.8c0.9,1,2.1,1.6,3.5,1.6c2.6,0,4.7-2.1,4.7-4.7
		c0-2.6-2.1-4.7-4.7-4.7C95.6,52,93.5,54.1,93.5,56.7z"/>
</g>
<g>
	<linearGradient id="SVGID_4_" gradientUnits="userSpaceOnUse" x1="73.2868" y1="103.4162" x2="121.7222" y2="103.4162">
		<stop  offset="0" style="stop-color:#7299FF"/>
		<stop  offset="1" style="stop-color:#C0E1FE"/>
	</linearGradient>
	<path class="st4" d="M81.6,105.1c-1.6-2-4.5-2.4-6.5-0.8c-2,1.6-2.4,4.5-0.8,6.5s4.5,2.4,6.5,0.8c1.3-1,1.9-2.5,1.8-4.1l12.8-4.8
		c0.1,0.1,0.2,0.3,0.3,0.4c0.9,1.1,2.1,1.9,3.5,2.2l0.1,12.5c-2.5,0.7-3.9,3.2-3.2,5.7c0.7,2.5,3.2,3.9,5.7,3.2s3.9-3.2,3.2-5.7
		c-0.5-1.7-1.9-3-3.6-3.3l-0.1-12.4c1.4-0.2,2.7-0.9,3.7-2l7.8,6c-0.6,2.5,0.9,4.9,3.4,5.5c0.2,0,0.3,0.1,0.5,0.1c0.2,0,0.4,0,0.6,0
		c2.5,0,4.6-2.1,4.6-4.6c0-2.5-2.1-4.6-4.6-4.6c-1.4,0-2.6,0.6-3.5,1.6l-7.7-5.9c0.7-1.9,0.4-4.1-0.9-5.7l4.1-3.4
		c2,1.5,4.9,1.1,6.4-1c1.5-2,1.1-4.9-1-6.4c-2-1.5-4.9-1.1-6.4,1c-1,1.4-1.2,3.3-0.4,4.8l-4.3,3.5c-1.8-1.1-4.1-1.2-6-0.3l-6.3-6.8
		c1.5-2.1,1-4.9-1.1-6.4s-4.9-1-6.4,1.1c-1.5,2.1-1,4.9,1.1,6.4c0.6,0.4,1.3,0.7,2.1,0.8c0.2,0,0.4,0,0.6,0c0.8,0,1.5-0.2,2.2-0.5
		l6.2,6.7c-1.3,1.5-1.9,3.5-1.4,5.4l-12.7,4.8C81.7,105.3,81.7,105.2,81.6,105.1z M80.4,108.2c-0.2,1.4-1.4,2.4-2.8,2.2
		s-2.4-1.4-2.2-2.8c0.2-1.3,1.2-2.2,2.5-2.2c0.1,0,0.2,0,0.3,0C79.6,105.6,80.6,106.8,80.4,108.2L80.4,108.2z M115.6,108.3
		c1.1-0.9,2.7-0.7,3.5,0.4c0.9,1.1,0.7,2.7-0.4,3.5c-1.1,0.9-2.7,0.7-3.5-0.4C114.3,110.7,114.5,109.2,115.6,108.3
		C115.6,108.3,115.6,108.3,115.6,108.3L115.6,108.3z M102.5,120.6c0.9,1.1,0.7,2.7-0.4,3.5c-1.1,0.9-2.7,0.7-3.5-0.4
		c-0.9-1.1-0.7-2.7,0.4-3.5c0.4-0.3,1-0.5,1.6-0.5C101.3,119.7,102,120,102.5,120.6z M110.4,86.7c1.1-0.9,2.7-0.7,3.5,0.4
		c0.9,1.1,0.7,2.7-0.4,3.5c-1.1,0.9-2.7,0.7-3.5-0.4C109.1,89.1,109.3,87.6,110.4,86.7C110.4,86.7,110.4,86.7,110.4,86.7z
		 M100.8,95.5c2.1,0.3,3.6,2.2,3.4,4.4c-0.3,2.1-2.2,3.6-4.4,3.4c-2.1-0.3-3.6-2.2-3.4-4.4c0.2-2,1.9-3.4,3.9-3.4
		C100.5,95.4,100.6,95.5,100.8,95.5z M87.2,87.1c-1.4-0.2-2.4-1.4-2.2-2.8s1.4-2.4,2.8-2.2c1.4,0.2,2.4,1.4,2.2,2.8
		c-0.1,0.7-0.4,1.3-0.9,1.7C88.5,87,87.9,87.2,87.2,87.1z"/>
</g>
</svg>
