<?xml version="1.0" encoding="utf-8"?>
<!-- Generator: Adobe Illustrator 22.1.0, SVG Export Plug-In . SVG Version: 6.00 Build 0)  -->
<svg version="1.1" id="Layer_1" xmlns="http://www.w3.org/2000/svg" xmlns:xlink="http://www.w3.org/1999/xlink" x="0px" y="0px"
	 viewBox="0 0 200 200" style="enable-background:new 0 0 200 200;" xml:space="preserve">
<style type="text/css">
	.st0{fill:#FFFFFF;}
	.st1{fill:url(#SVGID_1_);}
	.st2{fill:url(#SVGID_2_);}
	.st3{fill:url(#SVGID_3_);}
	.st4{fill:url(#SVGID_4_);}
	.st5{fill:url(#SVGID_5_);}
</style>
<path class="st0" d="M164.1,54L106,19.7c-3.8-2.2-9.5-2.2-13.3,0L34.6,54c-3.8,2.2-6.6,7.2-6.6,11.6v68.8c0,4.4,2.8,9.4,6.6,11.6
	l58.1,34.3c1.9,1.1,4.3,1.7,6.7,1.7c2.4,0,4.8-0.6,6.7-1.7l58.1-34.3c3.8-2.2,6.6-7.2,6.6-11.6V65.6C170.7,61.2,167.9,56.2,164.1,54
	z"/>
<g>
	<linearGradient id="SVGID_1_" gradientUnits="userSpaceOnUse" x1="58.7447" y1="134.2887" x2="136.5053" y2="134.2887">
		<stop  offset="0" style="stop-color:#7299FF"/>
		<stop  offset="1" style="stop-color:#C0E1FE"/>
	</linearGradient>
	<path class="st1" d="M97.9,144.7l-36-20.8c0-0.1,0-0.2,0-0.3c0-0.9-0.7-1.6-1.6-1.6c-0.9,0-1.6,0.7-1.6,1.6c0,0.9,0.7,1.6,1.6,1.6
		c0.2,0,0.3,0,0.4-0.1l37.1,21.4l36.3-21c0.2,0.1,0.4,0.1,0.7,0.1c0.9,0,1.6-0.7,1.6-1.6s-0.7-1.6-1.6-1.6s-1.6,0.7-1.6,1.6
		c0,0,0,0.1,0,0.1L97.9,144.7z"/>
	<linearGradient id="SVGID_2_" gradientUnits="userSpaceOnUse" x1="43.3504" y1="101.9492" x2="155.2855" y2="101.9492">
		<stop  offset="0" style="stop-color:#7299FF"/>
		<stop  offset="1" style="stop-color:#C0E1FE"/>
	</linearGradient>
	<path class="st2" d="M155.3,96.8c0-2-1.6-3.6-3.6-3.6s-3.6,1.6-3.6,3.6c0,1.7,1.1,3.1,2.7,3.5v32.1l-52.9,30.6L45,132.4V71.2
		L97.4,41v-1.9l-54,31.2v63l54.5,31.5l54.3-31.3l0.2-0.1v-33C154,100,155.3,98.5,155.3,96.8z"/>
	<linearGradient id="SVGID_3_" gradientUnits="userSpaceOnUse" x1="58.8554" y1="66.197" x2="102.8337" y2="66.197">
		<stop  offset="0" style="stop-color:#7299FF"/>
		<stop  offset="1" style="stop-color:#C0E1FE"/>
	</linearGradient>
	<path class="st3" d="M93.5,56.7c0,0.6,0.1,1.1,0.3,1.7L61,77.3c-0.2-0.1-0.4-0.1-0.6-0.1c-0.9,0-1.6,0.7-1.6,1.6
		c0,0.9,0.7,1.6,1.6,1.6c0.9,0,1.6-0.7,1.6-1.6c0-0.1,0-0.1,0-0.2l32.6-18.8c0.9,1,2.1,1.6,3.5,1.6c2.6,0,4.7-2.1,4.7-4.7
		c0-2.6-2.1-4.7-4.7-4.7C95.6,52,93.5,54.1,93.5,56.7z"/>
</g>
<g>
	<linearGradient id="SVGID_4_" gradientUnits="userSpaceOnUse" x1="75.8652" y1="101.7818" x2="122" y2="101.7818">
		<stop  offset="0" style="stop-color:#7299FF"/>
		<stop  offset="1" style="stop-color:#C0E1FE"/>
	</linearGradient>
	<path class="st4" d="M98.9,78.7c-12.9,0-23.1,4.8-23.1,10.9V115c0,4.2,5,8,12.9,9.8c0.1,0,0.1,0,0.2,0c0,0,0,0,0,0c0,0,0,0,0,0
		c0,0,0,0,0,0c0.1,0,0.2,0,0.3-0.1c0,0,0.1,0,0.1-0.1c0.1,0,0.1-0.1,0.2-0.1c0,0,0.1-0.1,0.1-0.1c0-0.1,0.1-0.1,0.1-0.2
		c0,0,0-0.1,0.1-0.1c0,0,0-0.1,0-0.1c0,0,0-0.1,0-0.1c0,0,0-0.1,0-0.1v-17.2c2.9-0.6,6-0.9,9-0.9c3,0,6,0.3,8.9,0.9v17.2
		c0,0,0,0.1,0,0.1c0,0,0,0.1,0,0.1c0,0,0,0.1,0,0.1c0,0,0,0.1,0.1,0.1c0,0.1,0.1,0.1,0.1,0.2c0,0,0.1,0.1,0.1,0.1
		c0.1,0.1,0.1,0.1,0.2,0.1c0,0,0.1,0,0.1,0.1c0.1,0,0.2,0.1,0.3,0.1c0,0,0,0,0,0c0,0,0,0,0,0c0,0,0,0,0,0c0.1,0,0.1,0,0.2,0
		c8-1.8,12.9-5.5,12.9-9.8V89.6C122,83.5,111.9,78.7,98.9,78.7z M88.1,122.7c-6.3-1.6-10.3-4.6-10.3-7.6V94c2,2.2,5.6,4.1,10.3,5.2
		V122.7z M108.6,97.5C108.6,97.5,108.6,97.5,108.6,97.5c-0.1,0.1-0.2,0.1-0.3,0.1c-0.1,0-0.1,0.1-0.1,0.1c0,0-0.1,0.1-0.1,0.1
		c0,0-0.1,0.1-0.1,0.1c0,0.1,0,0.1-0.1,0.2c0,0.1,0,0.1,0,0.2c0,0,0,0.1,0,0.1v6.3c-2.9-0.6-5.8-0.9-8.7-0.9c-0.1,0-0.3,0-0.4,0
		c-2.9,0-5.9,0.3-8.8,0.9v-4.1l7.1-6.2c0.2-0.2,0.6-0.2,0.8,0l2.1,1.7L97.6,98c-0.4,0.3-0.5,0.9-0.2,1.3c0.2,0.2,0.5,0.4,0.8,0.4
		c0.2,0,0.4-0.1,0.6-0.2l3.1-2.4c0.1,0,0.1-0.1,0.2-0.2l4.1-3.2c0.2-0.2,0.6-0.2,0.8,0l3.8,3.2C110.1,97.2,109.4,97.3,108.6,97.5z
		 M120.1,115c0,3.1-4,6-10.3,7.6V99.2c4.7-1.2,8.2-3,10.3-5.2V115z M112.9,96.2l-4.8-4c-0.9-0.8-2.2-0.8-3.2,0l-3.5,2.8L99,93
		c-1-0.8-2.3-0.8-3.3,0l-5.8,5.1c0,0,0,0,0,0c0-0.1,0-0.1-0.1-0.2c0-0.1-0.1-0.1-0.1-0.1c0,0-0.1-0.1-0.1-0.1c0,0-0.1-0.1-0.1-0.1
		c-0.1,0-0.1-0.1-0.2-0.1c0,0,0,0-0.1,0c-7-1.6-11.4-4.7-11.4-7.9c0-4.9,9.7-9,21.2-9s21.2,4.1,21.2,9
		C120.1,92.1,117.4,94.6,112.9,96.2z"/>
	<linearGradient id="SVGID_5_" gradientUnits="userSpaceOnUse" x1="101.0236" y1="87.2969" x2="105.99" y2="87.2969">
		<stop  offset="0" style="stop-color:#7299FF"/>
		<stop  offset="1" style="stop-color:#C0E1FE"/>
	</linearGradient>
	<path class="st5" d="M103.5,84.8c-1.4,0-2.5,1.1-2.5,2.5c0,1.4,1.1,2.5,2.5,2.5s2.5-1.1,2.5-2.5C106,85.9,104.9,84.8,103.5,84.8z
		 M103.5,87.9c-0.3,0-0.6-0.3-0.6-0.6c0-0.3,0.3-0.6,0.6-0.6s0.6,0.3,0.6,0.6C104.1,87.6,103.8,87.9,103.5,87.9z"/>
</g>
</svg>
