<?xml version="1.0" encoding="utf-8"?>
<!-- Generator: Adobe Illustrator 22.1.0, SVG Export Plug-In . SVG Version: 6.00 Build 0)  -->
<svg version="1.1" id="Layer_1" xmlns="http://www.w3.org/2000/svg" xmlns:xlink="http://www.w3.org/1999/xlink" x="0px" y="0px"
	 viewBox="0 0 200 200" style="enable-background:new 0 0 200 200;" xml:space="preserve">
<style type="text/css">
	.st0{fill:#FFFFFF;}
	.st1{fill:url(#SVGID_1_);}
	.st2{fill:url(#SVGID_2_);}
	.st3{fill:url(#SVGID_3_);}
	.st4{fill:url(#SVGID_4_);}
	.st5{fill:url(#SVGID_5_);}
</style>
<path class="st0" d="M164.1,54L106,19.7c-3.8-2.2-9.5-2.2-13.3,0L34.6,54c-3.8,2.2-6.6,7.2-6.6,11.6v68.8c0,4.4,2.8,9.4,6.6,11.6
	l58.1,34.3c1.9,1.1,4.3,1.7,6.7,1.7c2.4,0,4.8-0.6,6.7-1.7l58.1-34.3c3.8-2.2,6.6-7.2,6.6-11.6V65.6C170.7,61.2,167.9,56.2,164.1,54
	z"/>
<g>
	<linearGradient id="SVGID_1_" gradientUnits="userSpaceOnUse" x1="58.7447" y1="134.2887" x2="136.5053" y2="134.2887">
		<stop  offset="0" style="stop-color:#7299FF"/>
		<stop  offset="1" style="stop-color:#C0E1FE"/>
	</linearGradient>
	<path class="st1" d="M97.9,144.7l-36-20.8c0-0.1,0-0.2,0-0.3c0-0.9-0.7-1.6-1.6-1.6c-0.9,0-1.6,0.7-1.6,1.6c0,0.9,0.7,1.6,1.6,1.6
		c0.2,0,0.3,0,0.4-0.1l37.1,21.4l36.3-21c0.2,0.1,0.4,0.1,0.7,0.1c0.9,0,1.6-0.7,1.6-1.6s-0.7-1.6-1.6-1.6s-1.6,0.7-1.6,1.6
		c0,0,0,0.1,0,0.1L97.9,144.7z"/>
	<linearGradient id="SVGID_2_" gradientUnits="userSpaceOnUse" x1="43.3504" y1="101.9492" x2="155.2855" y2="101.9492">
		<stop  offset="0" style="stop-color:#7299FF"/>
		<stop  offset="1" style="stop-color:#C0E1FE"/>
	</linearGradient>
	<path class="st2" d="M155.3,96.8c0-2-1.6-3.6-3.6-3.6s-3.6,1.6-3.6,3.6c0,1.7,1.1,3.1,2.7,3.5v32.1l-52.9,30.6L45,132.4V71.2
		L97.4,41v-1.9l-54,31.2v63l54.5,31.5l54.3-31.3l0.2-0.1v-33C154,100,155.3,98.5,155.3,96.8z"/>
	<linearGradient id="SVGID_3_" gradientUnits="userSpaceOnUse" x1="58.8554" y1="66.197" x2="102.8337" y2="66.197">
		<stop  offset="0" style="stop-color:#7299FF"/>
		<stop  offset="1" style="stop-color:#C0E1FE"/>
	</linearGradient>
	<path class="st3" d="M93.5,56.7c0,0.6,0.1,1.1,0.3,1.7L61,77.3c-0.2-0.1-0.4-0.1-0.6-0.1c-0.9,0-1.6,0.7-1.6,1.6
		c0,0.9,0.7,1.6,1.6,1.6c0.9,0,1.6-0.7,1.6-1.6c0-0.1,0-0.1,0-0.2l32.6-18.8c0.9,1,2.1,1.6,3.5,1.6c2.6,0,4.7-2.1,4.7-4.7
		c0-2.6-2.1-4.7-4.7-4.7C95.6,52,93.5,54.1,93.5,56.7z"/>
</g>
<g>
	<linearGradient id="SVGID_4_" gradientUnits="userSpaceOnUse" x1="73.3105" y1="100.5835" x2="120.4775" y2="100.5835">
		<stop  offset="0" style="stop-color:#7299FF"/>
		<stop  offset="1" style="stop-color:#C0E1FE"/>
	</linearGradient>
	<path class="st4" d="M120.5,98.9c0-5-3.9-9.3-9.8-12c-2.7-5.9-7.1-9.8-12-9.8c-4.6,0-8.6,3.2-11.3,8.3c-8.2,2.3-14,7.5-14,13.6
		c0,5.6,4.8,10.5,12.3,13c2.5,7.4,7.5,12.3,13,12.3c6,0,11.2-5.7,13.6-14C117.3,107.5,120.5,103.4,120.5,98.9z M98.6,79
		c3.7,0,7,2.6,9.3,6.7c-3.3-1.1-7-1.7-11-1.7c-2.4,0-4.7,0.2-6.9,0.6C92.3,81.2,95.3,79,98.6,79z M98.6,122.2
		c-4.4,0-8.3-3.7-10.7-9.6c1.1,0.3,2.2,0.5,3.3,0.7c0.5,0.1,1.1-0.3,1.1-0.8s-0.3-1.1-0.8-1.1c-1.6-0.2-3-0.6-4.4-1
		c-0.4-1.4-0.8-2.9-1-4.4c-0.1-0.5-0.6-0.9-1.1-0.8c-0.5,0.1-0.9,0.6-0.8,1.1c0.2,1.2,0.4,2.3,0.7,3.3c-5.9-2.3-9.6-6.3-9.6-10.7
		c0-4.8,4.4-8.9,10.8-11.1c-1.2,2.9-2,6.3-2.3,9.9L82,95.9c-0.4-0.4-1-0.3-1.4,0.1c-0.4,0.4-0.3,1,0.1,1.4l3.5,3.1
		c0.2,0.2,0.4,0.3,0.7,0.3s0.5-0.1,0.7-0.3l3.5-3.1c0.4-0.4,0.4-1,0.1-1.4c-0.4-0.4-1-0.4-1.4-0.1l-1.6,1.5
		c0.3-3.9,1.3-7.5,2.8-10.5c2.5-0.6,5.3-1,8.2-1c4.6,0,8.8,0.9,12.3,2.3c1.4,3.5,2.3,7.7,2.3,12.3c0,2.9-0.3,5.7-1,8.2
		c-3,1.4-6.5,2.4-10.5,2.8l1.5-1.6c0.4-0.4,0.3-1-0.1-1.4c-0.4-0.4-1-0.3-1.4,0.1l-3.1,3.5c-0.1,0.1-0.1,0.2-0.1,0.2c0,0,0,0,0,0
		c-0.1,0.3-0.1,0.8,0.2,1l3.1,3.5c0.2,0.2,0.5,0.3,0.7,0.3c0.2,0,0.5-0.1,0.7-0.3c0.4-0.4,0.4-1,0.1-1.4l-1.7-1.9
		c3.6-0.3,7-1.1,9.9-2.3C107.5,117.8,103.4,122.2,98.6,122.2z M112.8,107.4c0.4-2.2,0.6-4.5,0.6-6.9c0-4-0.6-7.7-1.7-11
		c4.1,2.3,6.7,5.6,6.7,9.3C118.5,102.1,116.3,105.1,112.8,107.4z"/>
	<linearGradient id="SVGID_5_" gradientUnits="userSpaceOnUse" x1="92" y1="99.8049" x2="104.9015" y2="99.8049">
		<stop  offset="0" style="stop-color:#7299FF"/>
		<stop  offset="1" style="stop-color:#C0E1FE"/>
	</linearGradient>
	<path class="st5" d="M104.7,100.7c0.5-0.8,0.2-1.9-0.6-2.4l-9.3-5.5c-0.3-0.2-0.6-0.2-0.9-0.3c-0.5,0-0.9,0.2-1.3,0.5
		c-0.3,0.3-0.5,0.8-0.5,1.3v11c0,0.3,0.1,0.6,0.3,0.9c0.3,0.6,0.9,0.9,1.5,0.9c0.3,0,0.6-0.1,0.9-0.2l9.3-5.5
		C104.3,101.2,104.5,100.9,104.7,100.7z M94,104.9V94.7l8.7,5.1L94,104.9z"/>
</g>
</svg>
