<?xml version="1.0" encoding="utf-8"?>
<!-- Generator: Adobe Illustrator 22.1.0, SVG Export Plug-In . SVG Version: 6.00 Build 0)  -->
<svg version="1.1" id="Layer_1" xmlns="http://www.w3.org/2000/svg" xmlns:xlink="http://www.w3.org/1999/xlink" x="0px" y="0px"
	 viewBox="0 0 200 200" style="enable-background:new 0 0 200 200;" xml:space="preserve">
<style type="text/css">
	.st0{fill:#FFFFFF;}
	.st1{fill:url(#SVGID_1_);}
	.st2{fill:url(#SVGID_2_);}
	.st3{fill:url(#SVGID_3_);}
	.st4{fill:url(#SVGID_4_);}
	.st5{fill:url(#SVGID_5_);}
	.st6{fill:url(#SVGID_6_);}
	.st7{fill:url(#SVGID_7_);}
</style>
<path class="st0" d="M164.1,54L106,19.7c-3.8-2.2-9.5-2.2-13.3,0L34.6,54c-3.8,2.2-6.6,7.2-6.6,11.6v68.8c0,4.4,2.8,9.4,6.6,11.6
	l58.1,34.3c1.9,1.1,4.3,1.7,6.7,1.7c2.4,0,4.8-0.6,6.7-1.7l58.1-34.3c3.8-2.2,6.6-7.2,6.6-11.6V65.6C170.7,61.2,167.9,56.2,164.1,54
	z"/>
<g>
	<linearGradient id="SVGID_1_" gradientUnits="userSpaceOnUse" x1="58.7447" y1="134.2887" x2="136.5053" y2="134.2887">
		<stop  offset="0" style="stop-color:#7299FF"/>
		<stop  offset="1" style="stop-color:#C0E1FE"/>
	</linearGradient>
	<path class="st1" d="M97.9,144.7l-36-20.8c0-0.1,0-0.2,0-0.3c0-0.9-0.7-1.6-1.6-1.6c-0.9,0-1.6,0.7-1.6,1.6c0,0.9,0.7,1.6,1.6,1.6
		c0.2,0,0.3,0,0.4-0.1l37.1,21.4l36.3-21c0.2,0.1,0.4,0.1,0.7,0.1c0.9,0,1.6-0.7,1.6-1.6s-0.7-1.6-1.6-1.6s-1.6,0.7-1.6,1.6
		c0,0,0,0.1,0,0.1L97.9,144.7z"/>
	<linearGradient id="SVGID_2_" gradientUnits="userSpaceOnUse" x1="43.3504" y1="101.9492" x2="155.2855" y2="101.9492">
		<stop  offset="0" style="stop-color:#7299FF"/>
		<stop  offset="1" style="stop-color:#C0E1FE"/>
	</linearGradient>
	<path class="st2" d="M155.3,96.8c0-2-1.6-3.6-3.6-3.6s-3.6,1.6-3.6,3.6c0,1.7,1.1,3.1,2.7,3.5v32.1l-52.9,30.6L45,132.4V71.2
		L97.4,41v-1.9l-54,31.2v63l54.5,31.5l54.3-31.3l0.2-0.1v-33C154,100,155.3,98.5,155.3,96.8z"/>
	<linearGradient id="SVGID_3_" gradientUnits="userSpaceOnUse" x1="58.8554" y1="66.197" x2="102.8337" y2="66.197">
		<stop  offset="0" style="stop-color:#7299FF"/>
		<stop  offset="1" style="stop-color:#C0E1FE"/>
	</linearGradient>
	<path class="st3" d="M93.5,56.7c0,0.6,0.1,1.1,0.3,1.7L61,77.3c-0.2-0.1-0.4-0.1-0.6-0.1c-0.9,0-1.6,0.7-1.6,1.6
		c0,0.9,0.7,1.6,1.6,1.6c0.9,0,1.6-0.7,1.6-1.6c0-0.1,0-0.1,0-0.2l32.6-18.8c0.9,1,2.1,1.6,3.5,1.6c2.6,0,4.7-2.1,4.7-4.7
		c0-2.6-2.1-4.7-4.7-4.7C95.6,52,93.5,54.1,93.5,56.7z"/>
</g>
<g>
	<linearGradient id="SVGID_4_" gradientUnits="userSpaceOnUse" x1="71" y1="112.5919" x2="126.6894" y2="112.5919">
		<stop  offset="0" style="stop-color:#7299FF"/>
		<stop  offset="1" style="stop-color:#C0E1FE"/>
	</linearGradient>
	<path class="st4" d="M126.7,112.6c0-0.5-0.4-0.9-0.9-0.9H71.9c-0.5,0-0.9,0.4-0.9,0.9c0,0.5,0.4,0.9,0.9,0.9h53.9
		C126.3,113.5,126.7,113.1,126.7,112.6z"/>
	<linearGradient id="SVGID_5_" gradientUnits="userSpaceOnUse" x1="79.0211" y1="93.7469" x2="112.056" y2="93.7469">
		<stop  offset="0" style="stop-color:#7299FF"/>
		<stop  offset="1" style="stop-color:#C0E1FE"/>
	</linearGradient>
	<path class="st5" d="M86,107.5c0.1,0.4,0.5,0.6,0.8,0.6c0.1,0,0.2,0,0.3-0.1c0.5-0.2,0.7-0.7,0.5-1.1l-6.7-18.7l19.1-6.9l10.3,25.2
		c0.2,0.5,0.7,0.7,1.2,0.5c0.2-0.1,0.4-0.3,0.5-0.5c0.1-0.2,0.1-0.5,0-0.7l-10.6-26l0,0c0,0-0.1-0.1-0.1-0.1l-0.1-0.1c0,0,0,0,0,0
		l-0.2-0.1c0,0-0.1,0-0.1-0.1c-0.1,0-0.1,0-0.2-0.1c-0.1,0-0.1,0-0.1,0c0,0-0.1,0-0.1,0l-0.1,0c-0.1,0-0.1,0-0.1,0l-20.6,7.4
		c-0.4,0.1-0.6,0.6-0.6,1l0,0.1l0,0.1c0,0.2,0,0.3,0,0.5L86,107.5z"/>
	<linearGradient id="SVGID_6_" gradientUnits="userSpaceOnUse" x1="90.1421" y1="96.4234" x2="100.9664" y2="96.4234">
		<stop  offset="0" style="stop-color:#7299FF"/>
		<stop  offset="1" style="stop-color:#C0E1FE"/>
	</linearGradient>
	<path class="st6" d="M91.7,101.8L91.7,101.8c0.1,0.1,0.3,0.2,0.5,0.2c0.3,0,0.6-0.1,0.7-0.4l2.8-3.9l3.8,2.9c0.4,0.3,1,0.2,1.3-0.2
		c0.3-0.4,0.2-1-0.2-1.3l-3.8-3l2.8-4c0.3-0.4,0.2-1-0.2-1.2c-0.4-0.3-1-0.2-1.2,0.2l-2.8,3.9l-3.8-2.9c-0.4-0.3-0.9-0.2-1.3,0.2
		c-0.3,0.4-0.2,1,0.2,1.3l3.8,3l-2.8,4C91.2,101,91.3,101.6,91.7,101.8z"/>
	<linearGradient id="SVGID_7_" gradientUnits="userSpaceOnUse" x1="102.3541" y1="117.723" x2="127.3555" y2="117.723">
		<stop  offset="0" style="stop-color:#7299FF"/>
		<stop  offset="1" style="stop-color:#C0E1FE"/>
	</linearGradient>
	<path class="st7" d="M126.5,116.8h-23.2c-0.5,0-0.9,0.4-0.9,0.9s0.4,0.9,0.9,0.9h23.2c0.5,0,0.9-0.4,0.9-0.9S127,116.8,126.5,116.8
		z"/>
</g>
</svg>
