<?xml version="1.0" encoding="utf-8"?>
<!-- Generator: Adobe Illustrator 22.1.0, SVG Export Plug-In . SVG Version: 6.00 Build 0)  -->
<svg version="1.1" id="Layer_1" xmlns="http://www.w3.org/2000/svg" xmlns:xlink="http://www.w3.org/1999/xlink" x="0px" y="0px"
	 viewBox="0 0 200 200" style="enable-background:new 0 0 200 200;" xml:space="preserve">
<style type="text/css">
	.st0{fill:#FFFFFF;}
	.st1{fill:url(#SVGID_1_);}
	.st2{fill:url(#SVGID_2_);}
	.st3{fill:url(#SVGID_3_);}
	.st4{fill:none;}
	.st5{fill:url(#SVGID_4_);}
	.st6{fill:url(#SVGID_5_);}
</style>
<path class="st0" d="M164.1,54L106,19.7c-3.8-2.2-9.5-2.2-13.3,0L34.6,54c-3.8,2.2-6.6,7.2-6.6,11.6v68.8c0,4.4,2.8,9.4,6.6,11.6
	l58.1,34.3c1.9,1.1,4.3,1.7,6.7,1.7c2.4,0,4.8-0.6,6.7-1.7l58.1-34.3c3.8-2.2,6.6-7.2,6.6-11.6V65.6C170.7,61.2,167.9,56.2,164.1,54
	z"/>
<g>
	<linearGradient id="SVGID_1_" gradientUnits="userSpaceOnUse" x1="58.7447" y1="134.2887" x2="136.5053" y2="134.2887">
		<stop  offset="0" style="stop-color:#7299FF"/>
		<stop  offset="1" style="stop-color:#C0E1FE"/>
	</linearGradient>
	<path class="st1" d="M97.9,144.7l-36-20.8c0-0.1,0-0.2,0-0.3c0-0.9-0.7-1.6-1.6-1.6c-0.9,0-1.6,0.7-1.6,1.6c0,0.9,0.7,1.6,1.6,1.6
		c0.2,0,0.3,0,0.4-0.1l37.1,21.4l36.3-21c0.2,0.1,0.4,0.1,0.7,0.1c0.9,0,1.6-0.7,1.6-1.6s-0.7-1.6-1.6-1.6s-1.6,0.7-1.6,1.6
		c0,0,0,0.1,0,0.1L97.9,144.7z"/>
	<linearGradient id="SVGID_2_" gradientUnits="userSpaceOnUse" x1="43.3504" y1="101.9492" x2="155.2855" y2="101.9492">
		<stop  offset="0" style="stop-color:#7299FF"/>
		<stop  offset="1" style="stop-color:#C0E1FE"/>
	</linearGradient>
	<path class="st2" d="M155.3,96.8c0-2-1.6-3.6-3.6-3.6s-3.6,1.6-3.6,3.6c0,1.7,1.1,3.1,2.7,3.5v32.1l-52.9,30.6L45,132.4V71.2
		L97.4,41v-1.9l-54,31.2v63l54.5,31.5l54.3-31.3l0.2-0.1v-33C154,100,155.3,98.5,155.3,96.8z"/>
	<linearGradient id="SVGID_3_" gradientUnits="userSpaceOnUse" x1="58.8554" y1="66.197" x2="102.8337" y2="66.197">
		<stop  offset="0" style="stop-color:#7299FF"/>
		<stop  offset="1" style="stop-color:#C0E1FE"/>
	</linearGradient>
	<path class="st3" d="M93.5,56.7c0,0.6,0.1,1.1,0.3,1.7L61,77.3c-0.2-0.1-0.4-0.1-0.6-0.1c-0.9,0-1.6,0.7-1.6,1.6
		c0,0.9,0.7,1.6,1.6,1.6c0.9,0,1.6-0.7,1.6-1.6c0-0.1,0-0.1,0-0.2l32.6-18.8c0.9,1,2.1,1.6,3.5,1.6c2.6,0,4.7-2.1,4.7-4.7
		c0-2.6-2.1-4.7-4.7-4.7C95.6,52,93.5,54.1,93.5,56.7z"/>
</g>
<polygon class="st4" points="190.8,80 183,87.8 193.7,90.6 201.5,82.9 "/>
<polygon class="st4" points="183.2,118 191,110.2 180.3,107.4 172.5,115.1 "/>
<polygon class="st4" points="203.1,84.5 195.4,92.3 198.2,103 206,95.2 "/>
<polygon class="st4" points="175.8,95 168,102.8 170.9,113.5 178.6,105.7 "/>
<g>
	<linearGradient id="SVGID_4_" gradientUnits="userSpaceOnUse" x1="92.7812" y1="91.9646" x2="121.2793" y2="91.9646">
		<stop  offset="0" style="stop-color:#7299FF"/>
		<stop  offset="1" style="stop-color:#C0E1FE"/>
	</linearGradient>
	<path class="st5" d="M117.5,81.5l-14.2-3.8L92.9,88l-0.1,0.1l3.8,14.2l5,1.3l-0.5-1.9L98,101l-3-11.4l11.4,3l3,11.4l-1.7-0.5
		l0.5,1.9l2.7,0.7l10.3-10.3l0.1-0.1L117.5,81.5z M115.1,82.7l-8.3,8.3l-11.4-3l8.3-8.3L115.1,82.7z M116.3,83.9l3,11.4l-8.3,8.3
		l-3-11.4L116.3,83.9z"/>
	<linearGradient id="SVGID_5_" gradientUnits="userSpaceOnUse" x1="78.7158" y1="106.0312" x2="107.2129" y2="106.0312">
		<stop  offset="0" style="stop-color:#7299FF"/>
		<stop  offset="1" style="stop-color:#C0E1FE"/>
	</linearGradient>
	<path class="st6" d="M98.3,94.2l0.5,1.9L102,97l3,11.4l-11.4-3l-3-11.4l1.7,0.4l-0.5-1.9l-2.6-0.7l-10.3,10.3l-0.1,0.1l3.8,14.2
		l14.1,3.8l0.1,0l10.3-10.3l0.1-0.1l-3.8-14.2L98.3,94.2z M83.7,114.1l-3-11.4l8.3-8.3l3,11.4L83.7,114.1z M84.9,115.3l8.3-8.3
		l11.4,3l-8.3,8.3L84.9,115.3z"/>
</g>
</svg>
