<?xml version="1.0" encoding="utf-8"?>
<!-- Generator: Adobe Illustrator 22.1.0, SVG Export Plug-In . SVG Version: 6.00 Build 0)  -->
<svg version="1.1" id="Layer_1" xmlns="http://www.w3.org/2000/svg" xmlns:xlink="http://www.w3.org/1999/xlink" x="0px" y="0px"
	 viewBox="0 0 200 200" style="enable-background:new 0 0 200 200;" xml:space="preserve">
<style type="text/css">
	.st0{fill:#FFFFFF;}
	.st1{fill:url(#SVGID_1_);}
	.st2{fill:url(#SVGID_2_);}
	.st3{fill:url(#SVGID_3_);}
	.st4{fill:none;}
	.st5{fill:url(#SVGID_4_);}
</style>
<path class="st0" d="M164.1,54L106,19.7c-3.8-2.2-9.5-2.2-13.3,0L34.6,54c-3.8,2.2-6.6,7.2-6.6,11.6v68.8c0,4.4,2.8,9.4,6.6,11.6
	l58.1,34.3c1.9,1.1,4.3,1.7,6.7,1.7c2.4,0,4.8-0.6,6.7-1.7l58.1-34.3c3.8-2.2,6.6-7.2,6.6-11.6V65.6C170.7,61.2,167.9,56.2,164.1,54
	z"/>
<g>
	<linearGradient id="SVGID_1_" gradientUnits="userSpaceOnUse" x1="58.7447" y1="134.2887" x2="136.5053" y2="134.2887">
		<stop  offset="0" style="stop-color:#7299FF"/>
		<stop  offset="1" style="stop-color:#C0E1FE"/>
	</linearGradient>
	<path class="st1" d="M97.9,144.7l-36-20.8c0-0.1,0-0.2,0-0.3c0-0.9-0.7-1.6-1.6-1.6c-0.9,0-1.6,0.7-1.6,1.6c0,0.9,0.7,1.6,1.6,1.6
		c0.2,0,0.3,0,0.4-0.1l37.1,21.4l36.3-21c0.2,0.1,0.4,0.1,0.7,0.1c0.9,0,1.6-0.7,1.6-1.6s-0.7-1.6-1.6-1.6s-1.6,0.7-1.6,1.6
		c0,0,0,0.1,0,0.1L97.9,144.7z"/>
	<linearGradient id="SVGID_2_" gradientUnits="userSpaceOnUse" x1="43.3504" y1="101.9492" x2="155.2855" y2="101.9492">
		<stop  offset="0" style="stop-color:#7299FF"/>
		<stop  offset="1" style="stop-color:#C0E1FE"/>
	</linearGradient>
	<path class="st2" d="M155.3,96.8c0-2-1.6-3.6-3.6-3.6s-3.6,1.6-3.6,3.6c0,1.7,1.1,3.1,2.7,3.5v32.1l-52.9,30.6L45,132.4V71.2
		L97.4,41v-1.9l-54,31.2v63l54.5,31.5l54.3-31.3l0.2-0.1v-33C154,100,155.3,98.5,155.3,96.8z"/>
	<linearGradient id="SVGID_3_" gradientUnits="userSpaceOnUse" x1="58.8554" y1="66.197" x2="102.8337" y2="66.197">
		<stop  offset="0" style="stop-color:#7299FF"/>
		<stop  offset="1" style="stop-color:#C0E1FE"/>
	</linearGradient>
	<path class="st3" d="M93.5,56.7c0,0.6,0.1,1.1,0.3,1.7L61,77.3c-0.2-0.1-0.4-0.1-0.6-0.1c-0.9,0-1.6,0.7-1.6,1.6
		c0,0.9,0.7,1.6,1.6,1.6c0.9,0,1.6-0.7,1.6-1.6c0-0.1,0-0.1,0-0.2l32.6-18.8c0.9,1,2.1,1.6,3.5,1.6c2.6,0,4.7-2.1,4.7-4.7
		c0-2.6-2.1-4.7-4.7-4.7C95.6,52,93.5,54.1,93.5,56.7z"/>
</g>
<polygon class="st4" points="190.8,80 183,87.8 193.7,90.6 201.5,82.9 "/>
<polygon class="st4" points="183.2,118 191,110.2 180.3,107.4 172.5,115.1 "/>
<polygon class="st4" points="203.1,84.5 195.4,92.3 198.2,103 206,95.2 "/>
<polygon class="st4" points="175.8,95 168,102.8 170.9,113.5 178.6,105.7 "/>
<linearGradient id="SVGID_4_" gradientUnits="userSpaceOnUse" x1="80.1923" y1="99.2682" x2="116.8926" y2="99.2682">
	<stop  offset="0" style="stop-color:#7299FF"/>
	<stop  offset="1" style="stop-color:#C0E1FE"/>
</linearGradient>
<path class="st5" d="M116.9,95.6v-5.9c0-0.2,0-0.4-0.1-0.6c0,0,0,0,0-0.1c0-0.2-0.1-0.4-0.1-0.5c0,0,0-0.1-0.1-0.2
	c0-0.1-0.1-0.1-0.1-0.1c0-0.1-0.1-0.1-0.1-0.2c0,0,0,0-0.1-0.1c-0.1-0.1-0.1-0.3-0.2-0.4c-0.1-0.1-0.2-0.2-0.2-0.3
	c-0.1-0.1-0.2-0.2-0.3-0.3c-0.2-0.2-0.4-0.3-0.5-0.4l-4.3-2.6c-0.5-0.3-1.1-0.4-1.7-0.2c-0.3,0.1-0.5,0.2-0.8,0.4l-2.5-1.5
	c0.1-0.9-0.3-1.8-1.1-2.2l-4.4-2.7c-1.1-0.7-2.5-0.7-3.7,0l-4.3,2.6c-0.5,0.3-0.9,0.8-1,1.4c-0.1,0.3-0.1,0.6,0,1L89,84.1
	c-0.3-0.2-0.5-0.4-0.9-0.4c-0.6-0.1-1.2-0.1-1.7,0.2L82,86.6c-0.2,0.1-0.4,0.2-0.5,0.4c-0.1,0.1-0.3,0.2-0.4,0.4
	c-0.1,0.1-0.2,0.2-0.2,0.3c-0.2,0.2-0.3,0.5-0.4,0.7c0,0,0,0,0,0.1c0,0,0,0.1,0,0.1c-0.1,0.2-0.1,0.3-0.2,0.6c0,0.2-0.1,0.4-0.1,0.6
	v5.9c0,1,0.6,1.8,1.5,2.1v4.6c-0.9,0.3-1.5,1.1-1.5,2.1v4.4c0,0.2,0,0.4,0.1,0.7c0,0.2,0.1,0.4,0.2,0.6c0.1,0.2,0.2,0.4,0.3,0.5
	c0.2,0.3,0.5,0.6,0.8,0.9c0.1,0.1,0.3,0.2,0.5,0.3l4.3,2.6c0.3,0.2,0.7,0.3,1.1,0.3c0.2,0,0.4,0,0.5-0.1c0.3-0.1,0.7-0.3,0.9-0.5
	l2.4,1.4c-0.1,0.3-0.1,0.7,0,1c0.1,0.6,0.5,1.1,1,1.4l4.4,2.7c0.6,0.3,1.2,0.5,1.8,0.5c0,0,0,0,0,0c0.6,0,1.3-0.2,1.8-0.5l4.3-2.6
	c0.9-0.5,1.3-1.6,1-2.5l2.3-1.4c0.3,0.3,0.6,0.5,1,0.6c0.2,0,0.4,0.1,0.5,0.1c0.4,0,0.8-0.1,1.1-0.3l4.5-2.7c0.6-0.4,1.2-1,1.5-1.7
	c0,0,0-0.1,0-0.1c0.1-0.2,0.1-0.4,0.2-0.6c0-0.2,0.1-0.4,0.1-0.6v-4.4c0-1-0.6-1.8-1.5-2.1v-4.6C116.3,97.4,116.9,96.6,116.9,95.6z
	 M109.5,85.2c0.2,0,0.4,0,0.5,0.1l4.3,2.6c0.1,0.1,0.2,0.1,0.3,0.2c0,0,0.1,0.1,0.2,0.2c0,0,0.1,0.1,0.1,0.1
	c0.1,0.1,0.1,0.2,0.1,0.2c0,0,0.1,0.1,0.1,0.2c0,0,0,0,0,0.1c0,0,0,0.1,0,0.1c0,0.1,0.1,0.2,0.1,0.3c0,0,0,0,0,0c0,0.1,0,0.2,0,0.4
	v5.9c0,0.4-0.3,0.7-0.7,0.7S114,96,114,95.6v-3.9c0-0.3-0.1-0.5-0.4-0.7c-0.1-0.1-0.2-0.1-0.4-0.1c-0.1,0-0.3,0-0.4,0.1l-3.2,1.9
	c-0.3,0.2-0.8,0.1-1-0.3c-0.1-0.2-0.1-0.4-0.1-0.5c0-0.2,0.2-0.3,0.3-0.4l3.5-2c0.2-0.1,0.4-0.4,0.4-0.6s-0.1-0.5-0.4-0.6l-3-1.8
	c-0.3-0.2-0.4-0.6-0.2-1C109.2,85.4,109.3,85.3,109.5,85.2z M112.5,104.4v4l-4.1,2.4c-0.8,0.5-1.1,1.3-1.1,2.1l-2.6,1.5
	c-0.7-0.5-1.6-0.5-2.4-0.1c0,0,0,0,0,0l-1.6,1v-2.9c0-1-0.6-1.8-1.5-2.1v-4.6c0.9-0.3,1.5-1.1,1.5-2.1v-3.9l3.5-2c0,0,0,0,0,0
	l0.7-0.4c0.5-0.3,0.9-0.8,1-1.4c0.1-0.4,0.1-0.8,0-1.1l1.7-1c0.7,0.7,1.8,0.9,2.7,0.4l2.1-1.2v2.6c0,1,0.6,1.8,1.5,2.1v4.6
	C113.1,102.6,112.5,103.4,112.5,104.4z M96.3,112.5v2.9l-1.8-1.1c-0.5-0.3-1.1-0.4-1.7-0.2c-0.3,0.1-0.6,0.2-0.8,0.4l-2.5-1.5
	c0-0.3,0-0.6,0-0.9c-0.1-0.6-0.5-1.1-1-1.4l-3.9-2.3v-4c0-1-0.6-1.8-1.5-2.1v-4.6c0.9-0.3,1.5-1.1,1.5-2.1V93l2,1.2
	c0.9,0.5,1.9,0.4,2.6-0.3l1.8,1.1c-0.2,0.9,0.2,1.9,1,2.4l4.2,2.5v3.9c0,1,0.6,1.8,1.5,2.1v4.6C96.9,110.7,96.3,111.5,96.3,112.5z
	 M89.7,85.4l2.5-1.5c0.7,0.6,1.7,0.7,2.5,0.2c0,0,0,0,0,0l3.8-2.3l4,2.4c0.3,0.2,0.7,0.3,1.1,0.3c0.2,0,0.4,0,0.5-0.1
	c0.4-0.1,0.7-0.3,0.9-0.5l2.4,1.4c-0.2,0.9,0.2,1.9,1,2.4l2,1.2l-2.4,1.4c-0.7,0.4-1.1,1.3-1.1,2.1l-2,1.2c-0.7-0.5-1.6-0.5-2.4-0.1
	L98.5,96l-4.2-2.5c-0.5-0.3-1.1-0.4-1.7-0.2c-0.3,0.1-0.6,0.2-0.8,0.4L90,92.5c0.1-0.8-0.3-1.7-1.1-2.2c0,0,0,0,0,0L88.3,90
	c0,0-0.1,0-0.1,0L86.6,89l2.1-1.3C89.5,87.2,89.9,86.3,89.7,85.4z M99.3,99.4v4.3c0,0.4-0.3,0.7-0.7,0.7s-0.7-0.3-0.7-0.7v-4.3
	c0-0.3-0.1-0.5-0.4-0.6L92.9,96c-0.3-0.2-0.5-0.6-0.3-1c0.1-0.2,0.2-0.3,0.4-0.3c0.1,0,0.1,0,0.2,0c0.1,0,0.2,0,0.4,0.1l4.6,2.7
	c0.2,0.1,0.5,0.1,0.8,0l4.5-2.6c0,0,0,0,0,0c0.3-0.2,0.8-0.1,1,0.3c0.1,0.2,0.1,0.4,0.1,0.5c0,0.2-0.2,0.3-0.3,0.4l-0.6,0.4
	c0,0,0,0,0,0l-3.9,2.3C99.4,98.9,99.3,99.1,99.3,99.4z M92.9,82.1c0-0.2,0.2-0.3,0.3-0.4l4.3-2.6c0.6-0.4,1.4-0.4,2.1,0l4.4,2.7
	c0.3,0.2,0.5,0.6,0.2,1c-0.1,0.2-0.3,0.3-0.4,0.3c-0.2,0-0.4,0-0.5-0.1l-4.4-2.6c-0.1-0.1-0.3-0.1-0.4-0.1s-0.3,0-0.4,0.1l-4.2,2.5
	c-0.3,0.2-0.8,0.1-1-0.2C92.9,82.4,92.8,82.2,92.9,82.1z M81.7,89.7c0-0.1,0-0.2,0-0.4c0-0.1,0.1-0.2,0.1-0.4c0,0,0,0,0,0
	c0,0,0,0,0,0c0,0,0,0,0,0c0.1-0.1,0.1-0.3,0.2-0.4c0-0.1,0.1-0.1,0.1-0.2c0.1-0.1,0.1-0.1,0.2-0.2c0.1-0.1,0.2-0.1,0.3-0.2l4.4-2.7
	c0.2-0.1,0.4-0.1,0.5-0.1c0.2,0,0.3,0.2,0.4,0.3c0.1,0.2,0.1,0.4,0.1,0.5c0,0.2-0.2,0.3-0.3,0.4l-3.2,1.9c-0.2,0.1-0.4,0.4-0.4,0.6
	c0,0.3,0.1,0.5,0.4,0.6l2.7,1.6c0,0,0,0,0,0l0.6,0.4c0.3,0.2,0.5,0.6,0.3,1c-0.2,0.3-0.6,0.5-1,0.3L84.3,91c-0.2-0.1-0.5-0.1-0.8,0
	c-0.2,0.1-0.4,0.4-0.4,0.7v3.9c0,0.4-0.3,0.7-0.7,0.7s-0.7-0.3-0.7-0.7V89.7z M87.6,113.3c-0.2,0-0.4,0-0.5-0.1l-4.3-2.6
	c-0.1-0.1-0.2-0.1-0.3-0.2c-0.2-0.1-0.3-0.3-0.4-0.5c-0.1-0.1-0.1-0.2-0.1-0.3c-0.1-0.1-0.1-0.3-0.1-0.4c0-0.1,0-0.2,0-0.4v-4.4
	c0-0.4,0.3-0.7,0.7-0.7s0.7,0.3,0.7,0.7v4.4c0,0.3,0.1,0.5,0.4,0.6l4.3,2.6c0.2,0.1,0.3,0.3,0.3,0.4c0,0.2,0,0.4-0.1,0.5
	C87.9,113.1,87.8,113.3,87.6,113.3z M103.9,116.9l-4.3,2.6c-0.3,0.2-0.7,0.3-1,0.3c-0.4,0-0.7-0.1-1.1-0.3l-4.4-2.7
	c-0.2-0.1-0.3-0.3-0.3-0.4c0-0.2,0-0.4,0.1-0.5c0.1-0.2,0.3-0.3,0.4-0.3c0.1,0,0.1,0,0.2,0c0.1,0,0.3,0,0.4,0.1l2.9,1.7
	c0.2,0.1,0.5,0.1,0.8,0c0.2-0.1,0.4-0.4,0.4-0.7v-4.2c0-0.4,0.3-0.7,0.7-0.7s0.7,0.3,0.7,0.7v4.2c0,0.3,0.1,0.5,0.4,0.7
	c0.2,0.1,0.5,0.1,0.8,0l2.8-1.7l-0.4-0.6l0.4,0.6c0.3-0.2,0.8-0.1,1,0.2C104.3,116.3,104.2,116.7,103.9,116.9z M115.4,108.8
	c0,0.1,0,0.2,0,0.4c0,0.1-0.1,0.2-0.1,0.3c0,0,0,0.1,0,0.1c-0.2,0.4-0.5,0.8-0.8,1l-4.5,2.7c-0.3,0.2-0.8,0.1-1-0.2
	c-0.2-0.3-0.1-0.8,0.2-1l4.4-2.7c0.2-0.1,0.4-0.4,0.4-0.6v-4.4c0-0.4,0.3-0.7,0.7-0.7s0.7,0.3,0.7,0.7V108.8z"/>
</svg>
