<?xml version="1.0" encoding="utf-8"?>
<!-- Generator: Adobe Illustrator 22.1.0, SVG Export Plug-In . SVG Version: 6.00 Build 0)  -->
<svg 
 xmlns="http://www.w3.org/2000/svg"
 xmlns:xlink="http://www.w3.org/1999/xlink"
 width="6.611in" height="5.625in">
<path fill-rule="evenodd"  stroke="rgb(239, 239, 239)" stroke-width="18px" stroke-linecap="butt" stroke-linejoin="miter" fill="none"
 d="M201.469,153.562 C223.336,153.562 241.062,171.296 241.062,193.172 C241.062,215.048 223.336,232.781 201.469,232.781 C179.602,232.781 161.875,215.048 161.875,193.172 C161.875,171.296 179.602,153.562 201.469,153.562 Z"/>
<path fill-rule="evenodd"  fill="rgb(181, 206, 253)"
 d="M256.000,274.000 L202.000,203.000 L202.431,196.318 L202.752,265.529 L289.198,259.741 L256.000,274.000 Z"/>
<path fill-rule="evenodd"  stroke="rgb(239, 239, 239)" stroke-width="18px" stroke-linecap="butt" stroke-linejoin="miter" fill="none"
 d="M200.953,127.156 C237.102,127.156 266.406,156.482 266.406,192.656 C266.406,228.831 237.102,258.156 200.953,258.156 C164.804,258.156 135.500,228.831 135.500,192.656 C135.500,156.482 164.804,127.156 200.953,127.156 Z"/>
<path fill-rule="evenodd"  fill="rgb(181, 206, 253)"
 d="M283.551,274.318 L208.000,202.000 L202.431,196.318 L202.752,265.529 L266.198,281.741 L283.551,274.318 Z"/>
<path fill-rule="evenodd"  stroke="rgb(239, 239, 239)" stroke-width="18px" stroke-linecap="butt" stroke-linejoin="miter" fill="none"
 d="M200.937,101.812 C251.075,101.812 291.719,142.478 291.719,192.641 C291.719,242.804 251.075,283.469 200.937,283.469 C150.800,283.469 110.156,242.804 110.156,192.641 C110.156,142.478 150.800,101.812 200.937,101.812 Z"/>
<path fill-rule="evenodd"  fill="rgb(114, 140, 225)"
 d="M165.000,61.000 L202.000,189.000 L202.431,196.318 L202.000,305.000 L467.000,125.000 L165.000,61.000 Z"/>
<path fill-rule="evenodd"  stroke="rgb(239, 239, 239)" stroke-width="18px" stroke-linecap="butt" stroke-linejoin="miter" fill="none"
 d="M201.469,76.437 C265.896,76.437 318.125,128.701 318.125,193.172 C318.125,257.642 265.896,309.906 201.469,309.906 C137.041,309.906 84.812,257.642 84.812,193.172 C84.812,128.701 137.041,76.437 201.469,76.437 Z"/>
<path fill-rule="evenodd"  fill="rgb(163, 185, 255)"
 d="M311.000,298.000 L233.000,227.000 L202.000,224.000 L202.000,310.000 L268.000,345.000 L356.000,279.000 L311.000,298.000 Z"/>
<path fill-rule="evenodd"  stroke="rgb(239, 239, 239)" stroke-width="18px" stroke-linecap="butt" stroke-linejoin="miter" fill="none"
 d="M198.375,46.000 C278.663,46.000 343.750,111.094 343.750,191.391 C343.750,271.688 278.663,336.781 198.375,336.781 C118.087,336.781 53.000,271.688 53.000,191.391 C53.000,111.094 118.087,46.000 198.375,46.000 Z"/>
<path fill-rule="evenodd"  fill="rgb(96, 123, 209)"
 d="M369.000,-0.000 L-0.000,44.000 L80.000,340.000 L127.000,293.000 L203.000,312.000 L202.000,396.000 L356.000,279.000 L369.000,-0.000 Z"/>
<path fill-rule="evenodd"  stroke="rgb(239, 239, 239)" stroke-width="18px" stroke-linecap="butt" stroke-linejoin="miter" fill="none"
 d="M198.500,20.000 C293.217,20.000 370.000,96.783 370.000,191.500 C370.000,286.217 293.217,363.000 198.500,363.000 C103.783,363.000 27.000,286.217 27.000,191.500 C27.000,96.783 103.783,20.000 198.500,20.000 Z"/>
<path fill-rule="evenodd"  fill="rgb(171, 197, 245)"
 d="M202.344,329.000 L202.344,384.000 L302.000,347.000 L358.000,302.000 L336.000,313.000 L276.000,254.000 L202.344,329.000 Z"/>
</svg>