<?xml version="1.0" encoding="utf-8"?>
<!-- Generator: Adobe Illustrator 22.1.0, SVG Export Plug-In . SVG Version: 6.00 Build 0)  -->
<svg version="1.1" id="Layer_1" xmlns="http://www.w3.org/2000/svg" xmlns:xlink="http://www.w3.org/1999/xlink" x="0px" y="0px"
	 viewBox="0 0 240 240" style="enable-background:new 0 0 240 240;" xml:space="preserve">
<style type="text/css">
	.st0{fill:#F0F0F1;}
	.st1{fill:#7299FF;}
	.st2{fill:#86ABFF;}
	.st3{fill:#99BDFF;}
	.st4{fill:#ADCFFE;}
	.st5{fill:#C0E1FE;}
</style>
<g>
	<path class="st0" d="M13.9,84.9l12.1,3.9c-3.1,9.6-4.8,19.9-4.8,30.5c0,0,0,0,0,0c0,10.6,1.7,20.9,4.8,30.5
		c3.2,10,8,19.2,14.1,27.5c6.1,8.4,13.5,15.7,21.8,21.8c8.3,6,17.6,10.8,27.5,14.1c9.6,3.1,19.9,4.8,30.5,4.8v12.8
		c-12,0-23.6-1.9-34.5-5.5c-11.2-3.7-21.7-9.1-31.1-15.9c-9.4-6.9-17.8-15.2-24.7-24.7c-6.8-9.4-12.2-19.8-15.9-31.1
		c-3.5-10.9-5.5-22.4-5.5-34.5c0,0,0,0,0,0C8.5,107.3,10.4,95.7,13.9,84.9z"/>
	<path class="st0" d="M30.1,90.1c3.1-9.5,7.7-18.4,13.5-26.3c5.8-8,12.9-15.1,20.9-20.9c7.9-5.8,16.8-10.4,26.3-13.5
		c9.2-3,19-4.6,29.2-4.6s20,1.6,29.2,4.6c9.5,3.1,18.4,7.7,26.3,13.5c8,5.8,15.1,12.9,20.9,20.9c5.8,7.9,10.4,16.8,13.5,26.3
		c3,9.2,4.6,19,4.6,29.2c0,10.2-1.6,20-4.6,29.2c-3.1,9.5-7.7,18.4-13.5,26.3c-5.8,8-12.9,15.1-20.9,20.9l-7.5-10.3
		c6.9-5,13-11.1,18.1-18.1c5-6.9,9-14.5,11.6-22.8c2.6-8,4-16.4,4-25.3c0-8.8-1.4-17.3-4-25.3c-2.7-8.2-6.6-15.9-11.6-22.8
		c-5-6.9-11.1-13-18.1-18.1c-6.9-5-14.5-9-22.8-11.6c-8-2.6-16.4-4-25.3-4s-17.3,1.4-25.3,4c-8.2,2.7-15.9,6.6-22.8,11.6
		c-6.9,5-13,11.1-18.1,18.1c-5,6.9-9,14.5-11.6,22.8c-2.6,8-4,16.4-4,25.3c0,8.8,1.4,17.3,4,25.3c2.7,8.2,6.6,15.9,11.6,22.8
		c5,6.9,11.1,13,18.1,18.1c6.9,5,14.5,9,22.8,11.6c8,2.6,16.4,4,25.3,4v12.8c-10.2,0-20-1.6-29.2-4.6c-9.5-3.1-18.4-7.7-26.3-13.5
		c-8-5.8-15.1-12.9-20.9-20.9c-5.8-7.9-10.4-16.8-13.5-26.3c-3-9.2-4.6-19-4.6-29.2C25.5,109.1,27.2,99.3,30.1,90.1z"/>
	<path class="st0" d="M45.9,95.2c2.6-7.9,6.3-15.2,11.1-21.7c4.8-6.6,10.6-12.4,17.2-17.2c6.5-4.8,13.8-8.5,21.7-11.1
		c7.6-2.5,15.7-3.8,24.1-3.8c0,0,0,0,0,0c8.4,0,16.5,1.3,24.1,3.8c7.9,2.6,15.2,6.3,21.7,11.1c6.6,4.8,12.4,10.6,17.2,17.2
		c4.8,6.5,8.5,13.8,11.1,21.7c2.5,7.6,3.8,15.7,3.8,24.1s-1.3,16.5-3.8,24.1c-2.6,7.9-6.3,15.2-11.1,21.7
		c-4.8,6.6-10.6,12.4-17.2,17.2l-7.5-10.3c5.5-4,10.4-8.9,14.4-14.4c4-5.5,7.1-11.6,9.3-18.1c2.1-6.3,3.2-13.1,3.2-20.1
		s-1.1-13.8-3.2-20.1c-2.1-6.6-5.3-12.7-9.3-18.1c-4-5.5-8.9-10.4-14.4-14.4c-5.5-4-11.6-7.1-18.1-9.3c-6.3-2.1-13.1-3.2-20.1-3.2
		c0,0,0,0,0,0c-7,0-13.8,1.1-20.1,3.2c-6.6,2.1-12.7,5.3-18.1,9.3c-5.5,4-10.4,8.9-14.4,14.4c-4,5.5-7.1,11.6-9.3,18.1
		c-2.1,6.3-3.2,13.1-3.2,20.1s1.1,13.8,3.2,20.1c2.1,6.6,5.3,12.7,9.3,18.1c4,5.5,8.9,10.4,14.4,14.4c5.5,4,11.6,7.1,18.1,9.3
		c6.3,2.1,13.1,3.2,20.1,3.2v12.8c-8.4,0-16.5-1.3-24.1-3.8c-7.9-2.6-15.2-6.3-21.7-11.1c-6.6-4.8-12.4-10.6-17.2-17.2
		c-4.8-6.5-8.5-13.8-11.1-21.7c-2.5-7.6-3.8-15.7-3.8-24.1S43.4,102.8,45.9,95.2z"/>
	<path class="st0" d="M62.1,100.5c2-6.1,4.9-11.9,8.7-17c3.8-5.2,8.3-9.7,13.5-13.5c5.1-3.7,10.8-6.7,17-8.7c5.9-1.9,12.3-3,18.8-3
		c6.6,0,12.9,1,18.8,3c6.1,2,11.9,4.9,17,8.7c5.2,3.8,9.7,8.3,13.5,13.5c3.7,5.1,6.7,10.8,8.7,17c1.9,5.9,3,12.3,3,18.8c0,0,0,0,0,0
		c0,6.6-1,12.9-3,18.8c-2,6.1-4.9,11.9-8.7,17c-3.8,5.2-8.3,9.7-13.5,13.5c-5.1,3.7-10.8,6.7-17,8.7l-3.9-12.1
		c4.9-1.6,9.4-3.9,13.4-6.9c4.1-3,7.7-6.6,10.7-10.7c2.9-4,5.3-8.6,6.9-13.4c1.5-4.7,2.4-9.7,2.4-14.9c0,0,0,0,0,0
		c0-5.2-0.8-10.2-2.4-14.9c-1.6-4.9-3.9-9.4-6.9-13.4c-3-4.1-6.6-7.7-10.7-10.7c-4-2.9-8.6-5.3-13.4-6.9c-4.7-1.5-9.7-2.4-14.9-2.4
		s-10.2,0.8-14.9,2.4c-4.9,1.6-9.4,3.9-13.4,6.9c-4.1,3-7.7,6.6-10.7,10.7c-2.9,4-5.3,8.6-6.9,13.4c-1.5,4.7-2.4,9.7-2.4,14.9
		c0,0,0,0,0,0c0,5.2,0.8,10.2,2.4,14.9c1.6,4.9,3.9,9.4,6.9,13.4c3,4.1,6.6,7.7,10.7,10.7c4,2.9,8.6,5.3,13.4,6.9
		c4.7,1.5,9.7,2.4,14.9,2.4v12.8c-6.6,0-12.9-1-18.8-3c-6.1-2-11.9-4.9-17-8.7c-5.2-3.8-9.7-8.3-13.5-13.5c-3.7-5.1-6.7-10.8-8.7-17
		c-1.9-5.9-3-12.3-3-18.8c0,0,0,0,0,0C59.1,112.7,60.1,106.4,62.1,100.5z"/>
	<path class="st0" d="M78.1,105.7c1.4-4.4,3.6-8.6,6.3-12.3c2.7-3.7,6-7,9.7-9.7c3.7-2.7,7.8-4.8,12.3-6.3c4.3-1.4,8.9-2.2,13.6-2.2
		s9.3,0.8,13.6,2.2c4.4,1.4,8.6,3.6,12.3,6.3c3.7,2.7,7,6,9.7,9.7c2.7,3.7,4.8,7.8,6.3,12.3c1.4,4.3,2.2,8.9,2.2,13.6c0,0,0,0,0,0
		c0,4.7-0.8,9.3-2.2,13.6c-1.4,4.4-3.6,8.6-6.3,12.3c-2.7,3.7-6,7-9.7,9.7c-3.7,2.7-7.8,4.8-12.3,6.3l-3.9-12.1
		c3.2-1,6.1-2.5,8.7-4.5c2.6-1.9,5-4.3,6.9-6.9c1.9-2.6,3.4-5.6,4.5-8.7c1-3,1.5-6.3,1.5-9.7c0,0,0,0,0,0c0-3.4-0.5-6.6-1.5-9.7
		c-1-3.2-2.5-6.1-4.5-8.7c-1.9-2.6-4.3-5-6.9-6.9c-2.6-1.9-5.6-3.4-8.7-4.5c-3-1-6.3-1.5-9.7-1.5s-6.6,0.5-9.7,1.5
		c-3.2,1-6.1,2.5-8.7,4.5c-2.6,1.9-5,4.3-6.9,6.9c-1.9,2.6-3.4,5.6-4.5,8.7c-1,3-1.5,6.3-1.5,9.7c0,0,0,0,0,0c0,3.4,0.5,6.6,1.5,9.7
		c1,3.2,2.5,6.1,4.5,8.7c1.9,2.6,4.3,5,6.9,6.9c2.6,1.9,5.6,3.4,8.7,4.5c3,1,6.3,1.5,9.7,1.5v12.8c-4.7,0-9.3-0.8-13.6-2.2
		c-4.4-1.4-8.6-3.6-12.3-6.3c-3.7-2.7-7-6-9.7-9.7c-2.7-3.7-4.8-7.8-6.3-12.3c-1.4-4.3-2.2-8.9-2.2-13.6c0,0,0,0,0,0
		C76,114.6,76.7,110,78.1,105.7z"/>
</g>
<g>
	<path class="st1" d="M29.8,54c6.9-9.4,15.2-17.8,24.7-24.7c9.4-6.8,19.8-12.2,31.1-15.9C96.4,9.9,108,8,120,8c0,0,0,0,0,0
		c12,0,23.6,1.9,34.5,5.5c11.2,3.7,21.7,9.1,31.1,15.9c9.4,6.9,17.8,15.2,24.7,24.7c6.8,9.4,12.2,19.8,15.9,31.1
		c3.5,10.9,5.5,22.4,5.5,34.5c0,0,0,0,0,0c0,12-1.9,23.6-5.5,34.5c-3.7,11.2-9.1,21.7-15.9,31.1c-6.9,9.4-15.2,17.8-24.7,24.7
		c-9.4,6.8-19.8,12.2-31.1,15.9c-10.9,3.5-22.4,5.5-34.5,5.5c0,0,0,0,0,0v-12.8c0,0,0,0,0,0c10.6,0,20.9-1.7,30.5-4.8
		c10-3.2,19.2-8,27.5-14.1c8.4-6.1,15.7-13.5,21.8-21.8c6-8.3,10.8-17.6,14.1-27.5c3.1-9.6,4.8-19.9,4.8-30.5c0,0,0,0,0,0
		c0-10.6-1.7-20.9-4.8-30.5c-3.2-10-8-19.2-14.1-27.5c-6.1-8.4-13.5-15.7-21.8-21.8c-8.3-6-17.6-10.8-27.5-14.1
		c-9.6-3.1-19.9-4.8-30.5-4.8c0,0,0,0,0,0c-10.6,0-20.9,1.7-30.5,4.8c-10,3.2-19.2,8-27.5,14.1c-8.4,6.1-15.7,13.5-21.8,21.8
		C34.1,69.8,29.3,79,26.1,89l-12.1-3.9C17.6,73.8,23,63.4,29.8,54z"/>
	<path class="st2" d="M145.3,197.2c8.2-2.7,15.9-6.6,22.8-11.6l7.5,10.3c-7.9,5.8-16.8,10.4-26.3,13.5c-9.2,3-19,4.6-29.2,4.6v-12.8
		C128.8,201.2,137.3,199.8,145.3,197.2z"/>
	<path class="st3" d="M120,184.7c7,0,13.8-1.1,20.1-3.2c6.6-2.1,12.7-5.3,18.1-9.3l7.5,10.3c-6.5,4.8-13.8,8.5-21.7,11.1
		c-7.6,2.5-15.7,3.8-24.1,3.8c0,0,0,0,0,0L120,184.7C120,184.7,120,184.7,120,184.7z"/>
	<path class="st4" d="M134.9,165.3l3.9,12.1c-5.9,1.9-12.3,3-18.8,3v-12.8C125.2,167.7,130.2,166.9,134.9,165.3z"/>
	<path class="st5" d="M129.7,149.2l3.9,12.1c-4.3,1.4-8.9,2.2-13.6,2.2v-12.8C123.4,150.8,126.6,150.2,129.7,149.2z"/>
</g>
</svg>
