<?xml version="1.0" encoding="utf-8"?>
<!-- Generator: Adobe Illustrator 22.1.0, SVG Export Plug-In . SVG Version: 6.00 Build 0)  -->
<svg version="1.1" id="Layer_1" xmlns="http://www.w3.org/2000/svg" xmlns:xlink="http://www.w3.org/1999/xlink" x="0px" y="0px"
	 viewBox="0 0 558.4 558.4" style="enable-background:new 0 0 558.4 558.4;" xml:space="preserve">
<style type="text/css">
	.st0{fill:#F5F5F5;}
	.st1{fill:#C1E0FB;}
	.st2{fill:#ADD0FB;}
	.st3{fill:#9ABDFC;}
	.st4{fill:#86ACFC;}
	.st5{fill:#739BFC;}
	.st6{fill:#D5E8F7;}
</style>
<g>
	<path class="st0" d="M348.7,279.3c0-37.6-30.5-68.1-68.1-68.1s-68.1,30.5-68.1,68.1c0,37.3,30.1,67.6,67.3,68v-31.3
		c-20-0.4-36-16.7-36-36.8c0-20.3,16.5-36.8,36.8-36.8c20.3,0,36.8,16.5,36.8,36.8c0,16.6-10.9,30.6-26,35.2l10,29.6
		C328.8,335.4,348.7,309.7,348.7,279.3z"/>
	<path class="st1" d="M280.1,358.5v32.2c12.5,0,24.4-2.1,35.6-6l-10.6-30.4C297.2,357,288.8,358.5,280.1,358.5z"/>
	<path class="st0" d="M279.9,169.5c-2.1,0-4.1,0.1-6.2,0.2c-58.1,3.2-104.4,51.5-104.4,110.4c0,61,49.6,110.6,110.6,110.6
		c0.1,0,0.1,0,0.2,0v-32.2c-0.1,0-0.1,0-0.2,0c-43.3,0-78.4-35.2-78.4-78.4c0-41.9,33-76.2,74.4-78.3c1.4-0.1,2.7-0.1,4.1-0.1
		c43.2,0,78.4,35.2,78.4,78.4c0,34.4-22.3,63.7-53.2,74.2l10.6,30.4c43.5-14.9,74.8-56.2,74.8-104.6
		C390.5,219.1,340.8,169.5,279.9,169.5z"/>
	<path class="st0" d="M279.9,127.2c-3,0-6,0.1-8.9,0.3C190.8,132.2,127,198.8,127,280.1c0,84.3,68.6,152.9,152.9,152.9
		c0.1,0,0.1,0,0.2,0v-32.2c-0.1,0-0.1,0-0.2,0c-66.6,0-120.7-54.2-120.7-120.7c0-64.3,50.5-116.9,113.9-120.5
		c2.3-0.1,4.5-0.2,6.8-0.2c36,0,68.4,15.9,90.5,41l23.6-21.9C365.9,147.1,325.2,127.2,279.9,127.2z"/>
	<path class="st2" d="M394,178.5l-23.6,21.9c18.8,21.3,30.2,49.2,30.2,79.7c0,52.9-34.2,97.9-81.6,114.2
		c-12.2,4.2-25.3,6.5-38.9,6.5V433c17.3,0,33.9-3,49.5-8.3c60-20.7,103.2-77.6,103.2-144.6C432.7,241.1,418.1,205.6,394,178.5z"/>
	<path class="st3" d="M280.1,441.6v32.2c22,0,43.1-3.8,62.8-10.6l-10.6-30.4C315.9,438.4,298.4,441.5,280.1,441.6z"/>
	<path class="st0" d="M279.9,86.5c-3.9,0-7.8,0.2-11.6,0.4c-101.4,6-182,90.4-182,193.2c0,106.8,86.9,193.6,193.6,193.6
		c0.1,0,0.1,0,0.2,0v-32.2c-0.1,0-0.1,0-0.2,0c-89,0-161.5-72.4-161.5-161.4c0-85.8,67.3-156.2,151.9-161.1c3.1-0.2,6.3-0.3,9.5-0.3
		c47.8,0,90.8,20.9,120.4,54c25.5,28.6,41,66.2,41,107.4c0,70.7-45.6,130.8-109,152.6l10.6,30.4c75.9-26.2,130.6-98.3,130.6-183
		C473.5,173.4,386.6,86.5,279.9,86.5z"/>
	<path class="st0" d="M42.8,280.1c0,130.7,106.3,237,237,237c0.1,0,0.1,0,0.2,0v-32.2c-0.1,0-0.1,0-0.2,0
		C166.9,485,75,393.1,75,280.1c0-108.8,85.3-198,192.5-204.4l-2.1-32.1C141.4,51.1,42.8,154.3,42.8,280.1z"/>
	<path class="st4" d="M279.9,43.1c-4.9,0-9.7,0.2-14.4,0.5l2.1,32.1c4.1-0.2,8.2-0.4,12.3-0.4c112.9,0,204.8,91.9,204.8,204.8
		c0,89.6-57.8,165.9-138.1,193.6c-20.9,7.2-43.2,11.2-66.5,11.2v32.2c27,0,52.9-4.6,77.1-13c92.9-32.1,159.7-120.4,159.7-224.1
		C516.9,149.4,410.5,43.1,279.9,43.1z"/>
	<path class="st5" d="M372.4,508c-4.1,1.7-8.2,3.2-12.3,4.7c-25.1,8.7-52,13.4-80,13.4v32.2c31.7,0,62.2-5.4,90.6-15.2
		c4.8-1.7,9.6-3.5,14.3-5.4L372.4,508z"/>
	<path class="st0" d="M279.9,526.1c-135.6,0-246-110.3-246-246c0-130.6,102.3-237.7,230.9-245.5l0-0.3l0,0.3c5-0.3,10-0.5,15-0.5
		c135.6,0,246,110.3,246,246c0,102.9-63.5,191.2-153.4,227.9l12.5,29.6C486.3,496.1,558,396.3,558,280.1C558,126.7,433.2,2,279.9,2
		C126.5,2,1.7,126.7,1.7,280.1c0,153.4,124.8,278.1,278.2,278.1c0.1,0,0.1,0,0.2,0v-32.2C280,526.1,279.9,526.1,279.9,526.1z"/>
	<path class="st6" d="M280.7,316.1c-0.3,0-0.5,0-0.8,0v31.3c0.3,0,0.5,0,0.8,0c7.3,0,14.3-1.1,20.8-3.3l-10-29.7
		C288.1,315.5,284.5,316.1,280.7,316.1z"/>
</g>
</svg>
