<?xml version="1.0" encoding="utf-8"?>
<!-- Generator: Adobe Illustrator 22.1.0, SVG Export Plug-In . SVG Version: 6.00 Build 0)  -->
<svg version="1.1" id="Layer_1" xmlns="http://www.w3.org/2000/svg" xmlns:xlink="http://www.w3.org/1999/xlink" x="0px" y="0px"
	 viewBox="0 0 240 240" style="enable-background:new 0 0 240 240;" xml:space="preserve">
<style type="text/css">
	.st0{fill:#7299FF;}
	.st1{fill:#86ABFF;}
	.st2{fill:#99BDFF;}
	.st3{fill:#ADCFFE;}
	.st4{fill:#C0E1FE;}
	.st5{fill:#F5F5F5;}
	.st6{fill:#D9EBF9;}
</style>
<g>
	<path class="st0" d="M119.2,218.2c-10.6,0-20.9-1.7-30.5-4.8c-9.9-3.2-19.2-8-27.5-14.1c-8.4-6.1-15.7-13.5-21.8-21.8
		c-6-8.3-10.8-17.5-14.1-27.5c-3.1-9.6-4.8-19.9-4.8-30.5l0,0c0-10.6,1.7-20.9,4.8-30.5c3.2-9.9,8-19.2,14.1-27.5
		c6.1-8.4,13.5-15.7,21.8-21.8l-7.5-10.3C44.3,36.2,35.9,44.5,29.1,54c-6.8,9.4-12.2,19.8-15.9,31c-3.5,10.9-5.5,22.4-5.5,34.4l0,0
		c0,12,1.9,23.6,5.5,34.4c3.7,11.2,9.1,21.7,15.9,31c6.9,9.4,15.2,17.8,24.6,24.6s19.8,12.2,31,15.9c10.9,3.5,22.4,5.5,34.4,5.5l0,0
		L119.2,218.2L119.2,218.2z"/>
	<path class="st1" d="M94,197.1c-8.2-2.7-15.9-6.6-22.7-11.6c-6.9-5-13-11.1-18.1-18.1c-5-6.9-8.9-14.5-11.6-22.7
		c-2.6-8-4-16.4-4-25.2s1.4-17.3,4-25.2l-12.1-3.9c-3,9.2-4.6,19-4.6,29.2s1.6,20,4.6,29.2c3.1,9.5,7.7,18.4,13.4,26.3
		c5.8,8,12.9,15.1,20.9,20.9c7.9,5.8,16.8,10.3,26.3,13.4c9.2,3,19,4.6,29.2,4.6v-12.8C110.4,201.1,101.9,199.7,94,197.1z"/>
	<path class="st2" d="M119.2,184.6c-7,0-13.8-1.1-20.1-3.2c-6.6-2.1-12.7-5.3-18.1-9.3c-5.5-4-10.4-8.9-14.4-14.4l-10.3,7.5
		c4.8,6.6,10.6,12.4,17.2,17.2c6.5,4.8,13.8,8.5,21.7,11.1c7.6,2.5,15.7,3.8,24.1,3.8l0,0L119.2,184.6L119.2,184.6z"/>
	<path class="st3" d="M104.3,165.2c-4.9-1.6-9.4-3.9-13.4-6.9l-7.5,10.3c5.1,3.7,10.8,6.7,17,8.7c5.9,1.9,12.3,3,18.8,3v-12.8
		C114,167.6,109,166.8,104.3,165.2z"/>
	<path class="st4" d="M109.5,149.2l-3.9,12.1c4.3,1.4,8.9,2.2,13.6,2.2v-12.8C115.8,150.7,112.6,150.2,109.5,149.2z"/>
	<path class="st5" d="M225.4,85c-3.7-11.2-9.1-21.7-15.9-31c-6.9-9.4-15.2-17.8-24.6-24.6c-9.4-6.8-19.8-12.2-31-15.9
		c-11-3.6-22.5-5.5-34.6-5.5l0,0c-12,0-23.6,1.9-34.4,5.5c-11.2,3.7-21.7,9.1-31,15.9l7.5,10.3c8.3-6,17.5-10.8,27.5-14.1
		c9.6-3.1,19.9-4.8,30.5-4.8l0,0c10.6,0,20.9,1.7,30.5,4.8c9.9,3.2,19.2,8,27.5,14.1c8.4,6.1,15.7,13.5,21.8,21.8
		c6,8.3,10.8,17.5,14.1,27.5c3.1,9.6,4.8,19.9,4.8,30.5l0,0c0,10.6-1.7,20.9-4.8,30.5c-3.2,9.9-8,19.2-14.1,27.5
		c-6.1,8.4-13.5,15.7-21.8,21.8c-8.3,6-17.5,10.8-27.5,14.1c-9.6,3.1-19.9,4.8-30.5,4.8V231c12,0,23.6-1.9,34.4-5.5
		c11.2-3.7,21.7-9.1,31-15.9c9.4-6.9,17.8-15.2,24.6-24.6c6.8-9.4,12.2-19.8,15.9-31c3.5-10.9,5.5-22.4,5.5-34.4l0,0
		C230.8,107.4,228.9,95.9,225.4,85z"/>
	<path class="st5" d="M209.2,90.3c-3.1-9.5-7.7-18.4-13.4-26.3c-5.8-8-12.9-15.1-20.9-20.9c-7.9-5.8-16.8-10.3-26.3-13.4
		c-9.2-3-19-4.6-29.2-4.6s-20,1.6-29.2,4.6c-9.5,3.1-18.4,7.7-26.3,13.4C55.9,48.9,48.8,56,43,64c-5.8,7.9-10.3,16.8-13.4,26.3
		l12.1,3.9c2.7-8.2,6.6-15.9,11.6-22.7c5-6.9,11.1-13,18.1-18.1c6.9-5,14.5-8.9,22.7-11.6c8-2.6,16.4-4,25.2-4s17.3,1.4,25.2,4
		c8.2,2.7,15.9,6.6,22.7,11.6c6.9,5,13,11.1,18.1,18.1c5,6.9,8.9,14.5,11.6,22.7c2.6,8,4,16.4,4,25.2s-1.4,17.3-4,25.2
		c-2.7,8.2-6.6,15.9-11.6,22.7c-5,6.9-11.1,13-18.1,18.1c-6.9,5-14.5,8.9-22.7,11.6c-8,2.6-16.4,4-25.2,4v12.8
		c10.2,0,20-1.6,29.2-4.6c9.5-3.1,18.4-7.7,26.3-13.4c8-5.8,15.1-12.9,20.9-20.9c5.8-7.9,10.3-16.8,13.4-26.3c3-9.2,4.6-19,4.6-29.2
		C213.8,109.3,212.1,99.5,209.2,90.3z"/>
	<path class="st5" d="M193.4,95.4c-2.6-7.8-6.3-15.2-11.1-21.7c-4.8-6.6-10.6-12.4-17.2-17.2c-6.5-4.8-13.8-8.5-21.7-11.1
		c-7.6-2.5-15.7-3.8-24.1-3.8l0,0c-8.4,0-16.5,1.3-24.1,3.8C87.4,48,80,51.7,73.5,56.5C67,61.3,61.2,67.1,56.4,73.7
		c-4.8,6.5-8.5,13.8-11.1,21.7c-2.5,7.6-3.8,15.7-3.8,24.1s1.3,16.5,3.8,24.1c2.6,7.8,6.3,15.2,11.1,21.7l10.3-7.5
		c-4-5.5-7.1-11.6-9.3-18.1c-2.1-6.3-3.2-13.1-3.2-20.1s1.1-13.8,3.2-20.1c2.1-6.6,5.3-12.7,9.3-18.1c4-5.5,8.9-10.4,14.4-14.4
		s11.6-7.1,18.1-9.3c6.3-2.1,13.1-3.2,20.1-3.2l0,0c7,0,13.8,1.1,20.1,3.2c6.6,2.1,12.7,5.3,18.1,9.3c5.5,4,10.4,8.9,14.4,14.4
		s7.1,11.6,9.3,18.1c2.1,6.3,3.2,13.1,3.2,20.1s-1.1,13.8-3.2,20.1c-2.1,6.6-5.3,12.7-9.3,18.1c-4,5.5-8.9,10.4-14.4,14.4
		s-11.6,7.1-18.1,9.3c-6.3,2.1-13.1,3.2-20.1,3.2v12.8c8.4,0,16.5-1.3,24.1-3.8c7.8-2.6,15.2-6.3,21.7-11.1
		c6.6-4.8,12.4-10.6,17.2-17.2c4.8-6.5,8.5-13.8,11.1-21.7c2.5-7.6,3.8-15.7,3.8-24.1S195.9,103,193.4,95.4z"/>
	<path class="st5" d="M177.3,100.6c-2-6.1-4.9-11.8-8.7-17s-8.3-9.7-13.5-13.5c-5.1-3.7-10.8-6.7-17-8.7c-5.9-1.9-12.3-3-18.8-3
		c-6.6,0-12.9,1-18.8,3c-6.1,2-11.8,4.9-17,8.7S73.8,78.4,70,83.6c-3.7,5.1-6.7,10.8-8.7,17c-1.9,5.9-3,12.3-3,18.8l0,0
		c0,6.6,1,12.9,3,18.8c2,6.1,4.9,11.8,8.7,17s8.3,9.7,13.5,13.5l7.5-10.3c-4.1-3-7.7-6.6-10.6-10.6s-5.3-8.6-6.9-13.4
		c-1.5-4.7-2.4-9.7-2.4-14.9l0,0c0-5.2,0.8-10.2,2.4-14.9c1.6-4.9,3.9-9.4,6.9-13.4c3-4.1,6.6-7.7,10.6-10.6s8.6-5.3,13.4-6.9
		c4.7-1.5,9.7-2.4,14.9-2.4c5.2,0,10.2,0.8,14.9,2.4c4.9,1.6,9.4,3.9,13.4,6.9c4.1,3,7.7,6.6,10.6,10.6c2.9,4,5.3,8.6,6.9,13.4
		c1.5,4.7,2.4,9.7,2.4,14.9l0,0c0,5.2-0.8,10.2-2.4,14.9c-1.6,4.9-3.9,9.4-6.9,13.4c-3,4.1-6.6,7.7-10.6,10.6
		c-4,2.9-8.6,5.3-13.4,6.9c-4.7,1.5-9.7,2.4-14.9,2.4v12.8c6.6,0,12.9-1,18.8-3c6.1-2,11.8-4.9,17-8.7s9.7-8.3,13.5-13.5
		c3.7-5.1,6.7-10.8,8.7-17c1.9-5.9,3-12.3,3-18.8l0,0C180.2,112.9,179.2,106.6,177.3,100.6z"/>
	<path class="st5" d="M161.2,105.9c-1.4-4.4-3.6-8.6-6.3-12.3c-2.7-3.7-6-7-9.7-9.7s-7.8-4.8-12.3-6.3c-4.3-1.4-8.9-2.2-13.6-2.2
		s-9.3,0.8-13.6,2.2c-4.4,1.4-8.6,3.6-12.3,6.3c-3.7,2.7-7,6-9.7,9.7s-4.8,7.8-6.3,12.3c-1.4,4.3-2.2,8.9-2.2,13.6l0,0
		c0,4.7,0.8,9.3,2.2,13.6c1.4,4.4,3.6,8.6,6.3,12.3c2.7,3.7,6,7,9.7,9.7s7.8,4.8,12.3,6.3l3.9-12.1c-3.1-1-6.1-2.5-8.7-4.4
		s-5-4.3-6.9-6.9c-1.9-2.6-3.4-5.6-4.4-8.7c-1-3-1.5-6.3-1.5-9.7l0,0c0-3.4,0.5-6.6,1.5-9.7s2.5-6.1,4.4-8.7s4.3-5,6.9-6.9
		s5.6-3.4,8.7-4.4c3-1,6.3-1.5,9.7-1.5c3.4,0,6.6,0.5,9.7,1.5s6.1,2.5,8.7,4.4c2.6,1.9,5,4.3,6.9,6.9s3.4,5.6,4.4,8.7
		c1,3,1.5,6.3,1.5,9.7l0,0c0,3.4-0.5,6.6-1.5,9.7c-1,3.1-2.5,6.1-4.4,8.7c-1.9,2.6-4.3,5-6.9,6.9c-2.6,1.9-5.6,3.4-8.7,4.4
		c-3,1-6.3,1.5-9.7,1.5v12.8c4.7,0,9.3-0.8,13.6-2.2c4.4-1.4,8.6-3.6,12.3-6.3s7-6,9.7-9.7s4.8-7.8,6.3-12.3
		c1.4-4.3,2.2-8.9,2.2-13.6l0,0C163.3,114.7,162.6,110.2,161.2,105.9z"/>
	<path class="st6" d="M114.4,134.4l-2,6.1c2.2,0.7,4.5,1.1,6.8,1.1v-6.4C117.5,135.2,115.9,134.9,114.4,134.4z"/>
	<path class="st5" d="M140.4,112.7c-0.7-2.2-1.8-4.3-3.2-6.2c-1.4-1.9-3-3.5-4.9-4.9c-1.9-1.4-3.9-2.4-6.2-3.2
		c-2.2-0.7-4.5-1.1-6.8-1.1c-2.4,0-4.7,0.4-6.8,1.1c-2.2,0.7-4.3,1.8-6.2,3.2c-1.9,1.4-3.5,3-4.9,4.9c-1.4,1.9-2.4,3.9-3.2,6.2
		c-0.7,2.2-1.1,4.5-1.1,6.8l0,0c0,2.4,0.4,4.7,1.1,6.8c0.7,2.2,1.8,4.3,3.2,6.2c1.4,1.9,3,3.5,4.9,4.9c1.9,1.4,3.9,2.4,6.2,3.2
		l2-6.1c-1.6-0.5-3.1-1.3-4.4-2.2c-1.3-1-2.5-2.2-3.5-3.5c-1-1.3-1.7-2.8-2.2-4.4c-0.5-1.5-0.8-3.2-0.8-4.9l0,0
		c0-1.7,0.3-3.3,0.8-4.9c0.5-1.6,1.3-3.1,2.2-4.4c1-1.3,2.2-2.5,3.5-3.5c1.3-1,2.8-1.7,4.4-2.2c1.5-0.5,3.2-0.8,4.9-0.8
		c1.7,0,3.3,0.3,4.9,0.8c1.6,0.5,3.1,1.3,4.4,2.2c1.3,1,2.5,2.2,3.5,3.5c1,1.3,1.7,2.8,2.2,4.4c0.5,1.5,0.8,3.2,0.8,4.9l0,0
		c0,1.7-0.3,3.3-0.8,4.9c-0.5,1.6-1.3,3.1-2.2,4.4s-2.2,2.5-3.5,3.5c-1.3,1-2.8,1.7-4.4,2.2c-1.5,0.5-3.2,0.8-4.9,0.8v6.4
		c2.4,0,4.7-0.4,6.8-1.1c2.2-0.7,4.3-1.8,6.2-3.2c1.9-1.4,3.5-3,4.9-4.9c1.4-1.9,2.4-3.9,3.2-6.2c0.7-2.2,1.1-4.5,1.1-6.8l0,0
		C141.4,117.1,141.1,114.8,140.4,112.7z"/>
	<path class="st6" d="M113.2,138.1l-2.4,7.6c2.7,0.9,5.6,1.4,8.5,1.4v-8C117.1,139.1,115.1,138.8,113.2,138.1z"/>
	<path class="st5" d="M145.6,111c-0.9-2.8-2.3-5.4-4-7.7c-1.7-2.3-3.8-4.4-6.1-6.1c-2.3-1.7-4.9-3-7.7-4c-2.7-0.9-5.6-1.4-8.5-1.4
		c-2.9,0-5.8,0.5-8.5,1.4c-2.8,0.9-5.4,2.3-7.7,4c-2.3,1.7-4.4,3.8-6.1,6.1c-1.7,2.3-3,4.9-4,7.7c-0.9,2.7-1.4,5.6-1.4,8.5l0,0
		c0,2.9,0.5,5.8,1.4,8.5c0.9,2.8,2.3,5.4,4,7.7c1.7,2.3,3.8,4.4,6.1,6.1s4.9,3,7.7,4l2.4-7.6c-1.9-0.6-3.8-1.6-5.5-2.8
		c-1.6-1.2-3.1-2.7-4.3-4.3c-1.2-1.6-2.1-3.5-2.8-5.5c-0.6-1.9-0.9-4-0.9-6.1l0,0c0-2.1,0.3-4.1,0.9-6.1c0.6-1.9,1.6-3.8,2.8-5.5
		c1.2-1.6,2.7-3.1,4.3-4.3c1.6-1.2,3.5-2.1,5.5-2.8c1.9-0.6,4-0.9,6.1-0.9c2.1,0,4.1,0.3,6.1,0.9c1.9,0.6,3.8,1.6,5.5,2.8
		c1.6,1.2,3.1,2.7,4.3,4.3s2.1,3.5,2.8,5.5c0.6,1.9,0.9,4,0.9,6.1l0,0c0,2.1-0.3,4.1-0.9,6.1c-0.6,1.9-1.6,3.8-2.8,5.5
		c-1.2,1.6-2.7,3.1-4.3,4.3c-1.6,1.2-3.5,2.1-5.5,2.8c-1.9,0.6-4,0.9-6.1,0.9v8c2.9,0,5.8-0.5,8.5-1.4c2.8-0.9,5.4-2.3,7.7-4
		c2.3-1.7,4.4-3.8,6.1-6.1c1.7-2.3,3-4.9,4-7.7c0.9-2.7,1.4-5.6,1.4-8.5l0,0C146.9,116.5,146.5,113.7,145.6,111z"/>
</g>
</svg>
