<?xml version="1.0" encoding="utf-8"?>
<!-- Generator: Adobe Illustrator 22.1.0, SVG Export Plug-In . SVG Version: 6.00 Build 0)  -->
<svg version="1.1" id="Layer_1" xmlns="http://www.w3.org/2000/svg" xmlns:xlink="http://www.w3.org/1999/xlink" x="0px" y="0px"
	 viewBox="0 0 190 70" style="enable-background:new 0 0 190 70;" xml:space="preserve">
<style type="text/css">
	.st0{fill:url(#SVGID_1_);}
</style>
<linearGradient id="SVGID_1_" gradientUnits="userSpaceOnUse" x1="17.9401" y1="-1.9902" x2="165.0834" y2="79.5727">
	<stop  offset="0" style="stop-color:#C8227D"/>
	<stop  offset="1" style="stop-color:#991A4E"/>
</linearGradient>
<path class="st0" d="M53.9,20.1c0.4,0.3,0.7,0.7,0.7,1.2V49c0,0.5-0.3,1-0.7,1.2L30.6,64.1c-0.2,0.1-0.4,0.2-0.7,0.2
	s-0.5-0.1-0.7-0.2L5.9,50.3C5.5,50,5.2,49.6,5.2,49V21.3c0-0.5,0.3-1,0.7-1.2l23.6-14c0.3-0.2,0.7-0.2,1,0l1.9,1.1
	c0.2,0.1,0.2,0.3,0,0.4L8.1,22.1C8,22.1,8,22.2,8,22.3v25.8c0,0.1,0,0.2,0.1,0.2l21.7,12.9c0.1,0,0.2,0,0.2,0l21.7-12.9
	c0.1,0,0.1-0.1,0.1-0.2V22.3c0-0.1,0-0.2-0.1-0.2l-17-10.1c-0.1,0-0.2,0-0.2,0l-20.1,12c-0.2,0.1-0.2,0.3,0,0.4l15.4,9.2
	c0.1,0,0.2,0,0.2,0l17.8-10.6c0.5-0.3,1.2-0.2,1.6,0.2c0.3,0.3,0.4,0.7,0.4,1.1v22.1c0,0.5-0.3,1-0.7,1.2L30.6,58.6
	c-0.4,0.2-0.9,0.3-1.3,0L10.6,48c-0.4-0.2-0.7-0.7-0.7-1.2V27.6c0-0.2,0.2-0.3,0.4-0.2l1.9,1.1c0.3,0.2,0.5,0.5,0.5,0.9v16.4
	c0,0.1,0,0.2,0.1,0.2l17,9.7c0.1,0,0.2,0,0.2,0l17.1-10.1c0.1,0,0.1-0.1,0.1-0.2V26.5l-16.6,9.9c-0.4,0.3-0.9,0.3-1.4,0L10.6,25.3
	c-0.4-0.3-0.7-0.7-0.7-1.2c0-0.5,0.3-1,0.7-1.2L33.9,9c0.4-0.3,0.9-0.3,1.4,0L53.9,20.1 M77.6,40.8c-0.1,0.3-0.4,0.5-0.8,0.5
	c-0.4,0-0.6-0.2-0.8-0.5l-5.2-12.9h-3.3l5.7,14.3c0.3,0.7,0.7,1.3,1.3,1.6c0.6,0.3,1.3,0.5,2.2,0.5c0.9,0,1.6-0.2,2.2-0.5
	c0.6-0.3,1-0.9,1.4-1.6l6-14.3H83L77.6,40.8z M89.7,44h3.1v-16h-3.1V44z M117.4,29.1c-0.6,0.7-1,1.9-1,3.6V44h3.1V33.1
	c0-1.4,0.7-2.1,2-2.1h5.5v-3.1h-6.4C119.1,27.9,118,28.3,117.4,29.1 M130.4,44h3.1v-16h-3.1V44z M151.3,37.5c0,1-0.3,1.7-1,2.4
	c-0.6,0.6-1.6,0.9-2.8,0.9h-2.5c-1.2,0-2.2-0.3-2.8-0.9c-0.7-0.6-1-1.4-1-2.4v-9.6h-3.2v9.7c0,0.9,0.1,1.8,0.4,2.6
	c0.3,0.8,0.7,1.4,1.3,2c0.6,0.6,1.3,1,2.1,1.3c0.8,0.3,1.8,0.5,2.9,0.5h2.9c1.1,0,2.1-0.2,2.9-0.5c0.8-0.3,1.5-0.7,2.1-1.3
	c0.6-0.6,1-1.2,1.3-2c0.3-0.8,0.4-1.6,0.4-2.6v-9.7h-3.1V37.5z M89.7,25.6h3.2v-3.2h-3.2V25.6z M130.4,25.6h3.2v-3.2h-3.2V25.6z
	 M109,37h-7.4c-0.8,0-1.4,0.2-1.7,0.5c-0.3,0.3-0.5,0.8-0.5,1.4c0,0.6,0.2,1.1,0.5,1.4c0.3,0.4,0.9,0.5,1.7,0.5h7.4V37z M110.8,29.4
	c0.4,0.5,0.8,1,1,1.7c0.2,0.6,0.3,1.3,0.3,2.1V44h-10.5c-1.9,0-3.2-0.4-4-1.3c-0.8-0.9-1.2-2.1-1.2-3.6c0-0.7,0.1-1.4,0.3-1.9
	c0.2-0.6,0.5-1,0.9-1.4c0.4-0.4,1-0.7,1.6-0.9c0.7-0.2,1.5-0.3,2.4-0.3h7.4v-1.2c0-0.6-0.2-1.2-0.5-1.6c-0.4-0.4-1-0.6-1.8-0.6h-9.3
	v-3.1h9.4c1,0,1.8,0.1,2.5,0.4C109.8,28.6,110.3,29,110.8,29.4 M182.9,29.8c-1.3-1.2-3.3-1.8-5.9-1.8h-18.2v16h3.1V31h8.3V44h3.2V31
	h3.7c1.7,0,2.8,0.3,3.6,1c0.7,0.7,1.1,1.6,1.1,2.9v9h3.2v-9C184.8,32.7,184.2,31,182.9,29.8"/>
</svg>
