<?xml version="1.0" encoding="utf-8"?>
<!-- Generator: Adobe Illustrator 21.0.0, SVG Export Plug-In . SVG Version: 6.00 Build 0)  -->
<svg version="1.1" id="Слой_1" xmlns="http://www.w3.org/2000/svg" xmlns:xlink="http://www.w3.org/1999/xlink" x="0px" y="0px"
	 viewBox="0 0 540 87" style="enable-background:new 0 0 540 87;" xml:space="preserve">
<style type="text/css">
	.st0{fill:#FFFFFF;}
	.st1{fill:#D52A77;}
</style>
<g>
	<path id="World_копия" class="st0" d="M194,1h-13l-15.2,55.4h-0.4L154,1h-37c0,0,1.8,5.2,4.4,13c1.3,3.7,15,1.4,16.6,6
		c1.2,3.5-9.8,13.8-8.5,17.5C137.3,60.6,146,86,146,86h27l14.6-52.9h0.3c0,0,1.8,6.7,4.2,15.2C196.3,63.9,203,86,203,86h18l19-85
		h-19l-10.9,55.4h-0.4L194,1z M318.4,35.5c0-10.5-3.4-19.1-10.1-26C301.6,2.7,292.7,0,282,0c-10.8,0-19.3,2.6-26,9.5
		c-6.7,6.8-10,15.5-10,26v15.4c0,10.5,3.4,19.2,10.1,26c6.7,6.8,15.5,10.2,26.3,10.2c10.7,0,19.4-3.4,26.1-10.2
		c6.7-6.8,10-15.5,10-26L318.4,35.5L318.4,35.5z M298.6,50.8c0,6.2-1.4,11.2-4.3,15.1c-2.9,3.9-7.5,6.2-12.4,6.1
		c-4.8,0.2-9.3-2.2-12-6.1c-2.9-3.9-4.3-8.9-4.3-15.1V35.3c0-6.1,1.4-11.1,4.2-15c2.8-3.9,6.9-5.8,12.3-5.8c5.2,0,9.3,2,12.2,5.9
		c2.9,3.9,4.3,8.9,4.3,15L298.6,50.8L298.6,50.8z M364,53c4.1,0,6.6,1.1,8.8,3.3s3.2,5.3,3.2,9.3v5.2c0,2.9,0.3,5.7,0.7,8.6
		c0.5,3.1,1.7,5.5,3.3,6.7h20v-1c-1.6-1.2-2.6-3.7-3.3-6.5c-0.6-2.5-1-5-1-7.6v-5.4c0-5.2-1.1-9.5-3.4-12.9c-2.3-3.5-6-5.9-11.3-7.4
		c4-1.6,7.6-4.3,10.3-7.7c2.3-3.2,2.7-7,2.7-11.4c0-7.9-2.1-14.1-7.9-18.7S372.8,1,363,1h-33v85h19V53H364z M349,15h14
		c3.4,0.1,6.7,1.5,9,4c2.2,2.1,3.1,4.8,3.1,8.3c0,3.4-1.1,6-3.2,7.8c-2.1,1.8-4.9,2.9-8.9,2.9h-14V15z M428,1h-19v85h57V71h-38V1z
		 M505,86c9.3,0.2,18.2-3.5,24.7-10c6.8-6.5,10.1-14.9,10.1-25.2V35.5c0-10.2-3.4-18.6-10.1-25.2C522.9,3.7,514,1,504,1h-30v85H505z
		 M504,15c5.3,0,8.6,2.5,11.5,6.1s4.5,8.3,4.5,14.2v15.5c0,5.9-1.5,10.7-4.5,14.3c-3.1,3.8-7.7,6-12.5,5.9h-10V15H504z"/>
	<path id="VR" class="st1" d="M20.3,1h-20l27.4,85H49L76.3,1h-20l-17,62l-0.9,3h-0.4l-0.8-3L20.3,1z M116.3,53
		c3.5-0.1,6.9,1.2,9.4,3.6c2.1,2.1,3.2,5.3,3.2,9.3V71c0,2.9,0.3,5.7,0.7,8.6c0.5,3.1,1.5,5.2,3.1,6.4h20.4v-1.2
		c-1.6-1.2-2.8-3.2-3.5-6.1c-0.6-2.5-1-5-1-7.6v-5.4c0-5.2-1.1-9.5-3.4-12.9c-2.3-3.5-6-5.9-11.3-7.4c4-1.6,7.6-4.3,10.3-7.7
		c2.3-3.2,3.1-7.3,3.1-11.7c0-7.9-2.5-13.8-8.2-18.4S125.2,1,115.3,1h-32v85h19V53H116.3z M102.3,16l13.3,0c3.9,0,7,1.1,9.2,3.2
		c2.2,2.2,3.4,5.3,3.3,8.4c0,3.4-1.1,6-3.2,7.8c-2.1,1.8-4.5,2.6-8.5,2.6h-14V16z"/>
</g>
</svg>
