<?xml version="1.0" encoding="utf-8"?>
<!-- Generator: Adobe Illustrator 22.1.0, SVG Export Plug-In . SVG Version: 6.00 Build 0)  -->
<svg version="1.1" id="Layer_1" xmlns="http://www.w3.org/2000/svg" xmlns:xlink="http://www.w3.org/1999/xlink" x="0px" y="0px"
	 viewBox="0 0 60 60" style="enable-background:new 0 0 60 60;" xml:space="preserve">
<g>
	<path d="M26.6,30.3L25,36.8c2,0.5,8.2,2.5,9.1-1.2h0C35.1,31.8,28.6,30.8,26.6,30.3z"/>
	<path d="M28.9,21.4l-1.5,5.9c1.7,0.4,6.8,2.1,7.7-1.2C35.9,22.6,30.5,21.8,28.9,21.4z"/>
	<path d="M35.5,3.8C21.1,0.2,6.4,9,2.8,23.5C-0.8,37.9,8,52.6,22.5,56.2c14.5,3.6,29.1-5.2,32.7-19.7h0C58.8,22.1,50,7.4,35.5,3.8z
		 M40.9,26.1L40.9,26.1c-0.4,2.6-1.8,3.9-3.8,4.4c2.7,1.4,4,3.5,2.7,7.2c-1.6,4.6-5.4,5-10.4,4l-1.2,4.9l-3-0.7l1.2-4.8
		c-0.8-0.2-1.6-0.4-2.4-0.6l-1.2,4.9l-3-0.7l1.2-4.9c-0.7-0.2-1.4-0.4-2.1-0.5l-3.9-1l1.5-3.4c0,0,2.2,0.6,2.2,0.5
		c0.8,0.2,1.2-0.3,1.4-0.7l1.9-7.8l0.3,0.1c-0.1,0-0.2-0.1-0.3-0.1l1.4-5.5c0-0.6-0.2-1.4-1.4-1.7c0,0-2.2-0.5-2.2-0.5l0.8-3.2
		l4.1,1l0,0c0.6,0.2,1.2,0.3,1.9,0.4l1.2-4.9l3,0.7l-1.2,4.8c0.8,0.2,1.6,0.4,2.4,0.6l1.2-4.7l3,0.7L35,19.3
		C38.7,20.6,41.4,22.5,40.9,26.1z"/>
</g>
</svg>
