<?xml version="1.0" encoding="utf-8"?>
<!-- Generator: Adobe Illustrator 22.1.0, SVG Export Plug-In . SVG Version: 6.00 Build 0)  -->
<svg version="1.1" id="Layer_1" xmlns="http://www.w3.org/2000/svg" xmlns:xlink="http://www.w3.org/1999/xlink" x="0px" y="0px"
	 viewBox="0 0 50 50" style="enable-background:new 0 0 50 50;" xml:space="preserve">
<path d="M39.1,36.6v-9.4c0-5-2.7-7.4-6.3-7.4c-2.9,0-4.2,1.6-4.9,2.7v-2.3h-5.4c0.1,1.5,0,16.3,0,16.3h5.4v-9.1c0-0.5,0-1,0.2-1.3
	c0.4-1,1.3-2,2.8-2c2,0,2.8,1.5,2.8,3.7v8.7L39.1,36.6L39.1,36.6z M16.8,18c1.9,0,3.1-1.3,3.1-2.8c0-1.6-1.2-2.8-3-2.8
	c-1.9,0-3.1,1.2-3.1,2.8C13.7,16.8,14.9,18,16.8,18L16.8,18z M25.6,49.3c-13.3,0-24-10.7-24-24c0-13.3,10.7-24,24-24s24,10.7,24,24
	C49.6,38.5,38.8,49.3,25.6,49.3z M19.5,36.6V20.2H14v16.3H19.5z"/>
</svg>
