<?xml version="1.0" encoding="utf-8"?>
<!-- Generator: Adobe Illustrator 22.1.0, SVG Export Plug-In . SVG Version: 6.00 Build 0)  -->
<svg version="1.1" id="Layer_1" xmlns="http://www.w3.org/2000/svg" xmlns:xlink="http://www.w3.org/1999/xlink" x="0px" y="0px"
	 viewBox="0 0 50 50" style="enable-background:new 0 0 50 50;" xml:space="preserve">
<path d="M49.2,25.1c0-3-2.4-5.4-5.3-5.4c-1.4,0-2.6,0.5-3.6,1.4c-3.5-2.4-8.1-4-13.4-4.3L29.3,9l7.2,1.4c0.2,2.4,2.3,4.3,4.7,4.3
	c0,0,0,0,0,0c0,0,0,0,0,0c2.6,0,4.8-2.2,4.8-4.8s-2.1-4.8-4.8-4.8c0,0,0,0,0,0h0c-1.8,0-3.4,1-4.2,2.6l-9.6-1.9l-3.3,11l-0.3,0
	c-5.4,0.2-10.2,1.9-13.8,4.4c-0.9-0.9-2.2-1.4-3.6-1.4c-2.9,0-5.3,2.4-5.3,5.4c0,2.1,1.2,3.9,2.9,4.8C4,30.5,4,31,4,31.5
	c0,8.1,9.5,14.7,21.2,14.7s21.2-6.6,21.2-14.7c0-0.5,0-1.1-0.1-1.6C48,29,49.2,27.2,49.2,25.1z M4.9,27.3c-0.7-0.5-1.2-1.3-1.2-2.2
	c0-1.5,1.2-2.7,2.6-2.7c0.6,0,1.2,0.2,1.6,0.5C6.5,24.2,5.4,25.7,4.9,27.3z M39.4,10c0-1,0.8-1.8,1.8-1.8c1,0,1.8,0.8,1.8,1.8
	c0,1-0.8,1.8-1.8,1.8C40.2,11.8,39.4,11,39.4,10z M14.8,29.1c0-1.9,1.5-3.4,3.4-3.4c1.9,0,3.4,1.5,3.4,3.4s-1.5,3.4-3.4,3.4
	C16.3,32.5,14.8,31,14.8,29.1z M25.2,41.1c-5.1,0-8.1-3-8.3-3.2l1.3-1.3c0,0,2.5,2.6,6.9,2.6c4.3,0,6.9-2.6,6.9-2.6l1.3,1.3
	C33.3,38,30.3,41,25.2,41.1z M32.3,32.5c-1.9,0-3.4-1.5-3.4-3.4c0-1.9,1.5-3.4,3.4-3.4s3.4,1.5,3.4,3.4S34.2,32.5,32.3,32.5z
	 M45.5,27.3c-0.6-1.6-1.7-3.1-3.1-4.4c0.4-0.4,1-0.6,1.6-0.6c1.5,0,2.7,1.2,2.7,2.7C46.7,26,46.3,26.8,45.5,27.3z"/>
</svg>
