<?xml version="1.0" encoding="utf-8"?>
<!-- Generator: Adobe Illustrator 22.1.0, SVG Export Plug-In . SVG Version: 6.00 Build 0)  -->
<svg version="1.1" id="Layer_1" xmlns="http://www.w3.org/2000/svg" xmlns:xlink="http://www.w3.org/1999/xlink" x="0px" y="0px"
	 viewBox="0 0 60 60" style="enable-background:new 0 0 60 60;" xml:space="preserve">
<path d="M49.7,21c-2.2-2.2-4.9-3.9-7.6-5c1.6-4.8,7.4-6.5,7.4-6.5S36,2.6,21.2,5.4C16.2,6.2,11.5,9.2,8,13.2
	c-7.5,8.7-6.5,21.7,2.2,29.2c1.3,1.2,4.3,2.9,4.4,3c-2,5-8.3,6.4-8.3,6.4s8.3,5.2,19.5,6.6c3,0.4,6.1,0.5,9.4,0.1
	c5.2-0.4,10.3-3.2,14.3-7C58,43.1,58.1,29.5,49.7,21z M45.8,48.1c-3.2,3.1-7.9,5.1-11.6,5.4c-2.6,0.3-5.3,0.3-8,0
	c-3.9-0.5-6.7-1.6-9.5-2.6c1.4-1.4,2.8-3.2,3.4-4.8c0.4-1,0.3-2-0.1-2.9c-3-6.1-1.7-13.4,3.2-18.2c3.5-3.5,8.4-5.1,13.3-4.5
	c3.6,0.4,6.9,2,9.5,4.6C52.4,31.3,52.2,42,45.8,48.1z"/>
</svg>
