<?xml version="1.0" encoding="utf-8"?>
<!-- Generator: Adobe Illustrator 22.1.0, SVG Export Plug-In . SVG Version: 6.00 Build 0)  -->
<svg version="1.1" id="Layer_1" xmlns="http://www.w3.org/2000/svg" xmlns:xlink="http://www.w3.org/1999/xlink" x="0px" y="0px"
	 viewBox="0 0 50 50" style="enable-background:new 0 0 50 50;" xml:space="preserve">
<path d="M47.4,9.6c-2.9,1.1-3.4,0.9-1.9-0.7c1.1-1.1,2.4-3.2,2.4-3.8c0-0.1-0.5,0.1-1.1,0.4c-0.6,0.4-2,0.9-3.1,1.2l-1.9,0.6
	l-1.7-1.2c-0.9-0.6-2.3-1.3-2.9-1.5c-1.8-0.5-4.5-0.4-6.1,0.1c-4.3,1.6-7.1,5.6-6.8,10.1l0.1,1.7l-1.7-0.2
	c-6.3-0.8-11.8-3.5-16.5-8.1L3.9,6L3.3,7.7c-1.2,3.8-0.5,7.7,2.2,10.4c1.4,1.5,1.1,1.7-1.3,0.8c-0.8-0.3-1.6-0.5-1.6-0.4
	c-0.2,0.2,0.6,3.4,1.2,4.7c0.9,1.8,2.7,3.5,4.8,4.5l1.7,0.8l-2,0c-1.9,0-2,0-1.8,0.8c0.7,2.3,3.4,4.7,6.5,5.8l2.2,0.7l-1.9,1.1
	c-2.8,1.6-6,2.5-9.3,2.6c-1.6,0-2.8,0.2-2.8,0.3c0,0.3,4.2,2.3,6.7,3.1c7.4,2.3,16.2,1.3,22.8-2.6c4.7-2.8,9.4-8.3,11.5-13.6
	c1.2-2.8,2.4-8,2.4-10.5c0-1.6,0.1-1.8,2-3.8c1.1-1.1,2.2-2.3,2.4-2.7C49.2,9,49.2,9,47.4,9.6z"/>
</svg>
